<?xml version="1.0" standalone="no"?>
<!DOCTYPE svg PUBLIC "-//W3C//DTD SVG 20010904//EN"
 "http://www.w3.org/TR/2001/REC-SVG-20010904/DTD/svg10.dtd">
<svg version="1.0" xmlns="http://www.w3.org/2000/svg"
 width="5944.000000pt" height="2863.000000pt" viewBox="0 0 5944.000000 2863.000000"
 preserveAspectRatio="xMidYMid meet">
<metadata>
Created by potrace 1.16, written by Peter Selinger 2001-2019
</metadata>
<g transform="translate(0.000000,2863.000000) scale(0.100000,-0.100000)"
fill="#000000" stroke="none">
<path d="M27105 23989 c-1344 -73 -2386 -463 -3115 -1166 -685 -660 -1092
-1525 -1210 -2573 -22 -196 -40 -525 -40 -732 l0 -138 -905 0 -905 0 0 -331 0
-330 -92 64 c-204 142 -516 312 -769 420 -631 270 -1390 439 -2289 511 -630
51 -1460 47 -2085 -10 -1323 -120 -2368 -474 -3117 -1056 -779 -607 -1233
-1414 -1362 -2423 -41 -320 -46 -830 -11 -1125 83 -710 310 -1274 714 -1780
110 -138 355 -380 511 -504 814 -648 2122 -1146 4050 -1542 1057 -216 1783
-451 2150 -695 118 -79 281 -239 348 -341 114 -177 173 -400 158 -598 -47
-592 -399 -971 -1051 -1131 -229 -56 -534 -89 -826 -89 -1367 0 -2267 673
-2712 2031 -24 74 -57 182 -73 242 -15 59 -31 107 -34 107 -24 -1 -3591 -708
-3596 -713 -16 -16 88 -508 166 -782 99 -345 202 -618 354 -930 196 -402 383
-694 664 -1035 134 -162 492 -516 651 -643 997 -795 2527 -1171 4661 -1144
586 8 919 28 1385 87 1231 155 2188 508 2890 1066 147 117 439 412 549 554
230 297 404 616 531 973 l44 122 0 -1202 1 -1203 1935 0 1935 0 0 5095 0 5095
729 0 729 0 37 -132 c20 -73 663 -2365 1428 -5093 l1392 -4960 2388 -3 c1313
-1 2387 0 2387 2 0 3 248 1300 550 2883 650 3400 721 3780 935 5058 143 853
297 1839 382 2448 l27 197 66 0 66 0 52 -413 c197 -1563 418 -2889 712 -4262
44 -209 343 -1624 664 -3145 l582 -2765 2373 0 2374 0 901 3212 901 3212 3
-3215 2 -3214 1945 0 1945 0 0 3998 c0 2669 4 4044 10 4137 54 722 303 1257
765 1643 244 205 556 357 905 442 287 70 655 101 968 81 423 -26 695 -91 987
-236 289 -144 489 -318 661 -576 190 -284 299 -603 367 -1064 l21 -150 3
-4137 3 -4138 1935 0 1935 0 0 4538 c0 2784 -4 4634 -10 4787 -40 1015 -220
1805 -573 2510 -661 1322 -1824 1965 -3554 1965 -961 0 -1739 -209 -2403 -645
-958 -630 -1616 -1733 -1954 -3275 -20 -91 -39 -175 -41 -187 -22 -100 -25
106 -25 1857 l0 1880 -2869 0 -2869 0 -5 -22 c-3 -13 -240 -1200 -526 -2638
-338 -1701 -681 -3386 -980 -4820 -567 -2719 -641 -3073 -641 -3077 0 -2 -24
-3 -53 -3 l-53 0 -58 333 c-187 1074 -422 2332 -621 3322 -160 797 -143 715
-901 4172 l-599 2733 -2117 0 -2116 0 -11 -47 c-5 -27 -272 -1240 -591 -2698
-320 -1457 -621 -2841 -670 -3075 -248 -1191 -516 -2620 -790 -4215 -44 -258
-83 -482 -86 -498 -5 -25 -9 -27 -57 -27 l-52 0 -52 318 c-147 894 -391 2115
-658 3295 -156 693 -262 1138 -964 4039 -386 1593 -701 2899 -701 2902 0 3
-1020 6 -2266 6 l-2266 0 5 263 c4 210 9 286 27 386 29 167 71 305 130 429 67
140 130 231 230 332 234 237 548 359 1002 391 336 23 1032 -26 1418 -101 25
-4 46 -8 46 -7 8 9 283 2722 277 2727 -20 19 -500 97 -788 130 -558 62 -1333
87 -1850 59z m-10020 -7040 c408 -36 781 -166 1053 -368 368 -273 640 -722
820 -1353 27 -95 60 -220 72 -278 12 -58 24 -106 25 -108 2 -2 3564 790 3658
813 l27 7 0 -2268 -1 -2269 -40 105 c-91 241 -263 552 -426 771 -162 218 -416
483 -628 652 -129 104 -402 287 -567 381 -560 318 -1329 606 -2210 827 -336
84 -569 135 -1023 224 -938 184 -1487 331 -1930 518 -634 269 -953 732 -896
1304 32 320 157 554 389 728 256 192 640 301 1142 324 180 9 363 5 535 -10z
m5654 -1016 c-1 -115 -3 -199 -6 -188 -2 11 -24 103 -49 204 -24 101 -44 185
-44 187 0 2 23 4 50 4 l50 0 -1 -207z"/>
<path d="M0 7555 l0 -1605 4865 0 4865 0 0 1605 0 1605 -4865 0 -4865 0 0
-1605z"/>
</g>
</svg>
