<svg xmlns="http://www.w3.org/2000/svg" xmlns:xlink="http://www.w3.org/1999/xlink" viewBox="0 0 342.55 299.43"><defs><style>.cls-1{isolation:isolate;}.cls-2,.cls-40,.cls-41,.cls-42,.cls-43,.cls-44{fill:#7c1dc9;}.cls-2,.cls-78{opacity:0.15;}.cls-2,.cls-22,.cls-39,.cls-41,.cls-42,.cls-43,.cls-44,.cls-61,.cls-76,.cls-78{mix-blend-mode:color-dodge;}.cls-24,.cls-3{opacity:0.3;}.cls-4,.cls-74{opacity:0.5;}.cls-4,.cls-48{mix-blend-mode:screen;}.cls-47,.cls-5{fill:#c7bcd6;}.cls-38,.cls-6{opacity:0.2;}.cls-25,.cls-7{opacity:0;}.cls-8{opacity:0.09;}.cls-9{opacity:0.18;}.cls-10{opacity:0.27;}.cls-11{opacity:0.36;}.cls-12{opacity:0.45;}.cls-13{opacity:0.55;}.cls-14{opacity:0.64;}.cls-15{opacity:0.73;}.cls-16{opacity:0.82;}.cls-17{opacity:0.91;}.cls-18{fill:url(#linear-gradient);}.cls-19{fill:url(#New_Gradient_Swatch_copy_49);}.cls-20{fill:url(#linear-gradient-2);}.cls-21{fill:url(#linear-gradient-3);}.cls-22{fill:url(#radial-gradient);}.cls-23{fill:#fff;}.cls-24,.cls-38,.cls-47{mix-blend-mode:multiply;}.cls-25{fill:url(#linear-gradient-4);}.cls-26,.cls-64{opacity:0.09;}.cls-26{fill:url(#linear-gradient-5);}.cls-27{opacity:0.18;fill:url(#linear-gradient-6);}.cls-28{opacity:0.27;fill:url(#linear-gradient-7);}.cls-29{opacity:0.36;fill:url(#linear-gradient-8);}.cls-30{opacity:0.45;fill:url(#linear-gradient-9);}.cls-31{opacity:0.55;fill:url(#linear-gradient-10);}.cls-32{opacity:0.64;fill:url(#linear-gradient-11);}.cls-33,.cls-49{opacity:0.73;}.cls-33{fill:url(#linear-gradient-12);}.cls-34{opacity:0.82;fill:url(#linear-gradient-13);}.cls-35{opacity:0.91;fill:url(#linear-gradient-14);}.cls-36{fill:url(#linear-gradient-15);}.cls-37,.cls-39,.cls-41{opacity:0.8;}.cls-37{fill:url(#New_Gradient_Swatch_copy_26);}.cls-38{fill:url(#New_Gradient_Swatch_copy_26-2);}.cls-42{opacity:0.6;}.cls-43{opacity:0.4;}.cls-44{opacity:0.25;}.cls-45{fill:#a7a7d6;}.cls-46{fill:#45108a;}.cls-48{fill:url(#linear-gradient-16);}.cls-49{fill:url(#linear-gradient-17);}.cls-50{opacity:0.75;fill:url(#linear-gradient-18);}.cls-51{opacity:0.78;fill:url(#linear-gradient-19);}.cls-52{opacity:0.8;fill:url(#linear-gradient-20);}.cls-53{opacity:0.83;fill:url(#linear-gradient-21);}.cls-54{opacity:0.85;fill:url(#linear-gradient-22);}.cls-55{opacity:0.88;fill:url(#linear-gradient-23);}.cls-56{opacity:0.9;fill:url(#linear-gradient-24);}.cls-57{opacity:0.93;fill:url(#linear-gradient-25);}.cls-58{opacity:0.95;fill:url(#linear-gradient-26);}.cls-59{opacity:0.98;fill:url(#linear-gradient-27);}.cls-60{fill:url(#New_Gradient_Swatch_copy_9);}.cls-61{opacity:0.7;fill:url(#radial-gradient-2);}.cls-62{opacity:0.05;}.cls-63{fill:#25054d;}.cls-65{opacity:0.13;}.cls-66{opacity:0.17;}.cls-67{opacity:0.21;}.cls-68{opacity:0.25;}.cls-69{opacity:0.3;}.cls-70{opacity:0.34;}.cls-71{opacity:0.38;}.cls-72{opacity:0.42;}.cls-73{opacity:0.46;}.cls-75{fill:url(#linear-gradient-28);}.cls-76{fill:url(#Radial_Gradient_1);}.cls-77{fill:url(#New_Gradient_Swatch_copy_25);}</style><linearGradient id="linear-gradient" x1="203.6" y1="146.86" x2="397.18" y2="146.86" gradientUnits="userSpaceOnUse"><stop offset="0" stop-color="#6b24d6"/><stop offset="0.74" stop-color="#200657"/><stop offset="1" stop-color="#12054e"/></linearGradient><linearGradient id="New_Gradient_Swatch_copy_49" x1="194.8" y1="115.6" x2="205.02" y2="152.06" gradientUnits="userSpaceOnUse"><stop offset="0" stop-color="#671ab9"/><stop offset="0.39" stop-color="#ad34f1"/><stop offset="1" stop-color="#5513ab"/></linearGradient><linearGradient id="linear-gradient-2" x1="423.19" y1="15.54" x2="-28.76" y2="259.4" gradientUnits="userSpaceOnUse"><stop offset="0.01" stop-color="#9f19ab"/><stop offset="0.43" stop-color="#5f27bd"/><stop offset="0.9" stop-color="#3d065f"/></linearGradient><linearGradient id="linear-gradient-3" x1="2.9" y1="-83.18" x2="304.47" y2="177.84" gradientUnits="userSpaceOnUse"><stop offset="0.04" stop-color="#6b24d6"/><stop offset="0.18" stop-color="#7a2bca"/><stop offset="0.46" stop-color="#a33cab"/><stop offset="0.84" stop-color="#e45778"/><stop offset="0.98" stop-color="#ff6363"/></linearGradient><radialGradient id="radial-gradient" cx="194.47" cy="85.49" r="188.76" gradientUnits="userSpaceOnUse"><stop offset="0" stop-color="#711f56"/><stop offset="0.16" stop-color="#6c1e52"/><stop offset="0.36" stop-color="#5c1946"/><stop offset="0.58" stop-color="#431233"/><stop offset="0.82" stop-color="#200918"/><stop offset="1"/></radialGradient><linearGradient id="linear-gradient-4" x1="146.74" y1="61.56" x2="224.94" y2="210.66" xlink:href="#linear-gradient-2"/><linearGradient id="linear-gradient-5" x1="145.22" y1="61.48" x2="223.82" y2="211.35" xlink:href="#linear-gradient-2"/><linearGradient id="linear-gradient-6" x1="143.7" y1="61.39" x2="222.7" y2="212.03" xlink:href="#linear-gradient-2"/><linearGradient id="linear-gradient-7" x1="142.18" y1="61.31" x2="221.58" y2="212.71" xlink:href="#linear-gradient-2"/><linearGradient id="linear-gradient-8" x1="140.66" y1="61.22" x2="220.46" y2="213.39" xlink:href="#linear-gradient-2"/><linearGradient id="linear-gradient-9" x1="139.14" y1="61.14" x2="219.35" y2="214.07" xlink:href="#linear-gradient-2"/><linearGradient id="linear-gradient-10" x1="137.63" y1="61.05" x2="218.23" y2="214.75" xlink:href="#linear-gradient-2"/><linearGradient id="linear-gradient-11" x1="136.12" y1="60.96" x2="217.12" y2="215.42" xlink:href="#linear-gradient-2"/><linearGradient id="linear-gradient-12" x1="134.6" y1="60.87" x2="216.01" y2="216.1" xlink:href="#linear-gradient-2"/><linearGradient id="linear-gradient-13" x1="133.1" y1="60.78" x2="214.9" y2="216.78" xlink:href="#linear-gradient-2"/><linearGradient id="linear-gradient-14" x1="131.59" y1="60.69" x2="213.8" y2="217.45" xlink:href="#linear-gradient-2"/><linearGradient id="linear-gradient-15" x1="130.08" y1="60.6" x2="212.69" y2="218.13" xlink:href="#linear-gradient-2"/><linearGradient id="New_Gradient_Swatch_copy_26" x1="252.91" y1="291.91" x2="116.12" y2="24.67" gradientUnits="userSpaceOnUse"><stop offset="0.03" stop-color="#7c1dc9"/><stop offset="0.21" stop-color="#6e41d2"/><stop offset="0.62" stop-color="#4c9be8"/><stop offset="1" stop-color="#2af6ff"/></linearGradient><linearGradient id="New_Gradient_Swatch_copy_26-2" x1="216.54" y1="238.12" x2="137.86" y2="84.39" xlink:href="#New_Gradient_Swatch_copy_26"/><linearGradient id="linear-gradient-16" x1="223.17" y1="161.45" x2="259.54" y2="142.05" gradientUnits="userSpaceOnUse"><stop offset="0" stop-color="#dc3daa"/><stop offset="0.07" stop-color="#bd3492"/><stop offset="0.2" stop-color="#8b276b"/><stop offset="0.33" stop-color="#601b4a"/><stop offset="0.46" stop-color="#3e1130"/><stop offset="0.59" stop-color="#230a1b"/><stop offset="0.72" stop-color="#0f040c"/><stop offset="0.86" stop-color="#040103"/><stop offset="1"/></linearGradient><linearGradient id="linear-gradient-17" x1="217.61" y1="155.26" x2="250.01" y2="155.26" gradientUnits="userSpaceOnUse"><stop offset="0.04" stop-color="#7428d3"/><stop offset="0.32" stop-color="#8322ce"/><stop offset="0.87" stop-color="#ac13c3"/><stop offset="0.98" stop-color="#b510c0"/><stop offset="1" stop-color="#b510c0"/></linearGradient><linearGradient id="linear-gradient-18" x1="217.72" y1="155.33" x2="249.62" y2="155.33" gradientUnits="userSpaceOnUse"><stop offset="0.04" stop-color="#7827cf"/><stop offset="0.31" stop-color="#8723cc"/><stop offset="0.84" stop-color="#b01ac4"/><stop offset="0.98" stop-color="#bc17c1"/><stop offset="1" stop-color="#bc18c1"/></linearGradient><linearGradient id="linear-gradient-19" x1="217.84" y1="155.4" x2="249.24" y2="155.4" gradientUnits="userSpaceOnUse"><stop offset="0.04" stop-color="#7c25cc"/><stop offset="0.3" stop-color="#8b24ca"/><stop offset="0.82" stop-color="#b420c4"/><stop offset="0.98" stop-color="#c21fc2"/><stop offset="1" stop-color="#c21fc3"/></linearGradient><linearGradient id="linear-gradient-20" x1="217.93" y1="155.46" x2="248.86" y2="155.46" gradientUnits="userSpaceOnUse"><stop offset="0.04" stop-color="#8024c8"/><stop offset="0.29" stop-color="#8f24c7"/><stop offset="0.79" stop-color="#b826c5"/><stop offset="0.98" stop-color="#c926c4"/><stop offset="1" stop-color="#c927c4"/></linearGradient><linearGradient id="linear-gradient-21" x1="218.02" y1="155.52" x2="248.5" y2="155.52" gradientUnits="userSpaceOnUse"><stop offset="0.04" stop-color="#8423c4"/><stop offset="0.29" stop-color="#9325c4"/><stop offset="0.77" stop-color="#bc2bc5"/><stop offset="0.98" stop-color="#cf2ec5"/><stop offset="1" stop-color="#d02ec5"/></linearGradient><linearGradient id="linear-gradient-22" x1="218.09" y1="155.58" x2="248.14" y2="155.58" gradientUnits="userSpaceOnUse"><stop offset="0.04" stop-color="#8821c1"/><stop offset="0.28" stop-color="#9725c2"/><stop offset="0.75" stop-color="#c02fc5"/><stop offset="0.98" stop-color="#d635c6"/><stop offset="1" stop-color="#d736c6"/></linearGradient><linearGradient id="linear-gradient-23" x1="218.14" y1="155.64" x2="247.8" y2="155.64" gradientUnits="userSpaceOnUse"><stop offset="0.04" stop-color="#8b20bd"/><stop offset="0.27" stop-color="#9a26bf"/><stop offset="0.73" stop-color="#c334c4"/><stop offset="0.98" stop-color="#dc3dc7"/><stop offset="1" stop-color="#dd3dc8"/></linearGradient><linearGradient id="linear-gradient-24" x1="218.23" y1="155.7" x2="247.49" y2="155.7" gradientUnits="userSpaceOnUse"><stop offset="0.04" stop-color="#8f1eba"/><stop offset="0.26" stop-color="#9e25bd"/><stop offset="0.71" stop-color="#c737c3"/><stop offset="0.98" stop-color="#e344c8"/><stop offset="1" stop-color="#e445c9"/></linearGradient><linearGradient id="linear-gradient-25" x1="218.23" y1="155.76" x2="247.22" y2="155.76" gradientUnits="userSpaceOnUse"><stop offset="0.04" stop-color="#931db6"/><stop offset="0.26" stop-color="#a225b9"/><stop offset="0.69" stop-color="#cb3bc2"/><stop offset="0.98" stop-color="#e94cc9"/><stop offset="1" stop-color="#eb4cca"/></linearGradient><linearGradient id="linear-gradient-26" x1="218.15" y1="155.82" x2="247.02" y2="155.82" gradientUnits="userSpaceOnUse"><stop offset="0.04" stop-color="#971cb2"/><stop offset="0.25" stop-color="#a626b6"/><stop offset="0.68" stop-color="#cf3ec2"/><stop offset="0.98" stop-color="#f053cb"/><stop offset="1" stop-color="#f254cb"/></linearGradient><linearGradient id="linear-gradient-27" x1="217.94" y1="155.88" x2="246.94" y2="155.88" gradientUnits="userSpaceOnUse"><stop offset="0.04" stop-color="#9b1aaf"/><stop offset="0.25" stop-color="#aa25b4"/><stop offset="0.66" stop-color="#d342c1"/><stop offset="0.98" stop-color="#f65bcc"/><stop offset="1" stop-color="#f85bcd"/></linearGradient><linearGradient id="New_Gradient_Swatch_copy_9" x1="217.61" y1="155.94" x2="247" y2="155.94" gradientUnits="userSpaceOnUse"><stop offset="0.04" stop-color="#9f19ab"/><stop offset="0.24" stop-color="#ae25b1"/><stop offset="0.65" stop-color="#d744bf"/><stop offset="1" stop-color="#ff63ce"/></linearGradient><radialGradient id="radial-gradient-2" cx="5815.9" cy="6556.35" r="16.36" gradientTransform="matrix(-0.56, -0.73, -0.35, 0.27, 5790.44, 2633.13)" gradientUnits="userSpaceOnUse"><stop offset="0" stop-color="#fff"/><stop offset="0.01" stop-color="#f7f7f7"/><stop offset="0.1" stop-color="#bebebe"/><stop offset="0.19" stop-color="#8b8b8b"/><stop offset="0.29" stop-color="#606060"/><stop offset="0.38" stop-color="#3e3e3e"/><stop offset="0.48" stop-color="#232323"/><stop offset="0.57" stop-color="#0f0f0f"/><stop offset="0.67" stop-color="#040404"/><stop offset="0.77"/></radialGradient><linearGradient id="linear-gradient-28" x1="265.97" y1="281.15" x2="220.31" y2="212.81" gradientUnits="userSpaceOnUse"><stop offset="0" stop-color="#d1b4e3"/><stop offset="0.27" stop-color="#dbc4e9"/><stop offset="0.79" stop-color="#f4edf8"/><stop offset="1" stop-color="#fff"/></linearGradient><radialGradient id="Radial_Gradient_1" cx="242.14" cy="242.54" r="30.77" gradientUnits="userSpaceOnUse"><stop offset="0" stop-color="#fff"/><stop offset="1"/></radialGradient><linearGradient id="New_Gradient_Swatch_copy_25" x1="221.99" y1="163.49" x2="247.99" y2="266.49" gradientUnits="userSpaceOnUse"><stop offset="0" stop-color="#25054d"/><stop offset="1" stop-color="#45108a"/></linearGradient></defs><g class="cls-1"><g id="Layer_2" data-name="Layer 2"><g id="Layer_1-2" data-name="Layer 1"><path class="cls-2" d="M272,93.58c-15.57-9-28.24-1.76-28.24,16.1s12.67,39.71,28.24,48.7,28.23,1.76,28.23-16.1S287.58,102.57,272,93.58Zm-1.77,15.13a72.77,72.77,0,0,1-7.9-5.69c1.93-4.48,4.74-6.8,7.9-6.07Zm0,4.05v10.18l-10.54-6.09a45.07,45.07,0,0,1,1.5-10.61A75.9,75.9,0,0,0,270.25,112.76Zm0,14.23v10.18a53.09,53.09,0,0,0-9-3.93,70.56,70.56,0,0,1-1.5-12.34Zm0,14.23V153c-3.16-2.92-6-8.48-7.9-15.19A48.23,48.23,0,0,1,270.25,141.22Zm3.53,2a71.81,71.81,0,0,1,7.9,5.69c-1.93,4.48-4.74,6.8-7.9,6.07Zm0-4.05V129l10.54,6.09a45.07,45.07,0,0,1-1.5,10.61A75.9,75.9,0,0,0,273.78,139.2Zm0-14.23V114.79a53.09,53.09,0,0,0,9,3.93,70.56,70.56,0,0,1,1.5,12.34Zm0-14.23V99c3.16,2.92,6,8.48,7.9,15.19A48.6,48.6,0,0,1,273.78,110.74Zm7.67-5.51a58.07,58.07,0,0,1,7.75,10.36,21.89,21.89,0,0,1-4.06-.48A60.23,60.23,0,0,0,281.45,105.23ZM258.89,100c-1.45-1.37-2.81-2.78-4.06-4.21a13.24,13.24,0,0,1,7.76-1.39A15.35,15.35,0,0,0,258.89,100Zm-1.09,3.23a48.65,48.65,0,0,0-1.62,11.63l-8.78-5.07c.35-5.47,2.17-9.64,5-12.26A66.67,66.67,0,0,0,257.8,103.18Zm-1.62,15.68a75.62,75.62,0,0,0,1.62,13.5,22.14,22.14,0,0,0-5.38-.5,49.25,49.25,0,0,1-5-18.07Zm2.71,18a59.33,59.33,0,0,0,3.7,9.88,57.92,57.92,0,0,1-7.76-10.35A21,21,0,0,1,258.89,136.85ZM285.14,152c1.45,1.37,2.81,2.78,4.06,4.21a13.22,13.22,0,0,1-7.75,1.39A15.46,15.46,0,0,0,285.14,152Zm1.09-3.23a48.65,48.65,0,0,0,1.62-11.63l8.78,5.07c-.35,5.47-2.17,9.64-5,12.27A65.32,65.32,0,0,0,286.23,148.78Zm1.62-15.68a75.73,75.73,0,0,0-1.62-13.5,22.14,22.14,0,0,0,5.38.5,49.25,49.25,0,0,1,5,18.07Z"/><g class="cls-3"><g class="cls-4"><path class="cls-5" d="M342.05,120.54a.43.43,0,0,1-.25-.07L341,120a.5.5,0,0,1-.19-.68.52.52,0,0,1,.69-.19l.05,0V119a.5.5,0,0,1,.5-.5.51.51,0,0,1,.5.5V120a.5.5,0,0,1-.25.43A.47.47,0,0,1,342.05,120.54Zm-2.54-1.46a.47.47,0,0,1-.25-.07l-1.73-1a.49.49,0,0,1-.18-.68.51.51,0,0,1,.68-.19l1.73,1a.5.5,0,0,1-.25.94Zm2.54-1.62a.5.5,0,0,1-.5-.5v-2a.5.5,0,0,1,.5-.5.51.51,0,0,1,.5.5v2A.5.5,0,0,1,342.05,117.46Zm-6-.38a.45.45,0,0,1-.25-.07l-1.73-1a.49.49,0,0,1-.18-.68.5.5,0,0,1,.68-.19l1.73,1a.51.51,0,0,1,.18.69A.5.5,0,0,1,336.05,117.08Zm-3.46-2a.43.43,0,0,1-.25-.07l-1.74-1a.49.49,0,0,1-.18-.68.51.51,0,0,1,.68-.19l1.74,1a.51.51,0,0,1,.18.69A.5.5,0,0,1,332.59,115.08Zm9.46-1.62a.5.5,0,0,1-.5-.5v-2a.5.5,0,0,1,.5-.5.51.51,0,0,1,.5.5v2A.5.5,0,0,1,342.05,113.46Zm-12.93-.38a.47.47,0,0,1-.25-.07l-1.73-1a.49.49,0,0,1-.18-.68.5.5,0,0,1,.68-.19l1.73,1a.51.51,0,0,1,.18.69A.5.5,0,0,1,329.12,113.08Zm-3.46-2a.45.45,0,0,1-.25-.07l-1.73-1a.5.5,0,0,1-.19-.68.52.52,0,0,1,.69-.19l1.73,1a.51.51,0,0,1,.18.69A.5.5,0,0,1,325.66,111.08Zm16.39-1.62a.5.5,0,0,1-.5-.5v-2a.5.5,0,0,1,.5-.5.51.51,0,0,1,.5.5v2A.5.5,0,0,1,342.05,109.46Zm-19.86-.38a.47.47,0,0,1-.25-.07l-1.73-1a.49.49,0,0,1-.18-.68.51.51,0,0,1,.68-.19l1.73,1a.52.52,0,0,1,.19.69A.52.52,0,0,1,322.19,109.08Zm-3.46-2a.45.45,0,0,1-.25-.07l-1.73-1a.51.51,0,0,1-.19-.68.52.52,0,0,1,.69-.19l1.73,1a.51.51,0,0,1,.18.69A.5.5,0,0,1,318.73,107.08Zm23.32-1.62a.5.5,0,0,1-.5-.5v-2a.5.5,0,0,1,.5-.5.51.51,0,0,1,.5.5v2A.5.5,0,0,1,342.05,105.46Zm-26.78-.38A.43.43,0,0,1,315,105l-1.74-1a.49.49,0,0,1-.18-.68.51.51,0,0,1,.68-.19l1.74,1a.51.51,0,0,1,.18.69A.5.5,0,0,1,315.27,105.08Zm-3.47-2a.47.47,0,0,1-.25-.07l-1.73-1a.49.49,0,0,1-.18-.68.5.5,0,0,1,.68-.19l1.73,1a.51.51,0,0,1,.18.69A.5.5,0,0,1,311.8,103.08Zm30.25-1.62a.5.5,0,0,1-.5-.5V99a.5.5,0,0,1,.5-.5.51.51,0,0,1,.5.5v2A.5.5,0,0,1,342.05,101.46Zm-33.71-.38a.45.45,0,0,1-.25-.07l-1.74-1a.5.5,0,0,1-.18-.68.51.51,0,0,1,.68-.19l1.74,1a.51.51,0,0,1,.18.69A.5.5,0,0,1,308.34,101.08Zm-3.47-2a.47.47,0,0,1-.25-.07l-1.73-1a.49.49,0,0,1-.18-.68.51.51,0,0,1,.68-.19l1.73,1a.52.52,0,0,1,.19.69A.52.52,0,0,1,304.87,99.08Zm37.18-1.62a.5.5,0,0,1-.5-.5V95a.5.5,0,0,1,.5-.5.51.51,0,0,1,.5.5v2A.5.5,0,0,1,342.05,97.46Zm-40.64-.38a.45.45,0,0,1-.25-.07l-1.73-1a.5.5,0,0,1-.19-.68.52.52,0,0,1,.69-.19l1.73,1a.51.51,0,0,1,.18.69A.5.5,0,0,1,301.41,97.08Zm-3.47-2a.47.47,0,0,1-.25-.07L296,94a.49.49,0,0,1-.18-.68.51.51,0,0,1,.68-.19l1.73,1a.51.51,0,0,1,.19.69A.5.5,0,0,1,297.94,95.08Zm44.11-1.62a.5.5,0,0,1-.5-.5V91a.5.5,0,0,1,.5-.5.51.51,0,0,1,.5.5v2A.5.5,0,0,1,342.05,93.46Zm-47.57-.38a.47.47,0,0,1-.25-.07l-1.73-1a.49.49,0,0,1-.18-.68.5.5,0,0,1,.68-.19l1.73,1a.51.51,0,0,1,.18.69A.5.5,0,0,1,294.48,93.08Zm-3.46-2a.45.45,0,0,1-.25-.07L289,90a.5.5,0,0,1-.18-.68.51.51,0,0,1,.68-.19l1.74,1a.51.51,0,0,1,.18.69A.5.5,0,0,1,291,91.08Zm51-1.62a.5.5,0,0,1-.5-.5V87a.5.5,0,0,1,.5-.5.51.51,0,0,1,.5.5v2A.5.5,0,0,1,342.05,89.46Zm-54.5-.38a.47.47,0,0,1-.25-.07l-1.73-1a.49.49,0,0,1-.18-.68.5.5,0,0,1,.68-.19l1.73,1a.51.51,0,0,1,.18.69A.5.5,0,0,1,287.55,89.08Zm-3.46-2a.45.45,0,0,1-.25-.07l-1.73-1a.5.5,0,0,1-.19-.68.52.52,0,0,1,.69-.19l1.73,1a.51.51,0,0,1,.18.69A.5.5,0,0,1,284.09,87.08Zm58-1.62a.5.5,0,0,1-.5-.5v-1.2l-.19-.11a.49.49,0,0,1-.18-.68.51.51,0,0,1,.68-.19l.44.25a.52.52,0,0,1,.25.44V85A.5.5,0,0,1,342.05,85.46Zm-61.43-.38a.47.47,0,0,1-.25-.07l-1.73-1a.49.49,0,0,1-.18-.68.51.51,0,0,1,.68-.19l1.73,1a.51.51,0,0,1,.19.69A.5.5,0,0,1,280.62,85.08Zm-3.46-2a.45.45,0,0,1-.25-.07l-1.73-1a.49.49,0,0,1-.18-.68.5.5,0,0,1,.68-.19l1.73,1a.51.51,0,0,1,.18.69A.5.5,0,0,1,277.16,83.08Zm62.72-.36a.59.59,0,0,1-.25-.07l-1.73-1a.49.49,0,0,1-.18-.68.5.5,0,0,1,.68-.19l1.73,1a.51.51,0,0,1,.18.69A.5.5,0,0,1,339.88,82.72ZM273.7,81.08a.43.43,0,0,1-.25-.07l-1.74-1a.49.49,0,0,1-.18-.68.51.51,0,0,1,.68-.19l1.74,1a.51.51,0,0,1,.18.69A.5.5,0,0,1,273.7,81.08Zm62.72-.36a.52.52,0,0,1-.25-.07l-1.74-1a.49.49,0,0,1-.18-.68.51.51,0,0,1,.68-.19l1.74,1a.51.51,0,0,1,.18.69A.5.5,0,0,1,336.42,80.72Zm-66.19-1.64A.47.47,0,0,1,270,79l-1.73-1a.49.49,0,0,1-.18-.68.5.5,0,0,1,.68-.19l1.73,1a.51.51,0,0,1,.18.69A.5.5,0,0,1,270.23,79.08ZM333,78.72a.59.59,0,0,1-.25-.07l-1.73-1a.49.49,0,0,1-.18-.68.5.5,0,0,1,.68-.19l1.73,1a.51.51,0,0,1,.18.69A.5.5,0,0,1,333,78.72Zm-66.18-1.64a.45.45,0,0,1-.25-.07l-1.73-1a.5.5,0,0,1-.19-.68.52.52,0,0,1,.69-.19l1.73,1a.51.51,0,0,1,.18.69A.5.5,0,0,1,266.77,77.08Zm62.72-.36a.55.55,0,0,1-.25-.07l-1.73-1a.5.5,0,0,1-.19-.68.52.52,0,0,1,.69-.19l1.73,1a.51.51,0,0,1,.18.69A.5.5,0,0,1,329.49,76.72ZM263.3,75.08a.47.47,0,0,1-.25-.07l-1.73-1a.49.49,0,0,1-.18-.68.51.51,0,0,1,.68-.19l1.73,1a.52.52,0,0,1,.19.69A.52.52,0,0,1,263.3,75.08ZM326,74.72a.59.59,0,0,1-.25-.07l-1.73-1a.49.49,0,0,1-.18-.68.51.51,0,0,1,.68-.19l1.73,1a.5.5,0,0,1-.25.94Zm-66.18-1.64a.45.45,0,0,1-.25-.07l-1.73-1a.51.51,0,0,1-.19-.68.52.52,0,0,1,.69-.19l1.73,1a.51.51,0,0,1,.18.69A.5.5,0,0,1,259.84,73.08Zm62.72-.36a.55.55,0,0,1-.25-.07l-1.73-1a.51.51,0,0,1-.19-.68.52.52,0,0,1,.69-.19l1.73,1a.51.51,0,0,1,.18.69A.5.5,0,0,1,322.56,72.72Zm-66.18-1.64a.43.43,0,0,1-.25-.07l-1.74-1a.49.49,0,0,1-.18-.68.51.51,0,0,1,.68-.19l1.74,1a.51.51,0,0,1,.18.69A.5.5,0,0,1,256.38,71.08Zm62.72-.36a.52.52,0,0,1-.25-.07l-1.74-1a.49.49,0,0,1-.18-.68.51.51,0,0,1,.68-.19l1.74,1a.51.51,0,0,1,.18.69A.5.5,0,0,1,319.1,70.72Zm-66.19-1.64a.47.47,0,0,1-.25-.07l-1.73-1a.49.49,0,0,1-.18-.68.5.5,0,0,1,.68-.19l1.73,1a.51.51,0,0,1,.18.69A.5.5,0,0,1,252.91,69.08Zm62.72-.36a.59.59,0,0,1-.25-.07l-1.73-1a.49.49,0,0,1-.18-.68.5.5,0,0,1,.68-.19l1.73,1a.51.51,0,0,1,.18.69A.5.5,0,0,1,315.63,68.72Zm-66.18-1.64a.45.45,0,0,1-.25-.07l-1.73-1a.5.5,0,0,1-.19-.68.52.52,0,0,1,.69-.19l1.73,1a.51.51,0,0,1,.18.69A.5.5,0,0,1,249.45,67.08Zm62.72-.36a.55.55,0,0,1-.25-.07l-1.74-1A.5.5,0,0,1,310,65a.51.51,0,0,1,.68-.19l1.74,1a.51.51,0,0,1,.18.69A.5.5,0,0,1,312.17,66.72ZM246,65.08a.47.47,0,0,1-.25-.07L244,64a.49.49,0,0,1-.18-.68.51.51,0,0,1,.68-.19l1.73,1a.52.52,0,0,1,.19.69A.52.52,0,0,1,246,65.08Zm62.72-.36a.59.59,0,0,1-.25-.07l-1.73-1a.49.49,0,0,1-.18-.68.51.51,0,0,1,.68-.19l1.73,1a.52.52,0,0,1,.19.69A.52.52,0,0,1,308.7,64.72Zm-66.18-1.64a.45.45,0,0,1-.25-.07l-1.73-1a.51.51,0,0,1-.19-.68.52.52,0,0,1,.69-.19l1.73,1a.51.51,0,0,1,.18.69A.5.5,0,0,1,242.52,63.08Zm62.72-.36a.55.55,0,0,1-.25-.07l-1.73-1a.5.5,0,0,1-.19-.68.52.52,0,0,1,.69-.19l1.73,1a.51.51,0,0,1,.18.69A.5.5,0,0,1,305.24,62.72Zm-66.18-1.64a.43.43,0,0,1-.25-.07l-1.74-1a.5.5,0,0,1,.2-.93.51.51,0,0,1-.45-.5v-2a.51.51,0,0,1,.5-.5.5.5,0,0,1,.5.5v2a.5.5,0,0,1-.44.5.7.7,0,0,1,.19.06l1.74,1a.51.51,0,0,1,.18.69A.5.5,0,0,1,239.06,61.08Zm62.71-.36a.59.59,0,0,1-.25-.07l-1.73-1a.49.49,0,0,1-.18-.68.51.51,0,0,1,.68-.19l1.73,1a.51.51,0,0,1,.19.69A.5.5,0,0,1,301.77,60.72Zm-3.46-2a.59.59,0,0,1-.25-.07l-1.73-1a.49.49,0,0,1-.18-.68.5.5,0,0,1,.68-.19l1.73,1a.51.51,0,0,1,.18.69A.5.5,0,0,1,298.31,58.72Zm-3.46-2a.55.55,0,0,1-.25-.07l-1.74-1a.5.5,0,0,1-.18-.68.51.51,0,0,1,.68-.19l1.74,1a.51.51,0,0,1,.18.69A.5.5,0,0,1,294.85,56.72Zm-57.53-1.64a.5.5,0,0,1-.5-.5v-2a.51.51,0,0,1,.5-.5.5.5,0,0,1,.5.5v2A.5.5,0,0,1,237.32,55.08Zm54.06-.36a.59.59,0,0,1-.25-.07l-1.73-1a.49.49,0,0,1-.18-.68.5.5,0,0,1,.68-.19l1.73,1a.51.51,0,0,1,.18.69A.5.5,0,0,1,291.38,54.72Zm-3.46-2a.55.55,0,0,1-.25-.07l-1.73-1a.5.5,0,0,1-.19-.68.52.52,0,0,1,.69-.19l1.73,1a.51.51,0,0,1,.18.69A.5.5,0,0,1,287.92,52.72Zm-50.6-1.64a.5.5,0,0,1-.5-.5v-2a.51.51,0,0,1,.5-.5.5.5,0,0,1,.5.5v2A.5.5,0,0,1,237.32,51.08Zm47.13-.36a.47.47,0,0,1-.25-.07l-1.73-1a.49.49,0,0,1-.18-.68.51.51,0,0,1,.68-.19l1.73,1a.51.51,0,0,1,.19.69A.5.5,0,0,1,284.45,50.72Zm-3.46-2a.45.45,0,0,1-.25-.07l-1.73-1a.49.49,0,0,1-.18-.68.5.5,0,0,1,.68-.19l1.73,1a.51.51,0,0,1,.18.69A.5.5,0,0,1,281,48.72Zm-43.67-1.64a.5.5,0,0,1-.5-.5v-2a.51.51,0,0,1,.5-.5.5.5,0,0,1,.5.5v2A.5.5,0,0,1,237.32,47.08Zm40.21-.36a.43.43,0,0,1-.25-.07l-1.74-1a.5.5,0,0,1-.18-.68.51.51,0,0,1,.68-.19l1.74,1a.51.51,0,0,1,.18.69A.5.5,0,0,1,277.53,46.72Zm-3.47-2a.47.47,0,0,1-.25-.07l-1.73-1a.49.49,0,0,1-.18-.68.5.5,0,0,1,.68-.19l1.73,1a.51.51,0,0,1,.18.69A.5.5,0,0,1,274.06,44.72Zm-36.74-1.64a.5.5,0,0,1-.5-.5v-2a.51.51,0,0,1,.5-.5.5.5,0,0,1,.5.5v2A.5.5,0,0,1,237.32,43.08Zm33.28-.36a.45.45,0,0,1-.25-.07l-1.73-1a.5.5,0,0,1-.19-.68.52.52,0,0,1,.69-.19l1.73,1a.51.51,0,0,1,.18.69A.5.5,0,0,1,270.6,42.72Zm-3.47-2a.47.47,0,0,1-.25-.07l-1.73-1A.49.49,0,0,1,265,39a.51.51,0,0,1,.68-.19l1.73,1a.52.52,0,0,1,.19.69A.51.51,0,0,1,267.13,40.72Zm-29.81-1.64a.5.5,0,0,1-.5-.5v-2a.51.51,0,0,1,.5-.5.5.5,0,0,1,.5.5v2A.5.5,0,0,1,237.32,39.08Zm26.35-.36a.45.45,0,0,1-.25-.07l-1.73-1a.49.49,0,0,1-.18-.68.5.5,0,0,1,.68-.19l1.73,1a.51.51,0,0,1,.18.69A.5.5,0,0,1,263.67,38.72Zm-3.46-2a.43.43,0,0,1-.25-.07l-1.74-1A.49.49,0,0,1,258,35a.51.51,0,0,1,.68-.19l1.74,1a.51.51,0,0,1,.18.69A.5.5,0,0,1,260.21,36.72Zm-22.89-1.64a.5.5,0,0,1-.5-.5v-2a.51.51,0,0,1,.5-.5.5.5,0,0,1,.5.5v2A.5.5,0,0,1,237.32,35.08Zm19.42-.36a.47.47,0,0,1-.25-.07l-1.73-1a.49.49,0,0,1-.18-.68.5.5,0,0,1,.68-.19l1.73,1a.51.51,0,0,1,.18.69A.5.5,0,0,1,256.74,34.72Zm-3.46-2a.45.45,0,0,1-.25-.07l-1.73-1a.5.5,0,0,1-.19-.68.52.52,0,0,1,.69-.19l1.73,1a.51.51,0,0,1,.18.69A.5.5,0,0,1,253.28,32.72Zm-16-1.64a.5.5,0,0,1-.5-.5v-2a.51.51,0,0,1,.5-.5.5.5,0,0,1,.5.5v2A.5.5,0,0,1,237.32,31.08Zm12.49-.36a.47.47,0,0,1-.25-.07l-1.73-1a.49.49,0,0,1-.18-.68.51.51,0,0,1,.68-.19l1.73,1a.52.52,0,0,1,.19.69A.52.52,0,0,1,249.81,30.72Zm-3.46-2a.45.45,0,0,1-.25-.07l-1.73-1a.51.51,0,0,1-.19-.68.52.52,0,0,1,.69-.19l1.73,1a.51.51,0,0,1,.18.69A.5.5,0,0,1,246.35,28.72Zm-9-1.64a.5.5,0,0,1-.5-.5v-2a.51.51,0,0,1,.5-.5.5.5,0,0,1,.5.5v2A.5.5,0,0,1,237.32,27.08Zm5.57-.36a.43.43,0,0,1-.25-.07l-1.74-1a.49.49,0,0,1-.18-.68.51.51,0,0,1,.68-.19l1.74,1a.51.51,0,0,1,.18.69A.5.5,0,0,1,242.89,26.72Zm-3.47-2a.47.47,0,0,1-.25-.07l-1.73-1a.49.49,0,0,1-.18-.68.5.5,0,0,1,.68-.19l1.73,1a.51.51,0,0,1,.18.69A.5.5,0,0,1,239.42,24.72Z"/></g><g class="cls-4"><path class="cls-5" d="M127.88,174.21a.59.59,0,0,1-.25-.07l-.8-.46a.51.51,0,0,1-.18-.69.49.49,0,0,1,.68-.18l0,0v-.21a.5.5,0,0,1,1,0v1.08a.48.48,0,0,1-.25.43A.55.55,0,0,1,127.88,174.21Zm-2.53-1.47a.54.54,0,0,1-.25-.06l-1.73-1a.5.5,0,1,1,.5-.87l1.73,1a.5.5,0,0,1-.25.93Zm2.53-1.61a.5.5,0,0,1-.5-.5v-2a.5.5,0,0,1,1,0v2A.5.5,0,0,1,127.88,171.13Zm-6-.39a.57.57,0,0,1-.25-.06l-1.73-1a.51.51,0,0,1-.18-.69.49.49,0,0,1,.68-.18l1.73,1a.51.51,0,0,1,.19.68A.51.51,0,0,1,121.88,170.74Zm-3.46-2a.54.54,0,0,1-.25-.06l-1.73-1a.52.52,0,0,1-.19-.69.51.51,0,0,1,.69-.18l1.73,1a.5.5,0,0,1-.25.93Zm9.46-1.61a.5.5,0,0,1-.5-.5v-2a.5.5,0,0,1,1,0v2A.5.5,0,0,1,127.88,167.13ZM115,166.74a.57.57,0,0,1-.25-.06l-1.73-1a.51.51,0,0,1-.18-.69.5.5,0,0,1,.68-.18l1.73,1a.5.5,0,0,1-.25.93Zm-3.46-2a.57.57,0,0,1-.25-.06l-1.73-1a.51.51,0,0,1-.18-.69.49.49,0,0,1,.68-.18l1.73,1a.5.5,0,0,1-.25.93Zm16.39-1.61a.5.5,0,0,1-.5-.5v-2a.5.5,0,0,1,1,0v2A.5.5,0,0,1,127.88,163.13ZM108,162.74a.54.54,0,0,1-.25-.06l-1.74-1a.51.51,0,0,1-.18-.69.5.5,0,0,1,.68-.18l1.74,1a.5.5,0,0,1-.25.93Zm-3.47-2a.57.57,0,0,1-.25-.06l-1.73-1a.51.51,0,0,1-.18-.69.49.49,0,0,1,.68-.18l1.73,1a.51.51,0,0,1,.19.68A.52.52,0,0,1,104.56,160.74Zm23.32-1.61a.5.5,0,0,1-.5-.5v-2a.5.5,0,0,1,1,0v2A.5.5,0,0,1,127.88,159.13Zm-26.78-.39a.54.54,0,0,1-.25-.06l-1.73-1a.5.5,0,1,1,.5-.87l1.73,1a.5.5,0,0,1-.25.93Zm-3.47-2a.57.57,0,0,1-.25-.06l-1.73-1a.51.51,0,0,1-.18-.69.49.49,0,0,1,.68-.18l1.73,1a.5.5,0,0,1,.19.68A.51.51,0,0,1,97.63,156.74Zm30.25-1.61a.5.5,0,0,1-.5-.5v-2a.5.5,0,0,1,1,0v2A.5.5,0,0,1,127.88,155.13Zm-33.71-.39a.57.57,0,0,1-.25-.06l-1.73-1A.51.51,0,0,1,92,153a.5.5,0,0,1,.68-.18l1.73,1a.5.5,0,0,1-.25.93Zm-3.46-2a.54.54,0,0,1-.25-.06l-1.74-1a.51.51,0,0,1-.18-.69.49.49,0,0,1,.68-.18l1.74,1a.5.5,0,0,1-.25.93Zm37.17-1.61a.5.5,0,0,1-.5-.5v-2a.5.5,0,0,1,1,0v2A.5.5,0,0,1,127.88,151.13Zm-40.64-.39a.57.57,0,0,1-.25-.06l-1.73-1a.5.5,0,0,1,.5-.87l1.73,1a.5.5,0,0,1-.25.93Zm-3.46-2a.54.54,0,0,1-.25-.06l-1.73-1a.5.5,0,1,1,.5-.87l1.73,1a.5.5,0,0,1-.25.93Zm44.1-1.61a.5.5,0,0,1-.5-.5v-2a.5.5,0,0,1,1,0v2A.5.5,0,0,1,127.88,147.13Zm-47.57-.39a.57.57,0,0,1-.25-.06l-1.73-1a.5.5,0,0,1,.5-.87l1.73,1a.5.5,0,0,1,.19.68A.51.51,0,0,1,80.31,146.74Zm-3.46-2a.57.57,0,0,1-.25-.06l-1.73-1a.52.52,0,0,1-.19-.69.51.51,0,0,1,.69-.18l1.73,1a.5.5,0,0,1-.25.93Zm51-1.61a.5.5,0,0,1-.5-.5v-2a.5.5,0,0,1,1,0v2A.5.5,0,0,1,127.88,143.13Zm-54.49-.39a.54.54,0,0,1-.25-.06l-1.74-1a.51.51,0,0,1-.18-.69.49.49,0,0,1,.68-.18l1.74,1a.5.5,0,0,1-.25.93Zm-3.47-2a.57.57,0,0,1-.25-.06l-1.73-1a.51.51,0,0,1-.18-.69.49.49,0,0,1,.68-.18l1.73,1a.5.5,0,0,1-.25.93Zm58-1.61a.5.5,0,0,1-.5-.5v-1.21l-.18-.1a.52.52,0,0,1-.19-.69.51.51,0,0,1,.69-.18l.43.25a.5.5,0,0,1,.25.43v1.5A.5.5,0,0,1,127.88,139.13Zm-61.42-.39a.54.54,0,0,1-.25-.06l-1.73-1a.5.5,0,1,1,.5-.87l1.73,1a.5.5,0,0,1-.25.93Zm-3.47-2a.57.57,0,0,1-.25-.06l-1.73-1a.51.51,0,0,1-.18-.69.49.49,0,0,1,.68-.18l1.73,1a.51.51,0,0,1,.19.68A.51.51,0,0,1,63,136.74Zm62.72-.36a.57.57,0,0,1-.25-.06l-1.73-1a.51.51,0,0,1-.18-.69.49.49,0,0,1,.68-.18l1.73,1a.5.5,0,0,1-.25.93Zm-66.18-1.64a.54.54,0,0,1-.25-.06l-1.73-1a.52.52,0,0,1-.19-.69.51.51,0,0,1,.69-.18l1.73,1a.5.5,0,0,1-.25.93Zm62.72-.36a.57.57,0,0,1-.25-.06l-1.73-1a.51.51,0,0,1-.18-.69.49.49,0,0,1,.68-.18l1.73,1a.5.5,0,0,1-.25.93Zm-66.19-1.64a.5.5,0,0,1-.24-.06l-1.74-1a.51.51,0,0,1-.18-.69.49.49,0,0,1,.68-.18l1.74,1a.5.5,0,0,1-.26.93Zm62.73-.36a.54.54,0,0,1-.25-.06l-1.74-1a.51.51,0,0,1-.18-.69.5.5,0,0,1,.68-.18l1.74,1a.5.5,0,0,1-.25.93ZM52.6,130.74a.57.57,0,0,1-.25-.06l-1.73-1a.51.51,0,0,1-.18-.69.49.49,0,0,1,.68-.18l1.73,1a.5.5,0,0,1-.25.93Zm62.72-.36a.57.57,0,0,1-.25-.06l-1.73-1a.51.51,0,0,1-.18-.69.49.49,0,0,1,.68-.18l1.73,1a.51.51,0,0,1,.19.68A.52.52,0,0,1,115.32,130.38Zm-66.18-1.64a.54.54,0,0,1-.25-.06l-1.74-1A.51.51,0,0,1,47,127a.5.5,0,0,1,.68-.18l1.74,1a.5.5,0,0,1-.25.93Zm62.72-.36a.54.54,0,0,1-.25-.06l-1.73-1a.52.52,0,0,1-.19-.69.51.51,0,0,1,.69-.18l1.73,1a.5.5,0,0,1-.25.93Zm-66.19-1.64a.57.57,0,0,1-.25-.06l-1.73-1a.51.51,0,0,1-.18-.69.49.49,0,0,1,.68-.18l1.73,1a.51.51,0,0,1,.19.68A.51.51,0,0,1,45.67,126.74Zm62.72-.36a.57.57,0,0,1-.25-.06l-1.73-1a.51.51,0,0,1-.18-.69.49.49,0,0,1,.68-.18l1.73,1a.5.5,0,0,1,.19.68A.51.51,0,0,1,108.39,126.38Zm-66.18-1.64a.54.54,0,0,1-.25-.06l-1.73-1A.52.52,0,0,1,40,123a.51.51,0,0,1,.69-.18l1.73,1a.5.5,0,0,1-.25.93Zm62.72-.36a.57.57,0,0,1-.25-.06l-1.73-1a.51.51,0,0,1-.18-.69.49.49,0,0,1,.68-.18l1.73,1a.5.5,0,0,1-.25.93Zm-66.19-1.64a.57.57,0,0,1-.25-.06l-1.73-1a.51.51,0,0,1-.18-.69.49.49,0,0,1,.68-.18l1.73,1a.5.5,0,0,1,.19.68A.51.51,0,0,1,38.74,122.74Zm62.73-.36a.54.54,0,0,1-.25-.06l-1.74-1a.51.51,0,0,1-.18-.69.5.5,0,0,1,.68-.18l1.74,1a.5.5,0,0,1-.25.93Zm-66.19-1.64a.57.57,0,0,1-.25-.06l-1.73-1a.51.51,0,0,1-.18-.69.49.49,0,0,1,.68-.18l1.73,1a.5.5,0,0,1-.25.93ZM98,120.38a.57.57,0,0,1-.25-.06l-1.73-1a.51.51,0,0,1-.18-.69.49.49,0,0,1,.68-.18l1.73,1a.5.5,0,0,1-.25.93Zm-66.18-1.64a.51.51,0,0,1-.25-.06l-1.74-1a.51.51,0,0,1-.18-.69.49.49,0,0,1,.68-.18l1.74,1a.5.5,0,0,1-.25.93Zm62.72-.36a.54.54,0,0,1-.25-.06l-1.73-1a.5.5,0,1,1,.5-.87l1.73,1a.5.5,0,0,1-.25.93Zm-66.19-1.64a.57.57,0,0,1-.25-.06l-1.73-1a.51.51,0,0,1-.18-.69.49.49,0,0,1,.68-.18l1.73,1a.51.51,0,0,1,.19.68A.52.52,0,0,1,28.35,116.74Zm62.72-.36a.57.57,0,0,1-.25-.06l-1.73-1a.51.51,0,0,1-.18-.69.49.49,0,0,1,.68-.18l1.73,1a.51.51,0,0,1,.19.68A.51.51,0,0,1,91.07,116.38Zm-66.18-1.64a.54.54,0,0,1-.25-.06l-1.73-1a.51.51,0,0,1-.19-.69.38.38,0,1,0-.06-.74v-2a.5.5,0,0,1,.5-.5.5.5,0,0,1,.5.5v2a.51.51,0,0,1-.46.5.42.42,0,0,1,.21.06l1.73,1a.5.5,0,0,1-.25.93Zm62.72-.36a.54.54,0,0,1-.25-.06l-1.73-1a.5.5,0,1,1,.5-.87l1.73,1a.5.5,0,0,1-.25.93Zm-3.47-2a.57.57,0,0,1-.25-.06l-1.73-1a.51.51,0,0,1-.18-.69.5.5,0,0,1,.68-.18l1.73,1a.5.5,0,0,1-.25.93Zm-3.46-2a.57.57,0,0,1-.25-.06l-1.73-1a.51.51,0,0,1-.18-.69.49.49,0,0,1,.68-.18l1.73,1a.5.5,0,0,1-.25.93Zm-57.52-1.63a.5.5,0,0,1-.5-.5v-2a.5.5,0,0,1,.5-.5.5.5,0,0,1,.5.5v2A.51.51,0,0,1,23.16,108.75Zm54.06-.37a.54.54,0,0,1-.25-.06l-1.74-1a.51.51,0,0,1-.18-.69.5.5,0,0,1,.68-.18l1.74,1a.5.5,0,0,1-.25.93Zm-3.47-2a.57.57,0,0,1-.25-.06l-1.73-1a.51.51,0,0,1-.18-.69.49.49,0,0,1,.68-.18l1.73,1a.51.51,0,0,1,.19.68A.51.51,0,0,1,73.75,106.38Zm-50.59-1.63a.5.5,0,0,1-.5-.5v-2a.5.5,0,0,1,.5-.5.5.5,0,0,1,.5.5v2A.51.51,0,0,1,23.16,104.75Zm47.13-.37a.54.54,0,0,1-.25-.06l-1.73-1a.52.52,0,0,1-.19-.69.51.51,0,0,1,.69-.18l1.73,1a.5.5,0,0,1-.25.93Zm-3.47-2a.57.57,0,0,1-.25-.06l-1.73-1a.51.51,0,0,1-.18-.69.49.49,0,0,1,.68-.18l1.73,1a.5.5,0,0,1-.25.93Zm-43.66-1.63a.5.5,0,0,1-.5-.5v-2a.5.5,0,0,1,.5-.5.5.5,0,0,1,.5.5v2A.51.51,0,0,1,23.16,100.75Zm40.2-.37a.57.57,0,0,1-.25-.06l-1.73-1a.51.51,0,0,1-.18-.69.49.49,0,0,1,.68-.18l1.73,1a.5.5,0,0,1-.25.93Zm-3.46-2a.51.51,0,0,1-.25-.06l-1.74-1a.51.51,0,0,1-.18-.69.5.5,0,0,1,.68-.18l1.74,1a.5.5,0,0,1-.25.93ZM23.16,96.75a.5.5,0,0,1-.5-.5v-2a.5.5,0,0,1,.5-.5.5.5,0,0,1,.5.5v2A.51.51,0,0,1,23.16,96.75Zm33.27-.37a.57.57,0,0,1-.25-.06l-1.73-1a.51.51,0,0,1-.18-.69.49.49,0,0,1,.68-.18l1.73,1a.51.51,0,0,1,.19.68A.52.52,0,0,1,56.43,96.38Zm-3.46-2a.54.54,0,0,1-.25-.06l-1.73-1a.5.5,0,1,1,.5-.87l1.73,1a.5.5,0,0,1-.25.93ZM23.16,92.75a.5.5,0,0,1-.5-.5v-2a.5.5,0,0,1,.5-.5.5.5,0,0,1,.5.5v2A.51.51,0,0,1,23.16,92.75Zm26.34-.37a.57.57,0,0,1-.25-.06l-1.73-1a.51.51,0,0,1-.18-.69.49.49,0,0,1,.68-.18l1.73,1a.5.5,0,0,1,.19.68A.51.51,0,0,1,49.5,92.38Zm-3.46-2a.54.54,0,0,1-.25-.06l-1.73-1a.52.52,0,0,1-.19-.69.51.51,0,0,1,.69-.18l1.73,1a.5.5,0,0,1-.25.93ZM23.16,88.75a.5.5,0,0,1-.5-.5v-2a.5.5,0,0,1,.5-.5.5.5,0,0,1,.5.5v2A.51.51,0,0,1,23.16,88.75Zm19.42-.37a.51.51,0,0,1-.25-.06l-1.74-1a.51.51,0,0,1-.18-.69.49.49,0,0,1,.68-.18l1.74,1a.5.5,0,0,1-.25.93Zm-3.47-2a.57.57,0,0,1-.25-.06l-1.73-1a.51.51,0,0,1-.18-.69.49.49,0,0,1,.68-.18l1.73,1a.5.5,0,0,1-.25.93ZM23.16,84.75a.5.5,0,0,1-.5-.5v-2a.5.5,0,0,1,.5-.5.5.5,0,0,1,.5.5v2A.51.51,0,0,1,23.16,84.75Zm12.49-.37a.54.54,0,0,1-.25-.06l-1.73-1a.5.5,0,1,1,.5-.87l1.73,1a.5.5,0,0,1-.25.93Zm-3.47-2a.57.57,0,0,1-.25-.06l-1.73-1a.51.51,0,0,1-.18-.69.49.49,0,0,1,.68-.18l1.73,1a.51.51,0,0,1,.19.68A.51.51,0,0,1,32.18,82.38Zm-9-1.63a.5.5,0,0,1-.5-.5v-2a.5.5,0,0,1,.5-.5.5.5,0,0,1,.5.5v2A.51.51,0,0,1,23.16,80.75Zm5.56-.37a.54.54,0,0,1-.25-.06l-1.73-1a.52.52,0,0,1-.19-.69.51.51,0,0,1,.69-.18l1.73,1a.5.5,0,0,1-.25.93Zm-3.47-2a.5.5,0,0,1-.24-.06l-1.74-1a.51.51,0,0,1-.18-.69.49.49,0,0,1,.68-.18l1.74,1a.5.5,0,0,1-.26.93Z"/></g><g class="cls-4"><path class="cls-5" d="M301.79,190.92a.5.5,0,0,1,0-1,3.69,3.69,0,0,0,1.66-.53.5.5,0,0,1,.52.86,4.85,4.85,0,0,1-2.11.67Zm-2-.25-.15,0a8.31,8.31,0,0,1-1.77-.79l-1.73-1a.51.51,0,0,1-.19-.68.5.5,0,0,1,.69-.19l1.73,1a7.6,7.6,0,0,0,1.57.69.51.51,0,0,1,.33.63A.51.51,0,0,1,299.82,190.67Zm5.29-1.73a.52.52,0,0,1-.29-.09.51.51,0,0,1-.13-.69,6.65,6.65,0,0,0,.81-1.67.5.5,0,0,1,.63-.32.51.51,0,0,1,.32.63,7.61,7.61,0,0,1-.93,1.92A.48.48,0,0,1,305.11,188.94Zm-10.42-1a.58.58,0,0,1-.26-.06l-1.73-1a.5.5,0,1,1,.51-.86l1.73,1a.5.5,0,0,1-.25.93Zm-3.47-2a.47.47,0,0,1-.25-.07l-1.73-1a.51.51,0,0,1-.18-.69.51.51,0,0,1,.69-.18l1.73,1a.5.5,0,0,1,.18.68A.51.51,0,0,1,291.22,185.92Zm15.17-.73h-.06a.5.5,0,0,1-.44-.55,14.5,14.5,0,0,0,.08-1.51v-.43a.5.5,0,0,1,.5-.5.5.5,0,0,1,.5.5v.43a13.88,13.88,0,0,1-.09,1.62A.49.49,0,0,1,306.39,185.19Zm-18.63-1.28a.57.57,0,0,1-.25-.06l-1.73-1a.5.5,0,1,1,.5-.86l1.74,1a.5.5,0,0,1,.18.68A.51.51,0,0,1,287.76,183.91Zm-3.46-2a.47.47,0,0,1-.25-.07l-1.73-1a.51.51,0,0,1-.18-.69.5.5,0,0,1,.68-.18l1.73,1a.52.52,0,0,1,.19.69A.52.52,0,0,1,284.3,181.91Zm22.17-.71a.51.51,0,0,1-.5-.5v-2a.5.5,0,0,1,.5-.5.5.5,0,0,1,.5.5v2A.5.5,0,0,1,306.47,181.2Zm-25.63-1.3a.47.47,0,0,1-.25-.07l-1.73-1a.5.5,0,1,1,.5-.86l1.73,1a.5.5,0,0,1-.25.93Zm-3.46-2a.59.59,0,0,1-.25-.07l-1.73-1a.51.51,0,0,1-.18-.69.49.49,0,0,1,.68-.18l1.73,1a.51.51,0,0,1,.18.69A.5.5,0,0,1,277.38,177.9Zm29.09-.7a.51.51,0,0,1-.5-.5v-2a.5.5,0,0,1,.5-.5.5.5,0,0,1,.5.5v2A.5.5,0,0,1,306.47,177.2Zm-32.55-1.31a.45.45,0,0,1-.25-.07l-1.73-1a.5.5,0,0,1,.5-.87l1.73,1a.5.5,0,0,1-.25.93Zm-3.46-2a.55.55,0,0,1-.25-.07l-1.73-1a.5.5,0,1,1,.5-.86l1.73,1a.51.51,0,0,1,.18.69A.5.5,0,0,1,270.46,173.89Zm36-.69a.51.51,0,0,1-.5-.5v-2a.5.5,0,0,1,.5-.5.5.5,0,0,1,.5.5v2A.5.5,0,0,1,306.47,173.2ZM267,171.88a.45.45,0,0,1-.25-.07l-1.73-1a.5.5,0,0,1,.5-.87l1.73,1a.5.5,0,0,1-.25.93Zm-3.46-2a.54.54,0,0,1-.25-.06l-1.73-1a.5.5,0,1,1,.5-.86l1.73,1a.5.5,0,0,1-.25.93Zm42.93-.67a.51.51,0,0,1-.5-.5v-2a.5.5,0,0,1,.5-.5.5.5,0,0,1,.5.5v2A.5.5,0,0,1,306.47,169.2Zm-46.39-1.33a.43.43,0,0,1-.25-.07l-1.73-1a.5.5,0,1,1,.5-.87l1.73,1a.5.5,0,0,1-.25.93Zm-3.46-2a.58.58,0,0,1-.26-.06l-1.72-1a.5.5,0,0,1-.19-.68.51.51,0,0,1,.69-.18l1.73,1a.5.5,0,0,1,.18.68A.5.5,0,0,1,256.62,165.86Zm49.85-.66a.51.51,0,0,1-.5-.5v-2a.5.5,0,0,1,.5-.5.5.5,0,0,1,.5.5v2A.5.5,0,0,1,306.47,165.2Zm-53.31-1.34a.48.48,0,0,1-.26-.07l-1.73-1a.51.51,0,0,1-.18-.69.51.51,0,0,1,.69-.18l1.73,1a.51.51,0,0,1,.18.69A.5.5,0,0,1,253.16,163.86Zm-3.47-2a.47.47,0,0,1-.25-.07l-1.73-1a.49.49,0,0,1-.18-.68.51.51,0,0,1,.69-.18l1.73,1a.5.5,0,0,1,.18.68A.51.51,0,0,1,249.69,161.85Zm56.78-.65a.51.51,0,0,1-.5-.5v-2a.5.5,0,0,1,.5-.5.5.5,0,0,1,.5.5v2A.5.5,0,0,1,306.47,161.2Zm-60.24-1.35a.59.59,0,0,1-.25-.07l-1.73-1a.51.51,0,0,1-.18-.69.5.5,0,0,1,.68-.18l1.73,1a.5.5,0,0,1-.25.94Zm-3.46-2a.47.47,0,0,1-.25-.07l-1.73-1a.49.49,0,0,1-.18-.68.51.51,0,0,1,.68-.19l1.73,1a.51.51,0,0,1,.19.68A.52.52,0,0,1,242.77,157.84Zm63.7-.64a.51.51,0,0,1-.5-.5v-2a.5.5,0,0,1,.5-.5.5.5,0,0,1,.5.5v2A.5.5,0,0,1,306.47,157.2Zm-67.16-1.36a.59.59,0,0,1-.25-.07l-1.73-1a.5.5,0,1,1,.5-.86l1.73,1a.51.51,0,0,1,.18.69A.5.5,0,0,1,239.31,155.84Zm-3.46-2a.47.47,0,0,1-.25-.07l-1.73-1a.5.5,0,0,1,.5-.87l1.73,1a.5.5,0,0,1-.25.93Zm70.62-.63a.51.51,0,0,1-.5-.5v-2a.5.5,0,0,1,.5-.5.5.5,0,0,1,.5.5v2A.5.5,0,0,1,306.47,153.2Zm-74.08-1.38a.54.54,0,0,1-.25-.06l-1.73-1a.5.5,0,1,1,.5-.86l1.73,1a.5.5,0,0,1-.25.93Zm-3.46-2a.45.45,0,0,1-.25-.07l-1.73-1a.51.51,0,0,1-.18-.69.49.49,0,0,1,.68-.18l1.73,1a.5.5,0,0,1-.25.93Zm77.54-.62a.51.51,0,0,1-.5-.5v-2a.5.5,0,0,1,.5-.5.5.5,0,0,1,.5.5v2A.5.5,0,0,1,306.47,149.2Zm-81-1.39a.54.54,0,0,1-.25-.06l-1.73-1a.5.5,0,1,1,.5-.86l1.73,1a.5.5,0,0,1-.25.93Zm-3.46-2a.45.45,0,0,1-.25-.07l-1.73-1a.52.52,0,0,1-.19-.69.51.51,0,0,1,.69-.18l1.73,1a.51.51,0,0,1,.18.69A.5.5,0,0,1,222,145.81Zm84.46-.61a.51.51,0,0,1-.5-.5v-2a.5.5,0,0,1,.5-.5.5.5,0,0,1,.5.5v2A.5.5,0,0,1,306.47,145.2Zm-87.92-1.4a.43.43,0,0,1-.25-.07l-1.74-1a.5.5,0,1,1,.51-.86l1.73,1a.5.5,0,0,1-.25.93Zm-3.46-2a.59.59,0,0,1-.26-.07l-1.73-1a.51.51,0,0,1-.18-.69.51.51,0,0,1,.69-.18l1.73,1a.51.51,0,0,1,.18.69A.5.5,0,0,1,215.09,141.8Zm91.38-.6a.51.51,0,0,1-.5-.5v-2a.5.5,0,0,1,.5-.5.5.5,0,0,1,.5.5v2A.5.5,0,0,1,306.47,141.2Zm-94.85-1.41a.47.47,0,0,1-.25-.07l-1.73-1a.49.49,0,0,1-.18-.68.51.51,0,0,1,.68-.19l1.74,1a.5.5,0,0,1,.18.68A.51.51,0,0,1,211.62,139.79Zm-3.46-2a.59.59,0,0,1-.25-.07l-1.73-1A.51.51,0,0,1,206,136a.5.5,0,0,1,.68-.18l1.73,1a.52.52,0,0,1,.19.69A.51.51,0,0,1,208.16,137.79Zm98.31-.59a.51.51,0,0,1-.5-.5v-2a.5.5,0,0,1,.5-.5.5.5,0,0,1,.5.5v2A.5.5,0,0,1,306.47,137.2ZM204.7,135.78a.47.47,0,0,1-.25-.07l-1.73-1a.5.5,0,0,1,.5-.87l1.73,1a.51.51,0,0,1,.19.68A.52.52,0,0,1,204.7,135.78Zm-3.46-2a.57.57,0,0,1-.25-.06l-1.73-1a.5.5,0,1,1,.5-.86l1.73,1a.5.5,0,0,1-.25.93Zm105.23-.57a.51.51,0,0,1-.5-.5v-2a.5.5,0,0,1,.5-.5.5.5,0,0,1,.5.5v2A.5.5,0,0,1,306.47,133.2Zm-108.69-1.43a.45.45,0,0,1-.25-.07l-1.73-1a.51.51,0,0,1-.18-.69.49.49,0,0,1,.68-.18l1.73,1a.5.5,0,0,1-.25.93Zm-3.46-2a.54.54,0,0,1-.25-.06l-1.73-1a.5.5,0,0,1,.5-.86l1.73,1a.5.5,0,0,1-.25.93Zm112.15-.56a.51.51,0,0,1-.5-.5v-2a.5.5,0,0,1,.5-.5.5.5,0,0,1,.5.5v2A.5.5,0,0,1,306.47,129.2Zm-115.61-1.44a.45.45,0,0,1-.25-.07l-1.73-1a.51.51,0,0,1-.18-.69.49.49,0,0,1,.68-.18l1.73,1a.5.5,0,0,1-.25.93Zm-3.46-2a.45.45,0,0,1-.25-.07l-1.73-1a.5.5,0,1,1,.5-.86l1.73,1a.5.5,0,0,1-.25.93Zm119.07-.55a.51.51,0,0,1-.5-.5v-2a.5.5,0,0,1,.5-.5.5.5,0,0,1,.5.5v2A.5.5,0,0,1,306.47,125.2Zm-122.53-1.45a.55.55,0,0,1-.25-.07l-1.73-1a.52.52,0,0,1-.19-.69.51.51,0,0,1,.69-.18l1.73,1a.51.51,0,0,1,.18.69A.5.5,0,0,1,183.94,123.75Zm-3.46-2a.5.5,0,0,1-.26-.08,11.09,11.09,0,0,1-1.67-1.24.51.51,0,0,1-.05-.71.51.51,0,0,1,.71,0,11.23,11.23,0,0,0,1.53,1.14.5.5,0,0,1-.26.93Zm126-.54a.51.51,0,0,1-.5-.5v-2a.5.5,0,0,1,.5-.5.5.5,0,0,1,.5.5v2A.5.5,0,0,1,306.47,121.2Zm-129-2.07a.49.49,0,0,1-.38-.18,19.11,19.11,0,0,1-1.26-1.61.5.5,0,1,1,.82-.58,15.75,15.75,0,0,0,1.2,1.54.49.49,0,0,1,0,.7A.48.48,0,0,1,177.47,119.13Zm129-1.93a.51.51,0,0,1-.5-.5v-2a.5.5,0,0,1,.5-.5.5.5,0,0,1,.5.5v2A.5.5,0,0,1,306.47,117.2Zm-131.3-1.34a.49.49,0,0,1-.43-.26c-.34-.59-.65-1.2-.93-1.82a.5.5,0,0,1,.25-.66.49.49,0,0,1,.66.25c.27.59.57,1.18.89,1.74a.5.5,0,0,1-.19.68A.45.45,0,0,1,175.17,115.86Zm131.3-2.66a.51.51,0,0,1-.5-.5v-2a.5.5,0,0,1,.5-.5.5.5,0,0,1,.5.5v2A.5.5,0,0,1,306.47,113.2Zm-133-1a.5.5,0,0,1-.47-.34c-.22-.65-.42-1.31-.58-2a.5.5,0,0,1,.36-.61.5.5,0,0,1,.61.37,19,19,0,0,0,.56,1.87.51.51,0,0,1-.31.64A.47.47,0,0,1,173.52,112.22Zm133-3a.51.51,0,0,1-.5-.5v-2a.5.5,0,0,1,.5-.5.5.5,0,0,1,.5.5v2A.5.5,0,0,1,306.47,109.2Zm-133.9-.86a.51.51,0,0,1-.5-.43,16.34,16.34,0,0,1-.17-2,.5.5,0,0,1,.49-.52h0a.51.51,0,0,1,.5.49,16.36,16.36,0,0,0,.16,1.94.5.5,0,0,1-.42.56Zm133.85-3.14a.5.5,0,0,1-.5-.46,19,19,0,0,0-.26-1.93.49.49,0,0,1,.4-.58.5.5,0,0,1,.58.39c.13.69.22,1.37.28,2a.5.5,0,0,1-.46.54Zm-134-.86a.5.5,0,0,1-.5-.5v-2a.51.51,0,0,1,.5-.5.5.5,0,0,1,.5.5v2A.5.5,0,0,1,172.39,104.34Zm133.29-3.06a.49.49,0,0,1-.48-.36c-.19-.62-.4-1.24-.64-1.85a.5.5,0,0,1,.93-.37c.25.64.47,1.29.66,1.93a.51.51,0,0,1-.33.63Zm-133.29-.94a.5.5,0,0,1-.5-.5v-2a.51.51,0,0,1,.5-.5.5.5,0,0,1,.5.5v2A.5.5,0,0,1,172.39,100.34ZM304.2,97.56a.49.49,0,0,1-.44-.28c-.29-.58-.62-1.15-1-1.7a.5.5,0,0,1,.85-.53,19.34,19.34,0,0,1,1,1.78.51.51,0,0,1-.22.68A.59.59,0,0,1,304.2,97.56ZM172.39,96.34a.5.5,0,0,1-.5-.5v-2a.51.51,0,0,1,.5-.5.5.5,0,0,1,.5.5v2A.5.5,0,0,1,172.39,96.34Zm129.7-2.17a.5.5,0,0,1-.4-.19,16.78,16.78,0,0,0-1.27-1.47.5.5,0,0,1,0-.71.51.51,0,0,1,.71,0,17.33,17.33,0,0,1,1.34,1.56.49.49,0,0,1-.39.8Zm-129.7-1.83a.5.5,0,0,1-.5-.5v-2a.51.51,0,0,1,.5-.5.5.5,0,0,1,.5.5v2A.5.5,0,0,1,172.39,92.34Zm126.89-1a.49.49,0,0,1-.3-.1,11.25,11.25,0,0,0-1.08-.72l-.55-.32a.5.5,0,0,1,.5-.86l.55.31a11.7,11.7,0,0,1,1.18.8.49.49,0,0,1-.3.89Zm-3.41-2.07a.55.55,0,0,1-.25-.07l-1.73-1a.52.52,0,0,1-.19-.69.51.51,0,0,1,.69-.18l1.73,1a.51.51,0,0,1,.18.69A.5.5,0,0,1,295.87,89.26Zm-123.48-.92a.5.5,0,0,1-.5-.5v-2a.51.51,0,0,1,.5-.5.5.5,0,0,1,.5.5v2A.5.5,0,0,1,172.39,88.34Zm120-1.09a.43.43,0,0,1-.25-.07l-1.73-1a.5.5,0,0,1-.19-.68.51.51,0,0,1,.69-.18l1.73,1a.5.5,0,0,1-.25.93Zm-3.46-2a.59.59,0,0,1-.26-.07l-1.73-1a.51.51,0,0,1-.18-.69.51.51,0,0,1,.69-.18l1.73,1a.51.51,0,0,1,.18.69A.5.5,0,0,1,289,85.25Zm-116.56-.91a.5.5,0,0,1-.5-.5v-2a.51.51,0,0,1,.5-.5.5.5,0,0,1,.5.5v2A.5.5,0,0,1,172.39,84.34Zm113.09-1.1a.47.47,0,0,1-.25-.07l-1.73-1a.5.5,0,0,1-.18-.68.52.52,0,0,1,.69-.19l1.73,1a.5.5,0,0,1,.18.68A.51.51,0,0,1,285.48,83.24Zm-3.46-2a.57.57,0,0,1-.25-.06l-1.73-1a.5.5,0,1,1,.5-.86l1.73,1a.5.5,0,0,1,.19.68A.51.51,0,0,1,282,81.23Zm-109.63-.89a.5.5,0,0,1-.5-.5v-2a.51.51,0,0,1,.5-.5.5.5,0,0,1,.5.5v2A.5.5,0,0,1,172.39,80.34Zm106.17-1.11a.47.47,0,0,1-.25-.07l-1.73-1a.5.5,0,0,1,.5-.87l1.73,1A.49.49,0,0,1,279,79,.51.51,0,0,1,278.56,79.23Zm-3.46-2a.57.57,0,0,1-.25-.06l-1.73-1a.5.5,0,1,1,.5-.86l1.73,1a.51.51,0,0,1,.19.68A.52.52,0,0,1,275.1,77.22Zm-102.71-.88a.5.5,0,0,1-.5-.5v-2a.51.51,0,0,1,.5-.5.5.5,0,0,1,.5.5v2A.5.5,0,0,1,172.39,76.34Zm99.25-1.12a.47.47,0,0,1-.25-.07l-1.73-1a.51.51,0,0,1-.18-.69.49.49,0,0,1,.68-.18l1.73,1a.51.51,0,0,1,.18.69A.5.5,0,0,1,271.64,75.22Zm-3.46-2a.47.47,0,0,1-.25-.07l-1.73-1a.5.5,0,0,1,.5-.86l1.73,1a.5.5,0,0,1-.25.93Zm-95.79-.87a.5.5,0,0,1-.5-.5v-2a.51.51,0,0,1,.5-.5.5.5,0,0,1,.5.5v2A.5.5,0,0,1,172.39,72.34Zm92.33-1.13a.55.55,0,0,1-.25-.07l-1.73-1a.51.51,0,0,1-.18-.69.49.49,0,0,1,.68-.18l1.73,1a.51.51,0,0,1,.18.69A.5.5,0,0,1,264.72,71.21Zm-3.46-2a.45.45,0,0,1-.25-.07l-1.73-1a.5.5,0,1,1,.5-.86l1.73,1a.5.5,0,0,1-.25.93Zm-88.87-.86a.5.5,0,0,1-.5-.5v-2a.51.51,0,0,1,.5-.5.5.5,0,0,1,.5.5v2A.5.5,0,0,1,172.39,68.34ZM257.8,67.2a.55.55,0,0,1-.25-.07l-1.73-1a.51.51,0,0,1-.18-.69.49.49,0,0,1,.68-.18l1.73,1a.51.51,0,0,1,.18.69A.5.5,0,0,1,257.8,67.2Zm-3.46-2a.45.45,0,0,1-.25-.07l-1.73-1a.51.51,0,0,1-.19-.68.52.52,0,0,1,.69-.19l1.73,1a.5.5,0,0,1-.25.93Zm-82-.85a.5.5,0,0,1-.5-.5v-2a.51.51,0,0,1,.5-.5.5.5,0,0,1,.5.5v2A.5.5,0,0,1,172.39,64.34Zm78.49-1.16a.51.51,0,0,1-.25-.06l-1.74-1a.5.5,0,0,1-.18-.68.51.51,0,0,1,.69-.18l1.73,1a.5.5,0,0,1,.18.68A.48.48,0,0,1,250.88,63.18Zm-3.46-2a.48.48,0,0,1-.26-.07l-1.73-1a.5.5,0,0,1,.51-.87l1.73,1a.5.5,0,0,1,.18.68A.5.5,0,0,1,247.42,61.18Zm-75-.84a.5.5,0,0,1-.5-.5v-2a.51.51,0,0,1,.5-.5.5.5,0,0,1,.5.5v2A.5.5,0,0,1,172.39,60.34ZM244,59.17a.57.57,0,0,1-.25-.06l-1.73-1a.5.5,0,1,1,.5-.86l1.74,1a.5.5,0,0,1,.18.68A.51.51,0,0,1,244,59.17Zm-3.46-2a.47.47,0,0,1-.25-.07l-1.73-1a.51.51,0,0,1-.18-.69.5.5,0,0,1,.68-.18l1.73,1a.5.5,0,0,1,.19.68A.51.51,0,0,1,240.49,57.17Zm-68.1-.83a.5.5,0,0,1-.5-.5v-2a.51.51,0,0,1,.5-.5.5.5,0,0,1,.5.5v2A.5.5,0,0,1,172.39,56.34ZM237,55.16a.57.57,0,0,1-.25-.06l-1.73-1a.5.5,0,0,1,.5-.86l1.73,1a.51.51,0,0,1,.19.68A.52.52,0,0,1,237,55.16Zm-3.46-2a.47.47,0,0,1-.25-.07l-1.73-1a.51.51,0,0,1-.18-.69.49.49,0,0,1,.68-.18l1.73,1a.51.51,0,0,1,.18.69A.5.5,0,0,1,233.57,53.16Zm-61.18-.82a.5.5,0,0,1-.5-.5v-2a.51.51,0,0,1,.5-.5.5.5,0,0,1,.5.5v2A.5.5,0,0,1,172.39,52.34Zm57.72-1.19a.45.45,0,0,1-.25-.07l-1.73-1a.5.5,0,1,1,.5-.86l1.73,1a.5.5,0,0,1-.25.93Zm-3.46-2a.55.55,0,0,1-.25-.07l-1.73-1a.51.51,0,0,1-.18-.69.49.49,0,0,1,.68-.18l1.73,1a.51.51,0,0,1,.18.69A.5.5,0,0,1,226.65,49.15Zm-54.26-.81a.5.5,0,0,1-.5-.5v-2a.51.51,0,0,1,.5-.5.5.5,0,0,1,.5.5v2A.5.5,0,0,1,172.39,48.34Zm50.8-1.2a.45.45,0,0,1-.25-.07l-1.73-1a.49.49,0,0,1-.18-.68.5.5,0,0,1,.68-.19l1.73,1a.5.5,0,0,1-.25.93Zm-3.46-2a.54.54,0,0,1-.25-.06l-1.73-1a.5.5,0,1,1,.5-.86l1.73,1a.51.51,0,0,1,.18.69A.49.49,0,0,1,219.73,45.13Zm-47.34-.79a.5.5,0,0,1-.5-.5v-2a.51.51,0,0,1,.5-.5.5.5,0,0,1,.5.5v2A.5.5,0,0,1,172.39,44.34Zm43.88-1.21a.45.45,0,0,1-.25-.07l-1.73-1a.51.51,0,0,1-.19-.68.52.52,0,0,1,.69-.19l1.73,1a.5.5,0,0,1-.25.93Zm-3.46-2a.51.51,0,0,1-.25-.06l-1.74-1a.5.5,0,0,1-.18-.68.51.51,0,0,1,.69-.18l1.73,1a.5.5,0,0,1-.25.93Zm-40.42-.78a.5.5,0,0,1-.5-.5v-2a.51.51,0,0,1,.5-.5.5.5,0,0,1,.5.5v2A.5.5,0,0,1,172.39,40.34Zm37-1.22a.48.48,0,0,1-.26-.07l-1.73-1a.51.51,0,0,1-.18-.69.51.51,0,0,1,.69-.18l1.73,1a.5.5,0,0,1,.18.68A.51.51,0,0,1,209.35,39.12Zm-3.47-2a.57.57,0,0,1-.25-.06l-1.73-1a.5.5,0,1,1,.5-.86l1.74,1a.5.5,0,0,1,.18.68A.51.51,0,0,1,205.88,37.11Zm-33.49-.77a.5.5,0,0,1-.5-.5v-2a.51.51,0,0,1,.5-.5.5.5,0,0,1,.5.5v2A.5.5,0,0,1,172.39,36.34Zm30-1.23a.47.47,0,0,1-.25-.07l-1.73-1a.51.51,0,0,1-.18-.69.5.5,0,0,1,.68-.18l1.73,1a.52.52,0,0,1,.19.69A.51.51,0,0,1,202.42,35.11Zm-3.46-2a.47.47,0,0,1-.25-.07L197,32a.5.5,0,1,1,.5-.86l1.73,1a.5.5,0,0,1-.25.93Zm-26.57-.76a.5.5,0,0,1-.5-.5v-2a.51.51,0,0,1,.5-.5.5.5,0,0,1,.5.5v2A.5.5,0,0,1,172.39,32.34ZM195.5,31.1a.59.59,0,0,1-.25-.07l-1.73-1a.51.51,0,0,1-.18-.69.49.49,0,0,1,.68-.18l1.73,1a.51.51,0,0,1,.18.69A.5.5,0,0,1,195.5,31.1Zm-3.46-2a.47.47,0,0,1-.25-.07l-1.73-1a.5.5,0,1,1,.5-.86l1.73,1a.5.5,0,0,1-.25.93Zm-19.64-.75h0a.5.5,0,0,1-.49-.51,13.24,13.24,0,0,1,.23-2.07.5.5,0,0,1,.59-.39.49.49,0,0,1,.39.59,12.41,12.41,0,0,0-.21,1.9A.5.5,0,0,1,172.4,28.34Zm16.18-1.26a.54.54,0,0,1-.25-.06l-1.73-1a.5.5,0,1,1,.5-.86l1.73,1a.51.51,0,0,1,.18.69A.49.49,0,0,1,188.58,27.08Zm-3.46-2a.45.45,0,0,1-.25-.07l-1.73-1a.5.5,0,0,1-.18-.68.51.51,0,0,1,.68-.19l1.73,1a.5.5,0,0,1-.25.93Zm-11.89-.62a.54.54,0,0,1-.21-.05.5.5,0,0,1-.25-.66A6.29,6.29,0,0,1,174,22a.48.48,0,0,1,.7,0,.49.49,0,0,1,0,.7,5.2,5.2,0,0,0-1,1.51A.49.49,0,0,1,173.23,24.46Zm8.43-1.39a.54.54,0,0,1-.25-.06l-.94-.55a8,8,0,0,0-.77-.39.5.5,0,0,1-.25-.66.49.49,0,0,1,.66-.25,7.79,7.79,0,0,1,.86.44l.94.54a.5.5,0,0,1-.25.93ZM176,21.75a.5.5,0,0,1-.16-1,5,5,0,0,1,2.19-.21.5.5,0,0,1,.44.55.52.52,0,0,1-.56.44,4,4,0,0,0-1.75.17A.47.47,0,0,1,176,21.75Z"/></g><g class="cls-4"><path class="cls-5" d="M158.78,256.76a4.52,4.52,0,0,1-.51,0,.5.5,0,0,1-.45-.54.52.52,0,0,1,.54-.46,3.88,3.88,0,0,0,1.75-.2.5.5,0,0,1,.35.93A4.71,4.71,0,0,1,158.78,256.76Zm-2.39-.53a.65.65,0,0,1-.19,0,8.83,8.83,0,0,1-1-.49l-1.73-1a.5.5,0,0,1,.5-.86l1.73,1a7.79,7.79,0,0,0,.86.44.49.49,0,0,1,.26.66A.51.51,0,0,1,156.39,256.23Zm5.54-.83a.49.49,0,0,1-.36-.84,5.19,5.19,0,0,0,1-1.52.5.5,0,1,1,.91.4,6.41,6.41,0,0,1-1.17,1.81A.51.51,0,0,1,161.93,255.4ZM152,253.76a.45.45,0,0,1-.25-.07l-1.73-1a.5.5,0,0,1,.5-.87l1.73,1a.5.5,0,0,1-.25.93Zm11.58-1.93h-.09a.49.49,0,0,1-.4-.58,11.55,11.55,0,0,0,.19-1.91.51.51,0,0,1,.5-.49h0a.5.5,0,0,1,.49.51,13.3,13.3,0,0,1-.21,2.07A.5.5,0,0,1,163.6,251.83Zm-15-.08a.54.54,0,0,1-.25-.06l-1.73-1a.5.5,0,1,1,.5-.86l1.73,1a.51.51,0,0,1,.18.69A.49.49,0,0,1,148.56,251.75Zm-3.46-2a.45.45,0,0,1-.25-.07l-1.73-1a.5.5,0,1,1,.5-.87l1.73,1a.5.5,0,0,1-.25.93Zm18.71-1.91a.5.5,0,0,1-.5-.5v-2a.5.5,0,0,1,.5-.5.51.51,0,0,1,.5.5v2A.5.5,0,0,1,163.81,247.84Zm-22.17-.1a.51.51,0,0,1-.25-.06l-1.74-1a.5.5,0,1,1,.51-.86l1.73,1a.5.5,0,0,1-.25.93Zm-3.46-2a.48.48,0,0,1-.26-.07l-1.73-1A.51.51,0,0,1,136,244a.51.51,0,0,1,.69-.18l1.73,1a.5.5,0,0,1-.25.93Zm25.63-1.9a.5.5,0,0,1-.5-.5v-2a.5.5,0,0,1,.5-.5.51.51,0,0,1,.5.5v2A.5.5,0,0,1,163.81,243.84Zm-29.1-.11a.47.47,0,0,1-.25-.07l-1.73-1a.5.5,0,1,1,.5-.86l1.74,1a.5.5,0,0,1,.18.68A.51.51,0,0,1,134.71,243.73Zm-3.46-2a.59.59,0,0,1-.25-.07l-1.73-1a.51.51,0,0,1-.18-.69.5.5,0,0,1,.68-.18l1.73,1a.52.52,0,0,1,.19.69A.51.51,0,0,1,131.25,241.73Zm32.56-1.89a.5.5,0,0,1-.5-.5v-2a.5.5,0,0,1,.5-.5.51.51,0,0,1,.5.5v2A.5.5,0,0,1,163.81,239.84Zm-36-.12a.47.47,0,0,1-.25-.07l-1.73-1a.5.5,0,0,1,.5-.86l1.73,1a.5.5,0,0,1-.25.93Zm-3.46-2a.59.59,0,0,1-.25-.07l-1.73-1a.5.5,0,0,1,.5-.86l1.73,1a.51.51,0,0,1,.18.69A.5.5,0,0,1,124.33,237.72Zm39.48-1.88a.5.5,0,0,1-.5-.5v-2a.5.5,0,0,1,.5-.5.51.51,0,0,1,.5.5v2A.5.5,0,0,1,163.81,235.84Zm-42.94-.13a.45.45,0,0,1-.25-.07l-1.73-1a.5.5,0,0,1-.18-.68.51.51,0,0,1,.68-.19l1.73,1a.5.5,0,0,1-.25.93Zm-3.46-2a.54.54,0,0,1-.25-.06l-1.73-1a.5.5,0,0,1,.5-.86l1.73,1a.51.51,0,0,1,.18.69A.49.49,0,0,1,117.41,233.7Zm46.4-1.86a.5.5,0,0,1-.5-.5v-2a.5.5,0,0,1,.5-.5.51.51,0,0,1,.5.5v2A.5.5,0,0,1,163.81,231.84ZM114,231.7a.45.45,0,0,1-.25-.07l-1.73-1a.5.5,0,0,1,.5-.87l1.73,1a.5.5,0,0,1-.25.93Zm-3.46-2a.54.54,0,0,1-.25-.06l-1.73-1a.5.5,0,0,1,.5-.86l1.73,1a.5.5,0,0,1-.25.93Zm53.32-1.85a.5.5,0,0,1-.5-.5v-2a.5.5,0,0,1,.5-.5.51.51,0,0,1,.5.5v2A.5.5,0,0,1,163.81,227.84ZM107,227.69a.45.45,0,0,1-.25-.07l-1.73-1a.52.52,0,0,1-.19-.69.51.51,0,0,1,.69-.18l1.73,1a.51.51,0,0,1,.18.69A.5.5,0,0,1,107,227.69Zm-3.46-2a.43.43,0,0,1-.25-.07l-1.73-1a.5.5,0,1,1,.5-.86l1.73,1a.5.5,0,0,1-.25.93Zm60.24-1.84a.5.5,0,0,1-.5-.5v-2a.5.5,0,0,1,.5-.5.51.51,0,0,1,.5.5v2A.5.5,0,0,1,163.81,223.84Zm-63.7-.16a.59.59,0,0,1-.26-.07l-1.73-1a.51.51,0,0,1-.18-.69.51.51,0,0,1,.69-.18l1.73,1a.51.51,0,0,1,.18.69A.5.5,0,0,1,100.11,223.68Zm-3.47-2a.47.47,0,0,1-.25-.07l-1.73-1a.5.5,0,1,1,.51-.86l1.73,1a.5.5,0,0,1,.18.68A.51.51,0,0,1,96.64,221.67Zm67.17-1.83a.5.5,0,0,1-.5-.5v-2a.5.5,0,0,1,.5-.5.51.51,0,0,1,.5.5v2A.5.5,0,0,1,163.81,219.84Zm-70.63-.17a.59.59,0,0,1-.25-.07l-1.73-1a.51.51,0,0,1-.18-.69.5.5,0,0,1,.68-.18l1.73,1a.5.5,0,0,1-.25.94Zm-3.46-2a.47.47,0,0,1-.25-.07l-1.73-1a.5.5,0,0,1-.18-.68.51.51,0,0,1,.68-.19l1.73,1a.51.51,0,0,1,.19.68A.52.52,0,0,1,89.72,217.66Zm74.09-1.82a.5.5,0,0,1-.5-.5v-2a.5.5,0,0,1,.5-.5.51.51,0,0,1,.5.5v2A.5.5,0,0,1,163.81,215.84Zm-77.55-.19a.57.57,0,0,1-.25-.06l-1.73-1a.5.5,0,1,1,.5-.86l1.73,1a.5.5,0,0,1-.25.93Zm-3.46-2a.47.47,0,0,1-.25-.07l-1.73-1a.5.5,0,0,1,.5-.87l1.73,1a.5.5,0,0,1-.25.93Zm81-1.81a.5.5,0,0,1-.5-.5v-2a.5.5,0,0,1,.5-.5.51.51,0,0,1,.5.5v2A.5.5,0,0,1,163.81,211.84Zm-84.47-.2a.54.54,0,0,1-.25-.06l-1.73-1a.5.5,0,0,1,.5-.86l1.73,1a.5.5,0,0,1-.25.93Zm-3.46-2a.45.45,0,0,1-.25-.07l-1.73-1a.51.51,0,0,1-.18-.69.49.49,0,0,1,.68-.18l1.73,1a.51.51,0,0,1,.18.69A.5.5,0,0,1,75.88,209.64Zm87.93-1.8a.5.5,0,0,1-.5-.5v-2a.5.5,0,0,1,.5-.5.51.51,0,0,1,.5.5v2A.5.5,0,0,1,163.81,207.84Zm-91.39-.21a.45.45,0,0,1-.25-.07l-1.73-1a.5.5,0,1,1,.5-.86l1.73,1a.5.5,0,0,1-.25.93Zm-3.46-2a.55.55,0,0,1-.25-.07l-1.73-1a.52.52,0,0,1-.19-.69.51.51,0,0,1,.69-.18l1.73,1a.51.51,0,0,1,.18.69A.5.5,0,0,1,69,205.63Zm94.85-1.79a.5.5,0,0,1-.5-.5v-2a.5.5,0,0,1,.5-.5.51.51,0,0,1,.5.5v2A.5.5,0,0,1,163.81,203.84Zm-98.31-.22a.43.43,0,0,1-.25-.07l-1.73-1a.5.5,0,0,1-.19-.68.52.52,0,0,1,.69-.19l1.73,1a.5.5,0,0,1-.25.93Zm-3.46-2a.52.52,0,0,1-.25-.07l-1.74-1a.51.51,0,0,1-.18-.69.51.51,0,0,1,.69-.18l1.73,1a.51.51,0,0,1,.18.69A.5.5,0,0,1,62,201.62Zm101.77-1.78a.5.5,0,0,1-.5-.5v-2a.5.5,0,0,1,.5-.5.51.51,0,0,1,.5.5v2A.5.5,0,0,1,163.81,199.84Zm-105.24-.23a.47.47,0,0,1-.25-.07l-1.73-1a.49.49,0,0,1-.18-.68.51.51,0,0,1,.69-.19l1.73,1a.5.5,0,0,1,.18.68A.51.51,0,0,1,58.57,199.61Zm-3.46-2a.57.57,0,0,1-.25-.06l-1.73-1a.5.5,0,0,1,.5-.86l1.73,1a.5.5,0,0,1,.19.68A.51.51,0,0,1,55.11,197.6Zm108.7-1.76a.5.5,0,0,1-.5-.5v-2a.5.5,0,0,1,.5-.5.51.51,0,0,1,.5.5v2A.5.5,0,0,1,163.81,195.84ZM51.65,195.6a.47.47,0,0,1-.25-.07l-1.73-1a.5.5,0,0,1,.5-.87l1.73,1a.51.51,0,0,1,.19.68A.51.51,0,0,1,51.65,195.6Zm-3.46-2a.57.57,0,0,1-.25-.06l-1.73-1a.5.5,0,0,1,.5-.86l1.73,1a.5.5,0,0,1-.25.93Zm115.62-1.75a.5.5,0,0,1-.5-.5v-2a.5.5,0,0,1,.5-.5.51.51,0,0,1,.5.5v2A.5.5,0,0,1,163.81,191.84Zm-119.08-.25a.47.47,0,0,1-.25-.07l-1.73-1a.51.51,0,0,1-.18-.69.49.49,0,0,1,.68-.18l1.73,1a.51.51,0,0,1,.18.69A.5.5,0,0,1,44.73,191.59Zm-3.46-2a.45.45,0,0,1-.25-.07l-1.73-1a.5.5,0,1,1,.5-.86l1.73,1a.5.5,0,0,1-.25.93Zm122.54-1.74a.5.5,0,0,1-.5-.5v-2a.5.5,0,0,1,.5-.5.51.51,0,0,1,.5.5v2A.5.5,0,0,1,163.81,187.84Zm-126-.27a.48.48,0,0,1-.26-.07,14.11,14.11,0,0,1-1.67-1.24.5.5,0,0,1,.66-.76,11.12,11.12,0,0,0,1.53,1.15.5.5,0,0,1,.17.69A.51.51,0,0,1,37.81,187.57Zm-3-2.61a.52.52,0,0,1-.38-.17,19.3,19.3,0,0,1-1.26-1.62.5.5,0,1,1,.82-.57,16.89,16.89,0,0,0,1.2,1.53.51.51,0,0,1,0,.71A.5.5,0,0,1,34.8,185Zm129-1.12a.5.5,0,0,1-.5-.5v-2a.5.5,0,0,1,.5-.5.51.51,0,0,1,.5.5v2A.5.5,0,0,1,163.81,183.84Zm-131.3-2.15a.5.5,0,0,1-.44-.25c-.33-.59-.64-1.2-.92-1.82a.5.5,0,0,1,.24-.67.51.51,0,0,1,.67.25c.27.6.56,1.19.88,1.75a.5.5,0,0,1-.19.68A.53.53,0,0,1,32.51,181.69Zm131.3-1.85a.5.5,0,0,1-.5-.5v-2a.5.5,0,0,1,.5-.5.51.51,0,0,1,.5.5v2A.5.5,0,0,1,163.81,179.84ZM30.86,178.05a.5.5,0,0,1-.47-.33c-.23-.65-.43-1.31-.59-2a.51.51,0,0,1,.36-.61.51.51,0,0,1,.61.36c.16.63.34,1.26.56,1.88A.5.5,0,0,1,31,178,.45.45,0,0,1,30.86,178.05Zm133-2.21a.5.5,0,0,1-.5-.5v-2a.5.5,0,0,1,.5-.5.51.51,0,0,1,.5.5v2A.5.5,0,0,1,163.81,175.84ZM29.9,174.17a.51.51,0,0,1-.5-.43c-.09-.69-.15-1.39-.17-2.05a.5.5,0,0,1,.49-.51.49.49,0,0,1,.51.49,18.82,18.82,0,0,0,.16,1.93.51.51,0,0,1-.42.57Zm133.91-2.33a.5.5,0,0,1-.5-.5v-2a.5.5,0,0,1,.5-.5.51.51,0,0,1,.5.5v2A.5.5,0,0,1,163.81,171.84ZM29.73,170.18a.5.5,0,0,1-.5-.5v-2a.5.5,0,0,1,.5-.5.5.5,0,0,1,.5.5v2A.5.5,0,0,1,29.73,170.18Zm134.08-2.34a.5.5,0,0,1-.5-.5v-2a.5.5,0,0,1,.5-.5.51.51,0,0,1,.5.5v2A.5.5,0,0,1,163.81,167.84ZM29.73,166.18a.5.5,0,0,1-.5-.5v-2a.5.5,0,0,1,.5-.5.5.5,0,0,1,.5.5v2A.5.5,0,0,1,29.73,166.18Zm134.08-2.34a.5.5,0,0,1-.5-.5v-2a.5.5,0,0,1,.5-.5.51.51,0,0,1,.5.5v2A.5.5,0,0,1,163.81,163.84ZM29.73,162.18a.5.5,0,0,1-.5-.5v-2a.5.5,0,0,1,.5-.5.5.5,0,0,1,.5.5v2A.5.5,0,0,1,29.73,162.18Zm134.08-2.34a.5.5,0,0,1-.5-.5v-2a.5.5,0,0,1,.5-.5.51.51,0,0,1,.5.5v2A.5.5,0,0,1,163.81,159.84ZM29.73,158.18a.5.5,0,0,1-.5-.5v-2a.5.5,0,0,1,.5-.5.5.5,0,0,1,.5.5v2A.5.5,0,0,1,29.73,158.18Zm134.08-2.34a.5.5,0,0,1-.5-.5v-2a.5.5,0,0,1,.5-.5.51.51,0,0,1,.5.5v2A.5.5,0,0,1,163.81,155.84ZM29.73,154.18a.5.5,0,0,1-.5-.5v-2a.5.5,0,0,1,.5-.5.5.5,0,0,1,.5.5v2A.5.5,0,0,1,29.73,154.18Zm134.08-2.34a.5.5,0,0,1-.5-.5v-2a.5.5,0,0,1,.5-.5.51.51,0,0,1,.5.5v2A.5.5,0,0,1,163.81,151.84ZM29.73,150.18a.5.5,0,0,1-.5-.5v-2a.5.5,0,0,1,.5-.5.5.5,0,0,1,.5.5v2A.5.5,0,0,1,29.73,150.18Zm134.08-2.34a.5.5,0,0,1-.5-.5v-2a.5.5,0,0,1,.5-.5.51.51,0,0,1,.5.5v2A.5.5,0,0,1,163.81,147.84ZM29.73,146.18a.5.5,0,0,1-.5-.5v-2a.5.5,0,0,1,.5-.5.5.5,0,0,1,.5.5v2A.5.5,0,0,1,29.73,146.18Zm134.08-2.34a.5.5,0,0,1-.5-.5v-2a.5.5,0,0,1,.5-.5.51.51,0,0,1,.5.5v2A.5.5,0,0,1,163.81,143.84ZM29.73,142.18a.5.5,0,0,1-.5-.5v-2a.5.5,0,0,1,.5-.5.5.5,0,0,1,.5.5v2A.5.5,0,0,1,29.73,142.18Zm134.08-2.34a.5.5,0,0,1-.5-.5v-2a.5.5,0,0,1,.5-.5.51.51,0,0,1,.5.5v2A.5.5,0,0,1,163.81,139.84ZM29.73,138.18a.5.5,0,0,1-.5-.5v-2a.5.5,0,0,1,.5-.5.5.5,0,0,1,.5.5v2A.5.5,0,0,1,29.73,138.18Zm134.08-2.34a.5.5,0,0,1-.5-.5v-2a.5.5,0,0,1,.5-.5.51.51,0,0,1,.5.5v2A.5.5,0,0,1,163.81,135.84ZM29.73,134.18a.5.5,0,0,1-.5-.5v-2a.5.5,0,0,1,.5-.5.5.5,0,0,1,.5.5v2A.5.5,0,0,1,29.73,134.18Zm134.08-2.34a.5.5,0,0,1-.5-.5v-2a.5.5,0,0,1,.5-.5.51.51,0,0,1,.5.5v2A.5.5,0,0,1,163.81,131.84ZM29.73,130.18a.5.5,0,0,1-.5-.5v-2a.5.5,0,0,1,.5-.5.5.5,0,0,1,.5.5v2A.5.5,0,0,1,29.73,130.18Zm134.08-2.34a.5.5,0,0,1-.5-.5v-2a.5.5,0,0,1,.5-.5.51.51,0,0,1,.5.5v2A.5.5,0,0,1,163.81,127.84ZM29.73,126.18a.5.5,0,0,1-.5-.5v-2a.5.5,0,0,1,.5-.5.5.5,0,0,1,.5.5v2A.5.5,0,0,1,29.73,126.18Zm134.08-2.34a.5.5,0,0,1-.5-.5v-2a.5.5,0,0,1,.5-.5.51.51,0,0,1,.5.5v2A.5.5,0,0,1,163.81,123.84ZM29.73,122.18a.5.5,0,0,1-.5-.5v-2a.5.5,0,0,1,.5-.5.5.5,0,0,1,.5.5v2A.5.5,0,0,1,29.73,122.18Zm134.08-2.34a.5.5,0,0,1-.5-.5v-2a.5.5,0,0,1,.5-.5.51.51,0,0,1,.5.5v2A.5.5,0,0,1,163.81,119.84ZM29.73,118.18a.5.5,0,0,1-.5-.5v-2a.5.5,0,0,1,.5-.5.5.5,0,0,1,.5.5v2A.5.5,0,0,1,29.73,118.18Zm134.05-2.34a.5.5,0,0,1-.5-.47,18.7,18.7,0,0,0-.22-1.93.5.5,0,0,1,.4-.58.51.51,0,0,1,.58.41,18.25,18.25,0,0,1,.24,2,.5.5,0,0,1-.47.53Zm-134-1.66a.5.5,0,0,1-.5-.5v-2a.5.5,0,0,1,.5-.5.5.5,0,0,1,.5.5v2A.5.5,0,0,1,29.73,114.18Zm133.38-2.27a.5.5,0,0,1-.48-.37c-.17-.62-.38-1.25-.61-1.86a.49.49,0,0,1,.29-.64.5.5,0,0,1,.65.29c.24.64.45,1.29.63,1.94a.5.5,0,0,1-.35.62ZM29.73,110.18a.5.5,0,0,1-.5-.5v-2a.5.5,0,0,1,.5-.5.5.5,0,0,1,.5.5v2A.5.5,0,0,1,29.73,110.18Zm132-2a.5.5,0,0,1-.45-.28,17.76,17.76,0,0,0-.93-1.72.5.5,0,0,1,.18-.68.48.48,0,0,1,.68.17,19.42,19.42,0,0,1,1,1.8.5.5,0,0,1-.23.67A.57.57,0,0,1,161.7,108.16Zm-132-2a.5.5,0,0,1-.5-.5v-2a.5.5,0,0,1,.5-.5.5.5,0,0,1,.5.5v2A.5.5,0,0,1,29.73,106.18Zm129.91-1.44a.51.51,0,0,1-.4-.2A15.45,15.45,0,0,0,158,103a.49.49,0,0,1,0-.7.5.5,0,0,1,.71,0,19,19,0,0,1,1.32,1.58.51.51,0,0,1-.11.7A.47.47,0,0,1,159.64,104.74ZM29.73,102.18a.5.5,0,0,1-.5-.5v-2a.5.5,0,0,1,.5-.5.5.5,0,0,1,.5.5v2A.5.5,0,0,1,29.73,102.18Zm127.18-.34a.54.54,0,0,1-.32-.11,11.2,11.2,0,0,0-1.36-1l-.21-.1a.49.49,0,0,1-.23-.66.51.51,0,0,1,.67-.23l.24.11a11.77,11.77,0,0,1,1.52,1,.5.5,0,0,1,.08.7A.52.52,0,0,1,156.91,101.84Zm-3.47-2a.54.54,0,0,1-.21,0l-1.8-.88a.5.5,0,0,1-.23-.67.51.51,0,0,1,.67-.23l1.79.88a.49.49,0,0,1,.23.67A.48.48,0,0,1,153.44,99.86ZM29.73,98.18a.5.5,0,0,1-.5-.5v-2a.5.5,0,0,1,.5-.5.5.5,0,0,1,.5.5v2A.5.5,0,0,1,29.73,98.18Zm120.12-.07a.54.54,0,0,1-.22,0l-1.8-.88a.5.5,0,1,1,.44-.9l1.8.88a.5.5,0,0,1,.23.67A.52.52,0,0,1,149.85,98.11Zm-3.6-1.75a.59.59,0,0,1-.22,0l-1.79-.88a.5.5,0,0,1,.43-.9l1.8.88a.5.5,0,0,1-.22,1Zm-3.59-1.76a.42.42,0,0,1-.22,0l-1.8-.87a.5.5,0,0,1,.44-.9l1.8.87a.5.5,0,0,1-.22.95ZM29.73,94.18a.5.5,0,0,1-.5-.5v-2a.5.5,0,0,1,.5-.5.5.5,0,0,1,.5.5v2A.5.5,0,0,1,29.73,94.18Zm109.33-1.33a.44.44,0,0,1-.22,0l-1.8-.87a.52.52,0,0,1-.23-.67.5.5,0,0,1,.67-.23l1.8.87a.5.5,0,0,1,.23.67A.49.49,0,0,1,139.06,92.85Zm-3.59-1.75a.54.54,0,0,1-.22,0l-1.8-.88a.5.5,0,0,1-.23-.67.52.52,0,0,1,.67-.23l1.79.88a.49.49,0,0,1,.23.67A.48.48,0,0,1,135.47,91.1ZM29.73,90.18a.5.5,0,0,1-.5-.5v-2a.5.5,0,0,1,.5-.5.5.5,0,0,1,.5.5v2A.5.5,0,0,1,29.73,90.18Zm102.14-.83a.59.59,0,0,1-.22,0l-1.8-.88a.5.5,0,0,1,.44-.9l1.8.88a.5.5,0,0,1,.23.67A.52.52,0,0,1,131.87,89.35Zm-3.6-1.75a.59.59,0,0,1-.22,0l-1.79-.88a.5.5,0,0,1,.43-.9l1.8.88a.5.5,0,0,1-.22.95ZM29.73,86.18a.5.5,0,0,1-.5-.5v-2a.5.5,0,0,1,.5-.5.5.5,0,0,1,.5.5v2A.5.5,0,0,1,29.73,86.18Zm95-.34a.42.42,0,0,1-.22,0l-1.8-.87a.5.5,0,1,1,.44-.9l1.8.87a.51.51,0,0,1,.23.67A.5.5,0,0,1,124.68,85.84Zm-3.6-1.75a.44.44,0,0,1-.22,0l-1.8-.87a.52.52,0,0,1-.23-.67.51.51,0,0,1,.67-.23l1.8.87a.5.5,0,0,1,.23.67A.49.49,0,0,1,121.08,84.09Zm-3.59-1.75a.54.54,0,0,1-.22,0l-1.8-.88a.5.5,0,0,1-.23-.67.52.52,0,0,1,.67-.23l1.79.88a.49.49,0,0,1,.23.67A.48.48,0,0,1,117.49,82.34Zm-87.76-.16a.5.5,0,0,1-.5-.5v-2a.5.5,0,0,1,.5-.5.5.5,0,0,1,.5.5v2A.5.5,0,0,1,29.73,82.18Zm84.16-1.59a.59.59,0,0,1-.22,0l-1.8-.88a.5.5,0,1,1,.44-.9l1.8.88a.5.5,0,0,1,.23.67A.52.52,0,0,1,113.89,80.59Zm-3.6-1.75a.59.59,0,0,1-.22,0l-1.79-.88a.5.5,0,0,1-.23-.67.49.49,0,0,1,.66-.23l1.8.88a.5.5,0,0,1-.22,1Zm-80.56-.66a.5.5,0,0,1-.5-.5v-2a.5.5,0,0,1,.5-.5.5.5,0,0,1,.5.5v2A.5.5,0,0,1,29.73,78.18Zm77-1.1a.42.42,0,0,1-.22,0l-1.8-.87a.5.5,0,1,1,.44-.9l1.8.87a.51.51,0,0,1,.23.67A.5.5,0,0,1,106.7,77.08Zm-3.6-1.75a.44.44,0,0,1-.22,0l-1.79-.87a.5.5,0,1,1,.43-.9l1.8.87a.5.5,0,0,1,.23.67A.48.48,0,0,1,103.1,75.33ZM29.73,74.18a.5.5,0,0,1-.5-.5v-2a.5.5,0,0,1,.5-.5.5.5,0,0,1,.5.5v2A.5.5,0,0,1,29.73,74.18Zm69.78-.6a.54.54,0,0,1-.22,0l-1.8-.88a.5.5,0,0,1-.23-.67.52.52,0,0,1,.67-.23l1.79.88a.5.5,0,0,1-.21,1Zm-3.6-1.75a.59.59,0,0,1-.22,0l-1.8-.88a.5.5,0,0,1,.44-.9l1.8.88a.5.5,0,0,1,.23.67A.52.52,0,0,1,95.91,71.83ZM29.73,70.18a.5.5,0,0,1-.5-.5v-2a.5.5,0,0,1,.5-.5.5.5,0,0,1,.5.5v2A.5.5,0,0,1,29.73,70.18Zm62.58-.1a.54.54,0,0,1-.21,0l-1.8-.88a.5.5,0,0,1-.23-.67.49.49,0,0,1,.66-.23l1.8.88a.5.5,0,0,1-.22,1Zm-3.59-1.76a.42.42,0,0,1-.22,0l-1.8-.87a.5.5,0,0,1,.44-.9l1.8.87a.5.5,0,0,1-.22.95Zm-3.6-1.75a.44.44,0,0,1-.22,0l-1.79-.87a.5.5,0,0,1-.23-.67.49.49,0,0,1,.66-.23l1.8.87a.5.5,0,0,1,.23.67A.48.48,0,0,1,85.12,66.57Zm-55.39-.39a.5.5,0,0,1-.5-.5v-2a.5.5,0,0,1,.5-.5.5.5,0,0,1,.5.5v2A.5.5,0,0,1,29.73,66.18Zm51.8-1.36a.54.54,0,0,1-.22,0l-1.8-.88a.5.5,0,0,1-.23-.67A.52.52,0,0,1,80,63l1.8.88a.5.5,0,0,1-.22.95Zm-3.6-1.75a.59.59,0,0,1-.22,0l-1.8-.88a.51.51,0,0,1-.23-.67.5.5,0,0,1,.67-.23l1.8.88a.5.5,0,0,1,.23.67A.52.52,0,0,1,77.93,63.07Zm-48.2-.89a.5.5,0,0,1-.5-.5v-2a.5.5,0,0,1,.5-.5.5.5,0,0,1,.5.5v2A.5.5,0,0,1,29.73,62.18Zm44.6-.86a.54.54,0,0,1-.21,0l-1.8-.88a.5.5,0,0,1,.44-.9l1.79.88a.5.5,0,0,1-.22,1Zm-3.59-1.76a.42.42,0,0,1-.22-.05l-1.8-.87a.5.5,0,0,1,.44-.9l1.8.87a.5.5,0,0,1-.22,1Zm-41-1.38a.5.5,0,0,1-.5-.5v-2a.5.5,0,0,1,.5-.5.5.5,0,0,1,.5.5v2A.5.5,0,0,1,29.73,58.18Zm37.41-.37a.44.44,0,0,1-.22-.05l-1.79-.87a.5.5,0,1,1,.43-.9l1.8.87a.5.5,0,0,1,.23.67A.48.48,0,0,1,67.14,57.81Zm-3.59-1.75a.54.54,0,0,1-.22-.05l-1.8-.88a.5.5,0,0,1-.23-.67.51.51,0,0,1,.67-.23l1.8.88a.5.5,0,0,1-.22,1ZM60,54.31a.59.59,0,0,1-.22-.05l-1.8-.88a.5.5,0,0,1,.44-.9l1.8.88a.5.5,0,0,1,.23.67A.51.51,0,0,1,60,54.31Zm-30.22-.13a.5.5,0,0,1-.5-.5v-2a.5.5,0,0,1,.5-.5.5.5,0,0,1,.5.5v2A.5.5,0,0,1,29.73,54.18Zm26.62-1.62a.54.54,0,0,1-.21-.05l-1.8-.88a.5.5,0,0,1,.44-.9l1.79.88a.49.49,0,0,1,.23.67A.5.5,0,0,1,56.35,52.56ZM52.76,50.8a.44.44,0,0,1-.22,0l-1.8-.87a.5.5,0,0,1,.44-.9l1.8.87a.5.5,0,0,1-.22.95Zm-23-.62a.5.5,0,0,1-.5-.5v-.25a14.92,14.92,0,0,1,.11-1.81.5.5,0,0,1,.56-.43.5.5,0,0,1,.43.56,13,13,0,0,0-.1,1.68v.25A.5.5,0,0,1,29.73,50.18Zm19.43-1.13a.44.44,0,0,1-.22,0l-1.79-.87a.49.49,0,0,1-.23-.67.49.49,0,0,1,.66-.23l1.8.87a.5.5,0,0,1,.23.67A.48.48,0,0,1,49.16,49.05ZM45.57,47.3a.54.54,0,0,1-.22,0l-1.8-.88a.5.5,0,0,1-.23-.67.51.51,0,0,1,.67-.23l1.8.88a.5.5,0,0,1-.22.95ZM30.29,46.24a.51.51,0,0,1-.17,0,.49.49,0,0,1-.3-.63,7.16,7.16,0,0,1,1-1.91.5.5,0,0,1,.81.6,5.9,5.9,0,0,0-.85,1.64A.5.5,0,0,1,30.29,46.24ZM42,45.55a.59.59,0,0,1-.22,0L40,44.62a.5.5,0,1,1,.44-.9l1.8.88a.5.5,0,0,1,.23.67A.51.51,0,0,1,42,45.55Zm-3.6-1.75a.54.54,0,0,1-.21,0l-.33-.16a7.5,7.5,0,0,0-1.43-.66.5.5,0,0,1-.31-.63.5.5,0,0,1,.63-.32,8.57,8.57,0,0,1,1.58.73l.29.14a.49.49,0,0,1,.23.67A.5.5,0,0,1,38.37,43.8Zm-5.68-.65a.49.49,0,0,1-.24-.93,4.74,4.74,0,0,1,2.13-.58.5.5,0,0,1,0,1,3.73,3.73,0,0,0-1.69.45A.53.53,0,0,1,32.69,43.15Z"/></g></g><g class="cls-6"><path class="cls-7" d="M269.1,299.43a12,12,0,0,1-6.05-1.46l-91.38-53-91.38-53a6.36,6.36,0,0,1-3.46-5.52c0-2.46,1.52-4.74,4.17-6.27l24-13.52a14.9,14.9,0,0,1,7.34-1.86,12,12,0,0,1,6,1.46l91.38,52.95,91.38,52.95a6.39,6.39,0,0,1,3.47,5.52c0,2.45-1.52,4.74-4.18,6.27l-24,13.51A14.83,14.83,0,0,1,269.1,299.43Z"/><path class="cls-8" d="M81.65,180.79l5.44-3c.27-.15,10.36-5.62,10.59-5.49l7.72-3.67c1.9-1.09,4.77-1.4,7.18-1.4a12.8,12.8,0,0,1,5.9,1.56l82.81,48,7.19,4.17,90,52.19a7.16,7.16,0,0,1,3.48,4.44,8,8,0,0,1,.11.84c.15,2.37-1.26,4.65-3.91,6.18l-5.44,3c-.27.16-10.37,5.63-10.6,5.49l-7.72,3.67c-1.89,1.1-4.76,1.41-7.17,1.41a12.68,12.68,0,0,1-5.9-1.57l-82.81-48-7.2-4.17-90-52.18a7.16,7.16,0,0,1-3.48-4.44,7.9,7.9,0,0,1-.12-.85C77.58,184.61,79,182.33,81.65,180.79Z"/><path class="cls-9" d="M82.3,181.31l5.37-3c.54-.3,10.06-5.25,10.52-5l7.6-2.93c1.7-1,4.84-.94,7-.94a13.52,13.52,0,0,1,5.77,1.67l81.54,47.3,7.09,4.11L295.83,274a7.94,7.94,0,0,1,3.56,4.24c.06.27.13.53.17.81.3,2.28-1,4.55-3.66,6.08l-5.37,3c-.53.31-10.06,5.25-10.52,5l-7.6,2.92c-1.7,1-4.83.94-7,.94a13.52,13.52,0,0,1-5.77-1.67L178.1,248,171,243.86,82.37,192.45a7.92,7.92,0,0,1-3.56-4.25c-.06-.26-.13-.53-.17-.8C78.34,185.12,79.65,182.84,82.3,181.31Z"/><path class="cls-10" d="M83,181.83l5.31-2.89c.79-.46,9.75-4.87,10.44-4.48l7.47-2.17c1.52-.88,4.92-.49,6.84-.49a14.62,14.62,0,0,1,5.63,1.78l80.28,46.59,7,4.05,87.28,50.65c1.39.8,3.28,2.71,3.64,4.05.06.25.16.5.21.76.47,2.2-.74,4.46-3.39,6l-5.31,2.89c-.79.46-9.75,4.88-10.44,4.48l-7.48,2.18c-1.51.87-4.91.48-6.84.48a14.62,14.62,0,0,1-5.62-1.78l-80.28-46.59-7-4.05L83.41,192.64c-1.39-.8-3.28-2.72-3.64-4-.07-.26-.16-.51-.22-.76C79.09,185.63,80.3,183.36,83,181.83Z"/><path class="cls-11" d="M83.6,182.34l5.24-2.81c1.06-.62,9.45-4.5,10.37-4l7.35-1.43c1.32-.77,5,0,6.67,0a15.86,15.86,0,0,1,5.49,1.88l79,45.88,6.86,4,85.91,49.87c1.21.71,3.36,2.71,3.71,3.86.08.25.2.47.27.72.62,2.12-.49,4.37-3.14,5.9L286.11,289c-1.06.62-9.45,4.5-10.37,4l-7.35,1.43c-1.32.77-5,0-6.67,0a15.93,15.93,0,0,1-5.49-1.88l-79-45.88-6.87-4-85.9-49.87c-1.22-.71-3.36-2.71-3.72-3.86-.08-.25-.2-.48-.27-.72C79.84,186.13,81,183.88,83.6,182.34Z"/><path class="cls-12" d="M84.25,182.86l5.17-2.75c1.33-.76,9.15-4.12,10.3-3.46l7.22-.68c1.14-.66,5.07.44,6.51.44,1.26,0,4.45,1.47,5.35,2l77.75,45.17,6.75,3.92,84.54,49.11c1,.6,3.64,2.64,3.8,3.66a4.66,4.66,0,0,1,.32.68c.78,2-.23,4.28-2.88,5.82l-5.17,2.74c-1.33.77-9.15,4.13-10.3,3.46l-7.23.69c-1.13.66-5.06-.44-6.5-.44-1.26,0-4.45-1.47-5.35-2l-77.76-45.17L170,242.13,85.49,193c-1-.6-3.64-2.63-3.8-3.66a4.56,4.56,0,0,1-.32-.67C80.59,186.64,81.6,184.39,84.25,182.86Z"/><path class="cls-13" d="M84.9,183.38,90,180.7c1.59-.92,8.85-3.75,10.23-2.95l7.1.06c1-.55,5.14.9,6.34.9,1,0,4.46,1.66,5.21,2.1l76.49,44.46,6.64,3.86,83.17,48.34c.87.5,3.74,2.61,3.87,3.47a3.7,3.7,0,0,1,.37.63c.95,1.95,0,4.19-2.62,5.73L281.7,290c-1.59.92-8.85,3.75-10.23,3l-7.1-.06c-.94.55-5.13-.91-6.34-.91-1,0-4.45-1.66-5.2-2.09l-76.5-44.46-6.64-3.86L86.53,193.2c-.87-.5-3.75-2.61-3.88-3.46a4.6,4.6,0,0,1-.37-.64C81.33,187.15,82.25,184.91,84.9,183.38Z"/><path class="cls-14" d="M85.55,183.89l5-2.6c1.86-1.07,8.55-3.37,10.16-2.44l7,.8c.76-.44,5.22,1.36,6.18,1.36s4.47,1.86,5.07,2.21L194.19,227l6.52,3.8,81.8,47.57c.7.4,3.85,2.59,4,3.27a4.56,4.56,0,0,1,.42.59c1.12,1.87.29,4.11-2.37,5.64l-5,2.61c-1.85,1.07-8.54,3.37-10.15,2.44l-7-.8c-.75.43-5.21-1.37-6.17-1.37s-4.47-1.86-5.07-2.2l-75.23-43.76L169.36,241l-81.8-47.58c-.69-.4-3.85-2.59-4-3.27a4.56,4.56,0,0,1-.42-.59C82.07,187.66,82.9,185.43,85.55,183.89Z"/><path class="cls-15" d="M86.2,184.41l5-2.54c2.12-1.22,8.24-3,10.08-1.93l6.85,1.55c.57-.33,5.29,1.82,6,1.82s4.48,2.05,4.93,2.31l74,43,6.42,3.73,80.43,46.81c.52.3,4,2.56,4,3.08a3.43,3.43,0,0,1,.47.55c1.3,1.78.55,4-2.1,5.54l-5,2.54c-2.13,1.22-8.24,3-10.08,1.93l-6.86-1.55c-.56.33-5.28-1.82-6-1.82s-4.47-2.05-4.92-2.31l-74-43.05L169,240.39,88.6,193.58c-.52-.3-3.95-2.56-4-3.08a4,4,0,0,1-.47-.55C82.8,188.17,83.55,185.94,86.2,184.41Z"/><path class="cls-16" d="M86.85,184.93l4.9-2.47c2.39-1.38,7.94-2.62,10-1.42l6.73,2.29c.38-.22,5.37,2.29,5.85,2.29a46.61,46.61,0,0,1,4.79,2.41l72.7,42.34,6.3,3.67,79.07,46c.34.2,4.06,2.54,4.11,2.88a3.6,3.6,0,0,1,.52.51c1.47,1.69.81,3.92-1.85,5.45l-4.89,2.47c-2.39,1.37-7.94,2.62-10,1.42l-6.73-2.29c-.38.22-5.36-2.29-5.84-2.29a44.74,44.74,0,0,1-4.79-2.42L175,243.48l-6.31-3.67-79.06-46c-.35-.2-4.06-2.54-4.11-2.88a4.2,4.2,0,0,1-.52-.51C83.54,188.69,84.2,186.46,86.85,184.93Z"/><path class="cls-17" d="M87.5,185.45l4.83-2.4c2.65-1.53,7.64-2.24,9.93-.92l6.61,3c.19-.11,5.44,2.75,5.68,2.75s4.5,2.43,4.65,2.52l71.44,41.63,6.19,3.61L274.52,281c.18.1,4.17,2.51,4.2,2.68a4.48,4.48,0,0,1,.56.47c1.66,1.59,1.07,3.83-1.58,5.36l-4.83,2.4c-2.65,1.53-7.63,2.24-9.93.91l-6.61-3c-.19.11-5.43-2.75-5.67-2.75s-4.5-2.44-4.65-2.53l-71.44-41.62-6.2-3.61L90.68,194c-.17-.1-4.17-2.52-4.19-2.69a4.57,4.57,0,0,1-.57-.46C84.27,189.21,84.85,187,87.5,185.45Z"/><path d="M260.81,292.74,174.13,242.2,87.45,191.65c-2.53-1.45-2.21-4,.7-5.69l4.76-2.32c2.92-1.69,7.33-1.87,9.86-.41l86.68,50.54,86.68,50.54c2.53,1.46,2.21,4-.71,5.69l-4.75,2.33C267.75,294,263.33,294.2,260.81,292.74Z"/></g><path class="cls-18" d="M266.59,287.56,99,190.42c-6.57-3.79-11.89-14-11.89-22.72V12.7c0-4.45-3.66-5.43-1.44-7,.08-.06,5.19-2.39,5.29-2.42a8.57,8.57,0,0,1,8,.47l167.64,97.14c6.56,3.79,11.89,14,11.89,22.71v155c0,4.65-1.51,8-3.9,9.48-.14.09-6.3,3-6.46,3.07C266,291.84,269.46,289.22,266.59,287.56Z"/><path class="cls-19" d="M272.92,132.91l5.56-1.64v-7.7c0-8.75-5.33-18.92-11.89-22.71L99,3.72a8.57,8.57,0,0,0-8-.47c-.1,0-5.21,2.36-5.29,2.42-2.22,1.6,1.44,2.58,1.44,7V25.2Z"/><path class="cls-20" d="M261,290.19,93.39,193c-6.56-3.79-11.89-14-11.89-22.71v-155c0-8.76,5.33-12.78,11.89-9L261,103.49c6.57,3.79,11.89,14,11.89,22.71v155C272.92,290,267.6,294,261,290.19Z"/><path class="cls-21" d="M261,103.49,93.39,6.34c-6.56-3.79-11.89.23-11.89,9V22L272.92,132.91V126.2C272.92,117.45,267.6,107.28,261,103.49Z"/><path class="cls-22" d="M262.07,102.93,94.43,5.78C91.27,4,88.41,4,86.28,5.41c2-.84,4.44-.61,7.11.93L261,103.49c6.57,3.79,11.89,14,11.89,22.71v155c0,4.55-1.44,7.8-3.74,9.37,2.89-1.22,4.77-4.73,4.77-9.93v-155C274,116.89,268.63,106.72,262.07,102.93Z"/><path class="cls-23" d="M109.92,26.85c0,1.47-1,2.06-2.32,1.32a5.11,5.11,0,0,1-2.32-4c0-1.47,1-2.06,2.32-1.32A5.11,5.11,0,0,1,109.92,26.85Z"/><path class="cls-23" d="M102.92,22.79c0,1.47-1,2.06-2.32,1.32a5.11,5.11,0,0,1-2.32-4c0-1.47,1-2.06,2.32-1.33A5.13,5.13,0,0,1,102.92,22.79Z"/><path class="cls-23" d="M95.93,18.72c0,1.47-1,2.06-2.32,1.32a5.11,5.11,0,0,1-2.32-4c0-1.47,1-2.06,2.32-1.32A5.11,5.11,0,0,1,95.93,18.72Z"/><g class="cls-24"><path class="cls-25" d="M183.35,113.76c-5.68-3.28-10.27-.66-10.27,5.85v80.84c0,6.51,4.59,14.44,10.27,17.71L233,246.9c5.67,3.27,12.54.29,12.54-6.22V159.85c0-6.51-6.87-14.08-12.54-17.36Z"/><path class="cls-26" d="M182.08,113.92c-5.72-3.3-10.36-.66-10.36,5.9V201c0,6.56,4.64,14.56,10.36,17.86l50,28.9c5.72,3.3,12.42.33,12.42-6.24V160.35c0-6.56-6.7-14.23-12.42-17.54Z"/><path class="cls-27" d="M180.81,114.08c-5.76-3.33-10.44-.66-10.44,6v81.49c0,6.62,4.68,14.68,10.44,18l50.25,29.05c5.76,3.33,12.3.37,12.3-6.24v-81.5c0-6.61-6.54-14.38-12.3-17.71Z"/><path class="cls-28" d="M179.55,114.25c-5.82-3.36-10.53-.67-10.53,6v81.82c0,6.67,4.71,14.8,10.53,18.16l50.52,29.21c5.81,3.36,12.18.41,12.18-6.26V161.35c0-6.67-6.37-14.53-12.18-17.89Z"/><path class="cls-29" d="M178.28,114.41c-5.86-3.38-10.61-.67-10.61,6v82.15c0,6.73,4.75,14.92,10.61,18.3l50.8,29.38c5.86,3.38,12.06.44,12.06-6.28V161.86c0-6.73-6.2-14.69-12.06-18.08Z"/><path class="cls-30" d="M177,114.58c-5.9-3.42-10.69-.69-10.69,6.09v82.48c0,6.78,4.79,15,10.69,18.45l51.08,29.53c5.91,3.41,11.94.49,11.94-6.29V162.36c0-6.78-6-14.84-11.94-18.25Z"/><path class="cls-31" d="M175.75,114.74c-6-3.44-10.79-.69-10.79,6.15v82.8c0,6.84,4.83,15.16,10.79,18.6L227.1,252c6,3.44,11.82.52,11.82-6.31V162.86c0-6.83-5.86-15-11.82-18.43Z"/><path class="cls-32" d="M174.48,114.9c-6-3.46-10.87-.69-10.87,6.2v83.13c0,6.89,4.87,15.28,10.87,18.75l51.63,29.85c6,3.46,11.7.56,11.7-6.33V163.37c0-6.89-5.69-15.15-11.7-18.62Z"/><path class="cls-33" d="M173.21,115.07c-6.05-3.5-11-.7-11,6.24v83.46c0,6.94,4.9,15.4,11,18.89l51.92,30c6,3.49,11.57.59,11.57-6.35V163.87c0-6.94-5.53-15.3-11.57-18.79Z"/><path class="cls-34" d="M172,115.23c-6.1-3.52-11-.7-11,6.29v83.79c0,7,4.94,15.52,11,19l52.19,30.17c6.09,3.52,11.45.64,11.45-6.36V164.37c0-7-5.36-15.45-11.45-19Z"/><path class="cls-35" d="M170.68,115.39c-6.14-3.54-11.12-.7-11.12,6.35v84.12c0,7,5,15.63,11.12,19.18l52.47,30.33c6.14,3.55,11.33.67,11.33-6.37V164.88c0-7-5.19-15.61-11.33-19.16Z"/><path class="cls-36" d="M169.41,115.56c-6.19-3.58-11.21-.71-11.21,6.39V206.4c0,7.1,5,15.75,11.21,19.33l52.75,30.49c6.19,3.57,11.21.71,11.21-6.39V165.38c0-7.1-5-15.76-11.21-19.33Z"/></g><path class="cls-37" d="M158.35,104.93V208.6c0,7.13,5,15.82,11.24,19.4l53,30.64c6.21,3.59,11.25.72,11.25-6.41V148.55Z"/><polygon class="cls-38" points="158.35 162.43 158.35 190.3 233.85 233.93 233.85 206.05 158.35 162.43"/><g class="cls-39"><path class="cls-40" d="M65.74,46.4a.63.63,0,0,1-.2-.2.6.6,0,0,1-.08-.28V44.66a.33.33,0,0,1,.08-.26.68.68,0,0,1,.27-.12l3.39-.64-3.39-4.57a3.51,3.51,0,0,1-.27-.41,1,1,0,0,1-.08-.38V37a.23.23,0,0,1,.08-.21.22.22,0,0,1,.2,0,1,1,0,0,1,.28.31l4.75,6.46a2.44,2.44,0,0,1,.32.52,1.12,1.12,0,0,1,.09.44V45a.5.5,0,0,1-.1.33.53.53,0,0,1-.31.14l-4.75,1A.35.35,0,0,1,65.74,46.4Z"/><path class="cls-40" d="M63.58,47.39l-.91-.53a.84.84,0,0,1-.29-.27.89.89,0,0,1-.14-.32l-4.8-15.9a1.37,1.37,0,0,1,0-.19c0-.1,0-.17.08-.2a.21.21,0,0,1,.21,0l.91.52a.9.9,0,0,1,.28.27,1.3,1.3,0,0,1,.17.33L63.83,47a.63.63,0,0,1,0,.19.23.23,0,0,1-.08.2A.21.21,0,0,1,63.58,47.39Z"/><path class="cls-40" d="M55.55,40.52a1.11,1.11,0,0,1-.28-.29l-4.75-6.48a2.63,2.63,0,0,1-.31-.5,1.13,1.13,0,0,1-.1-.44v-.39a.45.45,0,0,1,.1-.33.53.53,0,0,1,.31-.15l4.75-1a.34.34,0,0,1,.28,0,.55.55,0,0,1,.2.2.61.61,0,0,1,.08.3v1.24a.39.39,0,0,1-.08.28.56.56,0,0,1-.27.11l-3.39.65,3.39,4.56a4.54,4.54,0,0,1,.27.42.86.86,0,0,1,.08.36v1.26c0,.09,0,.16-.08.18A.21.21,0,0,1,55.55,40.52Z"/></g><polygon class="cls-41" points="36.65 32.97 36.65 20.68 43.28 30.66 36.65 32.97 36.65 32.97"/><polygon class="cls-42" points="27.61 27.8 27.61 15.51 34.25 25.49 27.61 27.8 27.61 27.8"/><polygon class="cls-43" points="18.57 22.63 18.57 10.34 25.21 20.32 18.57 22.63 18.57 22.63"/><polygon class="cls-44" points="9.54 17.46 9.54 5.17 16.17 15.15 9.54 17.46 9.54 17.46"/><polygon class="cls-2" points="0.5 12.29 0.5 0 7.13 9.98 0.5 12.29 0.5 12.29"/><g class="cls-39"><path class="cls-40" d="M270.19,72.16a11.18,11.18,0,0,1-2.78-3.61,9.48,9.48,0,0,1-.82-3.82V62.4a4.65,4.65,0,0,0-.43-2,3.29,3.29,0,0,0-1.34-1.4V56.67c.6.35,1,.39,1.34.15a2.08,2.08,0,0,0,.43-1.54V53a4.19,4.19,0,0,1,.82-2.86c.56-.6,1.48-.73,2.78-.4l.56,2.13a1,1,0,0,0-1.2.57,4.92,4.92,0,0,0-.35,2.07v2.33a3.39,3.39,0,0,1-.44,1.86,1.5,1.5,0,0,1-1.35.66,7.83,7.83,0,0,1,1.35,2.24,6.83,6.83,0,0,1,.44,2.36v2.33a8.38,8.38,0,0,0,.35,2.47,4.82,4.82,0,0,0,1.2,2Z"/><path class="cls-40" d="M321.21,97.68a1,1,0,0,0,1.2-.57,4.76,4.76,0,0,0,.35-2.07V92.71a3.24,3.24,0,0,1,.46-1.85,1.55,1.55,0,0,1,1.4-.62,7.71,7.71,0,0,1-1.4-2.25,6.81,6.81,0,0,1-.46-2.4V83.26a8,8,0,0,0-.35-2.47,4.66,4.66,0,0,0-1.2-2l.56-1.48a11,11,0,0,1,2.77,3.6,9.17,9.17,0,0,1,.83,3.82V87.1a4.63,4.63,0,0,0,.43,2,3.29,3.29,0,0,0,1.36,1.41v2.31c-.62-.36-1.07-.41-1.36-.15a2,2,0,0,0-.43,1.52v2.33a4.09,4.09,0,0,1-.83,2.86c-.55.6-1.47.73-2.77.41Z"/></g><polygon class="cls-41" points="280.48 59.93 280.48 72.22 273.84 62.24 280.48 59.93 280.48 59.93"/><polygon class="cls-42" points="289.51 65.1 289.51 77.39 282.88 67.41 289.51 65.1 289.51 65.1"/><polygon class="cls-43" points="298.55 70.27 298.55 82.56 291.92 72.58 298.55 70.27 298.55 70.27"/><polygon class="cls-44" points="307.59 75.44 307.59 87.73 300.95 77.75 307.59 75.44 307.59 75.44"/><polygon class="cls-2" points="316.63 80.6 316.63 92.9 309.99 82.92 316.63 80.6 316.63 80.6"/><polygon class="cls-23" points="233.85 148.45 95.66 68.69 95.66 45.5 233.85 125.26 233.85 148.45"/><polygon class="cls-45" points="96.99 67.69 96.99 46.27 95.66 45.5 95.66 68.69 233.85 148.45 233.85 146.68 96.99 67.69"/><path class="cls-46" d="M100.27,52.32l2,1.17.94,12.38,0,0,1-11.26,2.3,1.33,1,12.41,0,0,.94-11.29,1.82,1L109,72.76l-2.63-1.51-1-10.94,0,0-1,9.83-2.8-1.62Z"/><path class="cls-46" d="M111.05,58.54l2,1.17L114,72.09l0,0,1-11.26,2.3,1.33,1,12.41,0,0,.94-11.29,1.82,1.05L119.79,79l-2.62-1.52-1-10.94,0,0-1,9.83-2.8-1.62Z"/><path class="cls-46" d="M121.82,64.76l2,1.17.94,12.38,0,0,1-11.26,2.3,1.33,1,12.41,0,0,.94-11.29,1.82,1-1.36,14.62-2.63-1.52-1-10.94,0,0-1,9.83-2.79-1.62Z"/><path class="cls-43" d="M286.52,193.73l2,1.18.94,12.38,0,0,1-11.26,2.3,1.33,1,12.41,0,0,.94-11.29,1.82,1-1.36,14.61-2.63-1.52-1-10.93,0,0-.95,9.83-2.8-1.62Z"/><path class="cls-43" d="M297.3,200l2,1.18.94,12.38,0,0,1-11.26,2.3,1.33,1,12.41,0,0,.94-11.29,1.82,1L306,220.4l-2.62-1.51-1-10.94,0,0-1,9.83-2.8-1.62Z"/><path class="cls-44" d="M308.07,206.18l2,1.17.94,12.38,0,0,1-11.26,2.3,1.33,1,12.41,0,0,.94-11.29,1.82,1-1.36,14.61-2.63-1.51-1-10.94,0,0-1,9.83-2.79-1.62Z"/><path class="cls-23" d="M185.59,141.85l2,1.17v2.33l-2-1.17Z"/><path class="cls-23" d="M189.75,145.81a6.59,6.59,0,0,1-.8-3.26v-8.27c0-1.2.26-2,.8-2.33s1.3-.24,2.31.34a6,6,0,0,1,2.31,2.32,6.66,6.66,0,0,1,.79,3.26v1.62l-2-1.15v-1.78a2.16,2.16,0,0,0-1.06-2c-.7-.4-1.05-.13-1.05.82V144a2.14,2.14,0,0,0,1.05,2c.71.41,1.06.14,1.06-.8v-2.35l2,1.15v2.18c0,1.2-.26,2-.79,2.33s-1.3.24-2.31-.34A6,6,0,0,1,189.75,145.81Z"/><path class="cls-23" d="M197.14,150.05a6.75,6.75,0,0,1-.83-3.34v-8.09c0-1.23.28-2,.83-2.39s1.34-.23,2.37.36a6.21,6.21,0,0,1,2.38,2.39,6.75,6.75,0,0,1,.82,3.34v8.09c0,1.23-.27,2-.82,2.39s-1.34.23-2.38-.37A6.16,6.16,0,0,1,197.14,150.05Zm3.47-.7v-8.41a2.29,2.29,0,0,0-1.1-2.15c-.73-.42-1.09-.12-1.09.89v8.41a2.26,2.26,0,0,0,1.09,2.14C200.24,150.66,200.61,150.36,200.61,149.35Z"/><path class="cls-23" d="M204.13,139.48l3,1.74,1.35,11.8,0,0,1.35-10.25,3,1.74v15.4l-2-1.15V147.12l0,0-1.53,10.77-1.76-1L206,144.31l0,0v11.66l-1.84-1.06Z"/><path class="cls-23" d="M185.59,169.85l2,1.17v2.33l-2-1.17Z"/><path class="cls-23" d="M189.75,173.79a6.88,6.88,0,0,1-.82-3.34v-8.09c0-1.24.28-2,.82-2.39s1.35-.23,2.38.36a6.21,6.21,0,0,1,2.38,2.39,6.74,6.74,0,0,1,.82,3.33v8.1c0,1.23-.27,2-.82,2.38s-1.34.24-2.38-.36A6.18,6.18,0,0,1,189.75,173.79Zm3.48-.7v-8.41a2.28,2.28,0,0,0-1.1-2.15c-.73-.42-1.09-.12-1.09.89v8.4a2.27,2.27,0,0,0,1.09,2.15C192.86,174.39,193.23,174.1,193.23,173.09Z"/><path class="cls-23" d="M196.75,163.22l3.13,1.81a5.68,5.68,0,0,1,3.12,5.34v.95c0,1.6-.46,2.34-1.38,2.24v0a4,4,0,0,1,1.09,1.7,7.9,7.9,0,0,1,.31,2.36v2.71c0,.44,0,.8,0,1.09a4.62,4.62,0,0,0,.19.91l-2.15-1.24a7.18,7.18,0,0,1-.15-.79c0-.23,0-.64,0-1.21v-2.82a3.82,3.82,0,0,0-.29-1.64,2.51,2.51,0,0,0-1-1l-.73-.42v6.6l-2.11-1.22Zm2.88,8.26c.42.24.74.3,1,.18s.31-.49.31-1.08V169.4a3,3,0,0,0-.26-1.36,2,2,0,0,0-.81-.85l-1-.55V171Z"/><path class="cls-23" d="M205.13,182.68a6.79,6.79,0,0,1-.8-3.34v-8.1c0-1.24.26-2,.8-2.4s1.32-.24,2.34.35a6.07,6.07,0,0,1,2.34,2.35,6.79,6.79,0,0,1,.8,3.34v1.32l-2-1.16v-1.47a2.28,2.28,0,0,0-1.09-2.15c-.73-.42-1.1-.12-1.1.89v8.43a2.25,2.25,0,0,0,1.1,2.12c.73.42,1.09.13,1.09-.86v-3l-1.05-.61v-2.2l3,1.76v5c0,1.25-.26,2.05-.8,2.41s-1.32.24-2.34-.35A6.14,6.14,0,0,1,205.13,182.68Z"/><path class="cls-23" d="M185.59,197.85l2,1.17v2.33l-2-1.17Z"/><path class="cls-23" d="M189.2,186.86l2.64,1.53,2.06,10.4,0,0v-9.22l1.88,1.09v15.4l-2.16-1.25-2.53-12.71,0,0v11.24l-1.88-1.08Z"/><path class="cls-23" d="M197.38,191.59l5.76,3.32v2.2L199.49,195v4.07l2.9,1.67v2.2l-2.9-1.67V206l3.65,2.11v2.2L197.38,207Z"/><path class="cls-23" d="M206,198.76l-2.2-1.28v-2.2l6.52,3.77v2.2L208.1,200v13.2L206,212Z"/><path class="cls-23" d="M185.59,225.85l2,1.17v2.33l-2-1.17Z"/><path class="cls-23" d="M189.2,214.86l3.18,1.84a5.66,5.66,0,0,1,3.13,5.34v.62a3.51,3.51,0,0,1-.34,1.74,1,1,0,0,1-1,.49v0a5.48,5.48,0,0,1,1.58,4.12v1.32c0,1.19-.27,1.94-.82,2.25s-1.34.16-2.38-.45l-3.32-1.91Zm2.93,8c.42.25.74.31,1,.18s.32-.49.32-1.07v-.86a3.11,3.11,0,0,0-.26-1.36,2,2,0,0,0-.82-.85l-1-.58v4.07Zm.39,7.15c.37.22.64.26.82.14s.27-.46.27-1v-1.34a3.52,3.52,0,0,0-.32-1.65,2.66,2.66,0,0,0-1-1l-.94-.54v4.73Z"/><path class="cls-23" d="M196.94,219.33l2.11,1.22V236l-2.11-1.22Z"/><path class="cls-23" d="M200.2,234.46l3.91-8.79-3.72-2.15v-2.2l6,3.46v2.15l-3.91,8.79,3.91,2.26v2.2l-6.18-3.57Z"/><path class="cls-47" d="M252.11,129.56c-8.1-4.68-14.7-.92-14.7,8.38s6.6,20.66,14.7,25.34,14.69.92,14.69-8.38S260.21,134.24,252.11,129.56Z"/><path class="cls-48" d="M266.7,155c0-9.29-6.59-20.66-14.69-25.34-3.28-1.89-6.31-2.4-8.75-1.72-.9.25-19.83,9.41-20.53,9.82-2.61,1.54-4.22,4.78-4.22,9.37,0,9.3,6.59,20.67,14.69,25.35,3.63,2.09,6.94,2.49,9.5,1.46.61-.24,19.18-9.18,19.91-9.64C265.14,162.75,266.7,159.54,266.7,155Z"/><path class="cls-49" d="M250,163.07c0-9.3-6.59-20.67-14.69-25.35-3.28-1.89-6.31-2.4-8.76-1.72a40.11,40.11,0,0,0-4.74,2.08c-2.6,1.54-4.21,4.78-4.21,9.37,0,9.3,6.59,20.67,14.69,25.35,3.62,2.09,6.94,2.49,9.5,1.47.61-.25,3.39-1.45,4.12-1.91C248.45,170.79,250,167.58,250,163.07Z"/><path class="cls-50" d="M221.44,138.93c-2.19,1.86-3.8,4.82-3.71,9.23.18,9.11,6.67,20.08,14.57,24.64,3.82,2.2,7.32,2.55,9.83,1.17a40.33,40.33,0,0,0,3.89-2.33c2.16-1.83,3.69-4.81,3.6-9.15-.19-9.11-6.67-20.08-14.58-24.65-3.46-2-6.66-2.44-9.1-1.48A29.75,29.75,0,0,0,221.44,138.93Z"/><path class="cls-51" d="M221.06,139.79a12.18,12.18,0,0,0-3.21,9.08c.38,8.91,6.74,19.48,14.45,23.93,4,2.32,7.7,2.57,10.17.88a31.85,31.85,0,0,0,3.65-2.76,12,12,0,0,0,3.1-9c-.37-8.92-6.74-19.49-14.45-23.94-3.66-2.11-7-2.48-9.45-1.24A22.17,22.17,0,0,0,221.06,139.79Z"/><path class="cls-52" d="M220.67,140.64c-1.89,1.8-3,4.88-2.7,8.94.57,8.72,6.82,18.89,14.33,23.22,4.21,2.43,8.07,2.58,10.5.58a25,25,0,0,0,3.41-3.18,12.93,12.93,0,0,0,2.62-8.87c-.57-8.72-6.82-18.9-14.34-23.24-3.84-2.22-7.36-2.5-9.8-1C223.66,137.72,221.18,139.47,220.67,140.64Z"/><path class="cls-53" d="M220.29,141.49c-1.66,1.89-2.55,4.92-2.2,8.8.77,8.52,6.9,18.29,14.21,22.51,4.4,2.54,8.43,2.56,10.83.29a21.59,21.59,0,0,0,3.18-3.62,14,14,0,0,0,2.13-8.72c-.77-8.53-6.9-18.31-14.22-22.54-4-2.32-7.71-2.51-10.15-.76C223,138.22,220.74,140.07,220.29,141.49Z"/><path class="cls-54" d="M219.91,142.34c-1.43,2-2.13,5-1.7,8.66,1,8.33,7,17.7,14.09,21.8,4.6,2.65,8.78,2.54,11.17,0a19.41,19.41,0,0,0,2.94-4,15.24,15.24,0,0,0,1.63-8.58c-1-8.34-7-17.72-14.09-21.83-4.22-2.44-8-2.52-10.5-.53C222.33,138.72,220.29,140.67,219.91,142.34Z"/><path class="cls-55" d="M219.52,143.19a13.38,13.38,0,0,0-1.18,8.52c1.17,8.14,7,17.1,14,21.09,4.79,2.77,9.12,2.52,11.5-.3a17.3,17.3,0,0,0,2.71-4.47,16.63,16.63,0,0,0,1.14-8.44c-1.17-8.15-7.06-17.13-14-21.13-4.4-2.54-8.38-2.52-10.85-.28C221.66,139.23,219.84,141.28,219.52,143.19Z"/><path class="cls-56" d="M219.14,144.05a18.29,18.29,0,0,0-.68,8.37c1.39,7.94,7.13,16.5,13.84,20.38,5,2.88,9.46,2.49,11.83-.6a15.77,15.77,0,0,0,2.47-4.89,18,18,0,0,0,.66-8.3c-1.39-8-7.14-16.54-13.86-20.43-4.59-2.65-8.72-2.51-11.2,0A13.42,13.42,0,0,0,219.14,144.05Z"/><path class="cls-57" d="M218.76,144.9a19.94,19.94,0,0,0-.18,8.23c1.61,7.75,7.21,15.91,13.72,19.67,5.18,3,9.79,2.47,12.17-.9a14.82,14.82,0,0,0,2.23-5.31,19.82,19.82,0,0,0,.16-8.16c-1.6-7.76-7.21-16-13.74-19.72-4.77-2.76-9-2.52-11.54.19A12.92,12.92,0,0,0,218.76,144.9Z"/><path class="cls-58" d="M218.37,145.75a22.1,22.1,0,0,0,.33,8.09c1.84,7.55,7.29,15.31,13.6,19,5.37,3.1,10.12,2.44,12.5-1.19a14.08,14.08,0,0,0,2-5.74,21.93,21.93,0,0,0-.33-8c-1.83-7.57-7.29-15.36-13.62-19-5-2.87-9.38-2.51-11.9.43A12.71,12.71,0,0,0,218.37,145.75Z"/><path class="cls-59" d="M218,146.6a23.9,23.9,0,0,0,.83,8c2.08,7.35,7.36,14.72,13.48,18.25,5.57,3.22,10.44,2.41,12.84-1.49a13.51,13.51,0,0,0,1.76-6.17,23.63,23.63,0,0,0-.82-7.86C244,149.9,238.71,142.5,232.57,139c-5.15-3-9.69-2.5-12.24.67A12.41,12.41,0,0,0,218,146.6Z"/><path class="cls-60" d="M232.3,139.08c-8.1-4.68-14.69-.92-14.69,8.37s6.59,20.67,14.69,25.35,14.7.92,14.7-8.38S240.4,143.75,232.3,139.08Z"/><path class="cls-61" d="M233.13,138.44c-3.13,2.42-1.55,9.72,3.54,16.31s11.76,10,14.89,7.55,1.55-9.73-3.54-16.32S236.27,136,233.13,138.44Z"/><path class="cls-23" d="M239.12,166.14l-2-3.41a2,2,0,0,0-1.62-1.17l-1.22-2.11c1.83-1.72,1.65-5.8-.55-9.6-2.42-4.16-6.33-6.42-8.74-5s-2.41,5.87,0,10c2.21,3.8,5.67,6,8.09,5.3l1.22,2.11a2,2,0,0,0,.21,2l2,3.42c.52.9,1.37,1.39,1.89,1.09l.72-.41C239.64,168,239.64,167,239.12,166.14Zm-6.92-8.84c-1.59.9-4.17-.58-5.76-3.32s-1.59-5.7,0-6.61,4.17.58,5.76,3.33S233.78,156.39,232.2,157.3Z"/><g class="cls-62"><polygon class="cls-63" points="268.33 229.72 218.75 202.13 239.72 254.58 246.64 243.1 271.26 271.02 280.69 262.82 256.08 234.9 268.33 229.72"/></g><g class="cls-64"><polygon class="cls-63" points="246.44 242.31 239.76 253.39 219.68 203.18 267.15 229.59 255.33 234.58 279.36 261.83 270.46 269.56 246.44 242.31"/></g><g class="cls-65"><polygon class="cls-63" points="246.24 241.53 239.81 252.19 220.62 204.22 265.97 229.45 254.59 234.26 278.02 260.84 269.67 268.1 246.24 241.53"/></g><g class="cls-66"><polygon class="cls-63" points="246.03 240.74 239.85 251 221.55 205.26 264.79 229.32 253.84 233.94 276.68 259.85 268.87 266.64 246.03 240.74"/></g><g class="cls-67"><polygon class="cls-63" points="245.83 239.95 239.89 249.81 222.49 206.31 263.6 229.18 253.1 233.62 275.35 258.86 268.07 265.18 245.83 239.95"/></g><g class="cls-68"><polygon class="cls-63" points="245.62 239.16 239.93 248.61 223.43 207.35 262.42 229.05 252.35 233.3 274.01 257.87 267.27 263.72 245.62 239.16"/></g><g class="cls-69"><polygon class="cls-63" points="245.42 238.37 239.97 247.42 224.36 208.4 261.24 228.91 251.61 232.98 272.67 256.87 266.48 262.26 245.42 238.37"/></g><g class="cls-70"><polygon class="cls-63" points="245.22 237.59 240.01 246.22 225.3 209.44 260.06 228.78 250.87 232.66 271.34 255.88 265.68 260.8 245.22 237.59"/></g><g class="cls-71"><polygon class="cls-63" points="245.01 236.8 240.05 245.03 226.24 210.48 258.88 228.64 250.12 232.34 270 254.89 264.88 259.34 245.01 236.8"/></g><g class="cls-72"><polygon class="cls-63" points="244.81 236.01 240.09 243.83 227.17 211.53 257.69 228.51 249.38 232.02 268.67 253.9 264.09 257.88 244.81 236.01"/></g><g class="cls-73"><polygon class="cls-63" points="244.61 235.22 240.14 242.64 228.11 212.57 256.51 228.37 248.63 231.7 267.33 252.91 263.29 256.42 244.61 235.22"/></g><g class="cls-74"><polygon class="cls-63" points="244.4 234.44 240.18 241.44 229.05 213.61 255.33 228.24 247.89 231.38 265.99 251.92 262.49 254.96 244.4 234.44"/></g><path class="cls-75" d="M237.16,247l-7.64,8.37a.71.71,0,0,1-1.22-.35l-9.16-49.39,38.41,32.67a.71.71,0,0,1-.31,1.24l-11,2.25,18.86,32.53-9.11,5.2Z"/><path class="cls-76" d="M246.27,241.76l11-2.25a.71.71,0,0,0,.31-1.24L219.14,205.6l.58,3.12,35.33,30.05a.71.71,0,0,1-.31,1.24l-8.49,1.74a1.82,1.82,0,0,0-1.21,2.7l17.59,30.34-7,4,.41.7,9.11-5.2Z"/><path class="cls-77" d="M221.39,209.48l34,28.88-8,1.65a2.5,2.5,0,0,0-1.66,3.7l17.41,30-6.51,3.71-17.43-30.06a2.53,2.53,0,0,0-1.89-1.23H237a2.51,2.51,0,0,0-1.85.81l-5.65,6.19-8.09-43.67ZM217.65,203l9.65,52.11a1.74,1.74,0,0,0,3,.85l6.68-7.32,18.67,32.2,10.85-6.19-18.67-32.2,9.55-2a1.74,1.74,0,0,0,.77-3L217.65,203Z"/><path class="cls-23" d="M178.76,208.35l-14-8.46v16l14,8Z"/><path class="cls-45" d="M178.76,222.48l-13.38-7.66c0-2.49,0-10.77,0-14.57l-.63-.36v16l14,8Z"/><path class="cls-23" d="M178.76,181l-14-8.46v16l14,8Z"/><path class="cls-45" d="M178.76,195.09l-13.38-7.67c0-2.48,0-10.76,0-14.56l-.63-.36v16l14,8Z"/><path class="cls-46" d="M167.22,182.17l3.52,7.67,6.55-6.88c.23-.24.07-.85-.31-1.19l-2-1.83c-.26-.25-.55-.27-.67-.06l-3.56,6-1.54-3.69a1.08,1.08,0,0,0-.67-.66l-1-.2C167.14,181.25,167,181.67,167.22,182.17Z"/><path class="cls-23" d="M178.76,152.57l-14-8.46v16l14,8Z"/><path class="cls-45" d="M178.76,166.7,165.38,159c0-2.48,0-10.76,0-14.56l-.63-.36v16l14,8Z"/><path class="cls-23" d="M178.76,124.33l-14-8.46v16l14,8Z"/><path class="cls-45" d="M178.76,138.46l-13.38-7.66c0-2.49,0-10.77,0-14.56l-.63-.37v16l14,8Z"/><g class="cls-78"><path class="cls-40" d="M84,76.15C59,61.76,38.72,73.32,38.72,101.94S59,165.56,84,180s45.23,2.83,45.23-25.79S108.89,90.55,84,76.15Zm23.65,30.73a6.14,6.14,0,0,0,.75,2.51s-4.12-1.32-5.19-2.42.85-1.87.85-1.87-2.63-1.69-2.77-1.2,1.28,1.72,1.28,1.72a2,2,0,0,1-1.07-.29c-.56-.33-3-2.46-3.12-3.11a8.41,8.41,0,0,0-1.49-2.12,10.36,10.36,0,0,0,1-.88c.14-.2.35-.24.14-.49s-2.06-1.14-2.06-1.43.88-.22.74-.55-2.2-1.35-2.34-1.15-.57.82-.82.79-.6-.79-1-.67.53,1.16.57,1.43-.07,1,.14,1.26,1.53.64,1.49,1.07-.42.65,0,1.34,1.5,1.48,1.35,1.68-1.24-.15-1.31.38a1.54,1.54,0,0,1-.57.9L95.41,105s-2.09,0-1.77.4a18.39,18.39,0,0,0,3.23,1.63c.57.28,3.7,2.17,4.16,1.78s1-2.4,1.77-1.37-1.49,2.44-3,1.92A28,28,0,0,1,97,108.15c-.17,0,.64,1-.14.69s-2.34-.86-2.49-.66,3.52,3.17,3.81,5.17.42,3.3-.89,2.46-4.91-3.07-5.58-3.5-1.49-.78-1.56-.33.53,2.06.35,2.85a20.3,20.3,0,0,0-.71,2.2c0,.43.64.7.57,1.43s-.14,1.22-.14,1.22.46.23,1.1.51A2.71,2.71,0,0,1,93,121.71a1.2,1.2,0,0,0,1.28,1c.54,0,2.35,1.23,3,1.13a5.38,5.38,0,0,1,1.67,0c.25.06.93-.53,1-.81s-.64-1.27.17-1.69,3.17.11,3.13-.4-.6-1.61.53-1.44,2.77,2.25,3,2.17,1.28,0,1.56-.08,1.07-.73,2.06,1.15,1.88,4,3.13,5.07,1.81,1.37,2.17,2.14.71.9.92,1.35.53,1.21.39,1.37-.11.51-.57.45-2.06-1.19-2.63-1.4-.85-.29-.71,0,1.39,1.45,1.88,2.11a4.65,4.65,0,0,0,1,1l.18-.43s-.32-.72-.14-.82a.69.69,0,0,1,.82.07c.25.26.64-.08.64-.2s.35-.29.53-.23.46-.14.18-.5-.59-.65-.54-1,.15-.67.59-.21a5.16,5.16,0,0,1,.89,1.17c.1.24.51.23.42-.08a2.53,2.53,0,0,0-.81-1.31,5.83,5.83,0,0,1-1.42-1.64c-.09-.31.3-.37-.45-.8a5.27,5.27,0,0,1-2-2.37,3.09,3.09,0,0,0-.71-1.41c-.41-.54-1-1.61-.57-1.84s1.14.9,1.94,2.06,2.61,2.89,3,3.45h0a73.32,73.32,0,0,1,3.4,14.37.4.4,0,0,0-.11,0c-1.18.35-.78.86-.75,1.31s-.18,1.34-.87.59a20,20,0,0,0-2.63-2.74,3.19,3.19,0,0,1-1.28-1.82,5.48,5.48,0,0,0-2.18-2.17,3,3,0,0,1-1.69-1.33c-.6-.91-1.3-1.89-1.21-2.06s1.32.66,1.37.26-.62-.64-.8-1.11a5.65,5.65,0,0,0-.48-.87c-.18-.35-.32-.65-.07-.73s.5-.33.41-.48-.61,0-.77-.32a1.63,1.63,0,0,0-.87-1h0c.1-.14.13-.28-.19-.5-.64-.43-.91-.34-.91-.15a1.84,1.84,0,0,0,.13.43,1.67,1.67,0,0,1-.67-.4,4.36,4.36,0,0,0-1.51-.89c-.61-.31-.71.06-1.12-.18a15.26,15.26,0,0,0-2.83-1.77,16.6,16.6,0,0,0-4.24-1c-.55.13-.94.15-1.69-.6s-1.79-.67-2.08-1.16-.82-1.29-.82-1.29l-.71-.06a2.23,2.23,0,0,1-2.13,1.37c-1.7.08-1.7,1.3-1.84,2.36s1.23,2.66-.4,2.45-2.28,2.11-3.2,2.23-3.2,2.31-2.42,4.15,1.35,3.79.57,5.79-1.42,4.89,3.27,11.43,4.38,7.67,4.38,7.67A5.5,5.5,0,0,1,96.05,162c1.85,1.88,4.69,1.73,6.11,2.22s3.13,3,3.56,4.09,4.26.59,4,4.09a28.39,28.39,0,0,1-.54,3.59c-6.74,2.82-15.49,1.87-25.08-3.63.55-.52,1.28-.92,1.94-1.54,1.23-1.12.7-2.62.21-4.25s-.78-.88-1.8-2.5-2-3.27-3.43-4.09-3.32-3.7-3.81-4.47a16.48,16.48,0,0,1-2.29-4.13c-.49-1.69-3.1-5.52-3.68-6.5s-2.24-1.24-4.29-4.21-.41-2.45-2.82-4.33-3.15-1.87-4.46-2.79-2.12-2.95-3.18-3.57-3.44.83-4,1.06-.65-.1-1.59-1.4a1.53,1.53,0,0,0-1-.7c-.74-2-1.38-4.1-1.94-6.15a6,6,0,0,0,.45-1.21c0-.51-.37-.78-1.08-1.1a62.94,62.94,0,0,1-1.87-14.65c0-.24,0-.47,0-.71a30,30,0,0,1,1.41,2.84c1.06,2.34.28,3.62.28,3.62s1.8,1.2,2.54.49-.57-5.79-.25-6.84,4.09-.94,4.42-1.45-.21-2.17.69-4,3.23.29,3.44.41,0-.73-.37-1.72.25-1.27.9-1.32a29.38,29.38,0,0,1,3.11.23A1.12,1.12,0,0,0,61,98.57c0,1,.9.42,2,.37a24,24,0,0,1,3.1.23L65.62,98a6,6,0,0,1-2.08-1c-.94-.76-1-1.43-1.23-2.82s-4.13-1.79-4.13-1.79a6.68,6.68,0,0,1,2.17-.69c.94,0,4.74,2.57,5.44,2.92s1.47-.61,2.57,0,1.31-.38,1.11-1.26-1.88-2.54-4-5.61a29.44,29.44,0,0,1-3.31-6.61,3.34,3.34,0,0,1-1.35,1.17c-.61.17-1.41-.57-2.17-2,6.78-2.9,15.62-2,25.32,3.64C92.87,89,101.06,97.25,107.6,106.88Z"/><path class="cls-40" d="M89,105.93c-.26.15-.74-.37-.42.55s2.29,1.26,3.09,1.66,1.76.41,1.76-.08,0-1.29.16-1.38,0-1.1-.48-1.56-2.19-1.63-2.51-1.51-.48.58-1,.25-1.76-.78-1.28.3S89.28,105.78,89,105.93Z"/><path class="cls-40" d="M78.46,86.45C80.7,88,85,89,85.07,88.06s-.21-2.08-2.4-2.91-3-.87-4.21-1.76-3.2-3.13-4.48-2.58C73.05,81.21,76.22,84.91,78.46,86.45Z"/></g><g class="cls-39"><path class="cls-40" d="M61.2,126.8c0,1.49-1.05,2.09-2.35,1.34a5.17,5.17,0,0,1-2.36-4.06c0-1.5,1-2.1,2.36-1.35A5.19,5.19,0,0,1,61.2,126.8Z"/><path class="cls-44" d="M57.67,103.11l-.39-.2v2.71c.13.07.26.12.39.2,9.75,5.63,17.68,19.31,17.68,30.5v.09l2.36,1.36v-.09C77.71,125,68.72,109.49,57.67,103.11Z"/><path class="cls-42" d="M57.67,113.93c-.13-.07-.26-.1-.39-.17v2.7c.13.07.26.1.39.18,4.55,2.63,8.25,9,8.25,14.24,0,0,0,.05,0,.08l2.36,1.36s0,0,0-.08C68.28,125.52,63.52,117.31,57.67,113.93Z"/><path class="cls-43" d="M57.67,108.52l-.39-.2V111c.13.07.26.12.39.2,7.15,4.13,13,14.16,13,22.37,0,0,0,.06,0,.09L73,135.05V135C73,125.26,66.12,113.4,57.67,108.52Z"/></g><path class="cls-2" d="M326.38,126.53l-.1-.06v-3a6.6,6.6,0,0,0-3-5.16l-2.06-1.19c-1.65-1-3-.19-3,1.71v3l-.11-.06c-.77-.45-1.39-.09-1.39.79v7.35a3.07,3.07,0,0,0,1.39,2.4l8.26,4.77c.77.44,1.39.08,1.39-.8v-7.34A3.06,3.06,0,0,0,326.38,126.53Zm-3.61,4.05v1.74l-1-.6V130a2.64,2.64,0,0,1-.7-1.66c0-.77.54-1.08,1.21-.69a2.65,2.65,0,0,1,1.21,2.09C323.46,130.28,323.18,130.6,322.77,130.58Zm1.77-5.12L320,122.82v-2.37c0-1.08.76-1.51,1.7-1l1.18.68a3.75,3.75,0,0,1,1.7,2.93Z"/><path class="cls-2" d="M16.18,90.55,5.06,84.13,4.4,81.62A1.1,1.1,0,0,0,3.92,81L.51,79c-.28-.16-.51,0-.51.29a1.11,1.11,0,0,0,.51.87l3.05,1.77L7.34,96.33a1.18,1.18,0,0,0,.48.66l1.09.63a.61.61,0,0,0-.12,0c-.52.29-.52,1.27,0,2.17s1.37,1.39,1.89,1.09.52-1.27,0-2.17l-.12-.19,2.36,1.37-.13,0c-.52.3-.52,1.27,0,2.17s1.37,1.39,1.9,1.09.52-1.27,0-2.17l-.13-.18.51.29c.28.16.5,0,.5-.29a1.1,1.1,0,0,0-.5-.88L8.18,96l-.77-2.94,8,4.63c.74.43,1.38.2,1.53-.53l.75-3.59A3.29,3.29,0,0,0,16.18,90.55Z"/></g></g></g></svg>