<svg xmlns="http://www.w3.org/2000/svg" viewBox="0 0 439.08 356.2"><defs><style>.cls-1{opacity:0.2;}.cls-2,.cls-3{fill:#ff6363;}.cls-3{opacity:0.7;}.cls-14,.cls-4,.cls-9{fill:none;}.cls-4,.cls-5,.cls-9{stroke:#202040;}.cls-11,.cls-14,.cls-4,.cls-5{stroke-linecap:round;stroke-linejoin:round;}.cls-10,.cls-11,.cls-13,.cls-14,.cls-4,.cls-5,.cls-7,.cls-9{stroke-width:1.1px;}.cls-14,.cls-4{stroke-dasharray:4.41;}.cls-11,.cls-13,.cls-5,.cls-6{fill:#fff;}.cls-12,.cls-7{fill:#543864;}.cls-10,.cls-11,.cls-14,.cls-7{stroke:#263238;}.cls-10,.cls-13,.cls-7,.cls-9{stroke-miterlimit:10;}.cls-8{fill:#202040;}.cls-10{fill:#542664;}.cls-13{stroke:#222221;}</style></defs><g id="Layer_2" data-name="Layer 2"><g id="Background_Simple" data-name="Background Simple"><g class="cls-1"><path class="cls-2" d="M426.09,166.71c-48.75-83.47-180.95-53.74-208-94.34-13.82-20.79-29.29-44.89-51.73-57.43C145,3,120.21-1.27,98.59.32,21.38,6-11.35,75.05,3.48,150.91,23.27,252.1,113,355.47,219.55,356.19c55.73.38,108.94-19.54,150.69-47.71l.93-.63C412.87,279.46,463.3,230.45,426.09,166.71Z"/><path class="cls-3" d="M426.09,166.71c-48.75-83.47-180.95-53.74-208-94.34-13.82-20.79-29.29-44.89-51.73-57.43C145,3,120.21-1.27,98.59.32,21.38,6-11.35,75.05,3.48,150.91,23.27,252.1,113,355.47,219.55,356.19c55.73.38,108.94-19.54,150.69-47.71l.93-.63C412.87,279.46,463.3,230.45,426.09,166.71Z"/></g></g><g id="Lines"><path class="cls-4" d="M47.73,172.79H42.31a21.93,21.93,0,0,0-21.93,21.93V315.06A21.93,21.93,0,0,0,42.31,337h74.36a21.93,21.93,0,0,0,21.93-21.93h0"/><path class="cls-4" d="M132.5,59.24V35.47A13.44,13.44,0,0,1,145.93,22h96.71a13.44,13.44,0,0,1,13.43,13.44h0"/></g><g id="Window"><path class="cls-5" d="M400.08,91.13V271.19a22.2,22.2,0,0,1-22.2,22.2H61.19A22.2,22.2,0,0,1,39,271.19V91.13q0-.8.06-1.56A22.2,22.2,0,0,1,61.19,68.93H377.88A22.19,22.19,0,0,1,400,89.57C400.06,90.08,400.08,90.6,400.08,91.13Z"/><path class="cls-6" d="M49.8,97.89H390.41a0,0,0,0,1,0,0V264.22a20.8,20.8,0,0,1-20.8,20.8H70.6a20.8,20.8,0,0,1-20.8-20.8V97.89a0,0,0,0,1,0,0Z"/><path class="cls-7" d="M400,89.57H39.06A22.2,22.2,0,0,1,61.19,68.93H377.88A22.19,22.19,0,0,1,400,89.57Z"/><path class="cls-8" d="M83.42,79.25a3.93,3.93,0,1,1-3.93-3.93A3.93,3.93,0,0,1,83.42,79.25Z"/><path class="cls-8" d="M100,79.25a3.93,3.93,0,1,1-3.93-3.93A3.93,3.93,0,0,1,100,79.25Z"/><circle class="cls-8" cx="112.73" cy="79.25" r="3.93"/><path class="cls-9" d="M390.41,97.89V264.22A20.81,20.81,0,0,1,369.6,285H70.6a20.8,20.8,0,0,1-20.4-16.77h0v0a21,21,0,0,1-.39-4V97.89Z"/><path class="cls-8" d="M390.09,123.62a21,21,0,0,0-4.63-1.91l-1.86-8.35h-7.94l-1.86,8.35a20.36,20.36,0,0,0-4.63,1.91L362,119l-5.61,5.61,4.51,7.17a20.35,20.35,0,0,0-1.91,4.64l-8.35,1.85v7.94l8.35,1.87a20.14,20.14,0,0,0,1.91,4.66L356.31,160l5.61,5.61,7.22-4.59a20.2,20.2,0,0,0,4.63,1.92l1.85,8.34h7.95l1.86-8.34a20.78,20.78,0,0,0,4.62-1.92l.37.23V123.41Zm-10.44,28.95a10.26,10.26,0,1,1,10.26-10.26A10.26,10.26,0,0,1,379.65,152.57Z"/><path class="cls-8" d="M247,131.66V114.92L229.38,111a45.48,45.48,0,0,0-4-9.77l2.13-3.36h-83.1l2.05,3.27a43,43,0,0,0-4,9.76l-17.61,3.92v16.74l17.61,3.93a43.65,43.65,0,0,0,4,9.84l-9.67,15.21,11.84,11.84,15.2-9.68a44.46,44.46,0,0,0,9.78,4l3.9,17.59h16.75l3.94-17.59a45.34,45.34,0,0,0,9.74-4l15.21,9.68L235,160.55l-9.6-15.21a45.84,45.84,0,0,0,4-9.75Zm-61,13.26a21.63,21.63,0,1,1,21.63-21.63A21.63,21.63,0,0,1,186,144.92Z"/><path class="cls-8" d="M135.92,246.64l.71-13.28-13.77-3.88a37.77,37.77,0,0,0-2.82-7.9l8.32-11.68-8.92-9.9L107,207.05a37.28,37.28,0,0,0-7.59-3.63L97,189.3l-13.28-.7-3.84,13.81a35.14,35.14,0,0,0-7.89,2.8l-11.67-8.32-9.91,8.92,7.06,12.47a34.56,34.56,0,0,0-3.64,7.58l-4,.66v18l2.93.82a34.13,34.13,0,0,0,2.82,7.92l-5.75,8,.39,6.9v0h0l5.92,6.58,12.49-7.05a34.44,34.44,0,0,0,7.61,3.67L78.49,285h0l.12.56,13.28.71.35-1.27h0l3.49-12.53a36.22,36.22,0,0,0,7.94-2.8l11.65,8.3,9.9-8.9-7-12.49a34.27,34.27,0,0,0,3.6-7.56Zm-35.27-20.75a17.2,17.2,0,1,0-1.28,24.28A17.21,17.21,0,0,0,100.65,225.89Z"/><path class="cls-8" d="M242.14,226.8a27.24,27.24,0,0,0,.8-6.29l9.55-5-2.64-9.69-10.77.5a26.89,26.89,0,0,0-3.88-5L238.4,191l-8.71-5L222.41,194a28.12,28.12,0,0,0-6.27-.8l-5-9.56-9.67,2.64.51,10.79a26.91,26.91,0,0,0-5,3.87l-10.32-3.19-5,8.69,8,7.26a26.1,26.1,0,0,0-.79,6.28l-9.57,5,2.64,9.69,10.79-.51a25.44,25.44,0,0,0,3.86,5l-3.21,10.26,8.71,5,7.24-7.88a26.1,26.1,0,0,0,6.28.79l5,9.56,9.67-2.63-.42-9.22-.07-1.58a26.73,26.73,0,0,0,5.06-3.87l10.31,3.2,4.26-7.44.72-1.26Zm-22.87,5.88a13,13,0,1,1,9.09-15.91A13,13,0,0,1,219.27,232.68Z"/><path class="cls-8" d="M352.85,243.84l2.21-13.3-13.46-5.41a35.77,35.77,0,0,0-1.93-8.3L349.36,206l-7.85-11-13.35,5.67a35.38,35.38,0,0,0-7.22-4.48l-.78-14.49-13.31-2.2L301.4,193a37.18,37.18,0,0,0-8.26,1.94l-10.82-9.68-10.95,7.84,5.68,13.35a36.24,36.24,0,0,0-4.05,6.29c-.15.31-.31.61-.45.92l-14.49.81-2.2,13.28,2.18.88,11.28,4.55a34.21,34.21,0,0,0,1.93,8.26l-9.69,10.82,7.84,11,13.36-5.7A35.06,35.06,0,0,0,290,262l.75,14.42,13.29,2.2,5.44-13.3a34.66,34.66,0,0,0,8.28-1.95l10.8,9.7,11-7.85-5.69-13.36a34.82,34.82,0,0,0,4.56-7.25Zm-37.29-.6a17.41,17.41,0,1,1,4-24.29A17.41,17.41,0,0,1,315.56,243.24Z"/></g><g id="Graphics"><rect class="cls-10" x="54.93" y="145.38" width="130.8" height="171.01" rx="13.11"/><path class="cls-11" d="M197.9,171.41V316.2a13.11,13.11,0,0,1-13.12,13.11H80.21A13.1,13.1,0,0,1,67.1,316.2V171.41A13.11,13.11,0,0,1,80.21,158.3H184.78A13.11,13.11,0,0,1,197.9,171.41Z"/><path class="cls-7" d="M197.9,171.41v7.75H67.1v-7.75A13.11,13.11,0,0,1,80.21,158.3H184.78A13.11,13.11,0,0,1,197.9,171.41Z"/><rect class="cls-12" x="79.4" y="188.14" width="32.18" height="5.4"/><rect class="cls-12" x="79.4" y="236.53" width="32.18" height="5.4"/><rect class="cls-12" x="79.4" y="280.41" width="32.18" height="5.4"/><rect class="cls-8" x="79.4" y="201.5" width="91.39" height="3.96"/><rect class="cls-8" x="79.4" y="209.08" width="74.91" height="3.86"/><rect class="cls-8" x="79.4" y="216.53" width="84.72" height="3.86"/><rect class="cls-8" x="79.4" y="223.97" width="84.72" height="3.86"/><rect class="cls-8" x="79.4" y="245.38" width="91.39" height="3.96"/><rect class="cls-8" x="79.4" y="252.96" width="74.91" height="3.86"/><rect class="cls-8" x="79.4" y="260.41" width="84.72" height="3.86"/><rect class="cls-8" x="79.4" y="293.57" width="91.39" height="3.96"/><rect class="cls-8" x="79.4" y="301.15" width="74.91" height="3.86"/><rect class="cls-8" x="79.4" y="308.6" width="84.72" height="3.86"/><path class="cls-13" d="M345.3,57.9v58.52a15.62,15.62,0,0,1-15.63,15.63H194.88a15.63,15.63,0,0,1-15.63-15.63V57.9a15.65,15.65,0,0,1,15.63-15.64H329.67A15.63,15.63,0,0,1,345.3,57.9Z"/><path class="cls-7" d="M345.3,57.9v1.34h-166V57.9a15.65,15.65,0,0,1,15.63-15.64H329.67A15.63,15.63,0,0,1,345.3,57.9Z"/><path class="cls-8" d="M203.65,53.55a2.4,2.4,0,1,1,0-3.39A2.41,2.41,0,0,1,203.65,53.55Z"/><path class="cls-8" d="M214.77,53.55a2.4,2.4,0,1,1,0-3.39A2.41,2.41,0,0,1,214.77,53.55Z"/><path class="cls-8" d="M225.89,53.55a2.4,2.4,0,1,1,0-3.39A2.41,2.41,0,0,1,225.89,53.55Z"/><rect class="cls-14" x="189.84" y="70" width="54.28" height="46.92"/><rect class="cls-8" x="252.49" y="70" width="62.47" height="3.3"/><rect class="cls-8" x="252.49" y="76.83" width="47.92" height="3.29"/><rect class="cls-8" x="252.49" y="83.63" width="71.35" height="3.33"/><rect class="cls-8" x="252.49" y="90.26" width="60.76" height="3.33"/></g></g></svg>