<?xml version="1.0" standalone="no"?>
<!DOCTYPE svg PUBLIC "-//W3C//DTD SVG 20010904//EN"
 "http://www.w3.org/TR/2001/REC-SVG-20010904/DTD/svg10.dtd">
<svg version="1.0" xmlns="http://www.w3.org/2000/svg"
 width="202.000000pt" height="212.000000pt" viewBox="0 0 202.000000 212.000000"
 preserveAspectRatio="xMidYMid meet">
<metadata>
Created by potrace 1.16, written by Peter Selinger 2001-2019
</metadata>
<g transform="translate(0.000000,212.000000) scale(0.100000,-0.100000)"
fill="#000000" stroke="none">
<path d="M0 1059 l0 -1060 133 4 c132 3 169 11 295 63 18 8 42 14 54 14 23 0
73 35 113 78 18 20 25 38 25 69 0 23 -4 44 -9 47 -4 3 -6 17 -4 31 7 33 19 24
28 -21 3 -20 9 -33 12 -30 8 8 34 -44 27 -55 -3 -5 -1 -9 4 -9 5 0 15 -14 22
-30 11 -28 58 -63 85 -65 6 0 9 -8 9 -18 -1 -12 4 -16 20 -13 11 2 15 1 9 -1
-7 -3 -13 -8 -13 -13 0 -5 -7 -6 -17 -3 -11 4 -14 3 -9 -5 4 -7 25 -12 48 -12
35 0 39 2 28 15 -8 9 -9 15 -2 15 6 0 17 -9 25 -20 8 -12 21 -20 28 -18 8 2
13 -2 12 -8 -3 -18 117 -17 159 1 42 17 72 21 48 5 -8 -5 -11 -12 -8 -16 4 -4
15 7 25 24 17 30 44 47 88 54 12 2 19 10 17 20 -2 11 7 18 28 23 18 4 36 16
41 28 31 68 86 147 102 147 4 0 7 -35 7 -79 l0 -79 46 -41 c25 -22 50 -53 55
-68 8 -25 9 -25 5 9 -4 35 -3 36 17 28 12 -5 67 -23 122 -39 88 -28 114 -31
223 -31 l122 0 0 1060 0 1060 -1010 0 -1010 0 0 -1061z m1250 523 c0 -4 12 -8
28 -7 19 0 30 -7 37 -22 5 -13 14 -23 20 -24 18 -1 57 -59 66 -97 4 -20 10
-64 14 -97 3 -33 14 -98 25 -145 40 -179 62 -344 56 -409 -5 -55 -10 -68 -39
-98 -19 -18 -43 -49 -53 -68 -10 -20 -24 -33 -30 -31 -6 2 -17 -1 -24 -7 -9
-9 -11 -1 -6 38 5 37 2 58 -10 80 -9 17 -24 44 -32 60 -28 56 -53 85 -73 85
-10 0 -19 -2 -19 -5 0 -10 26 -62 42 -84 27 -36 22 -48 -19 -53 -27 -3 -42 0
-50 11 -7 9 -13 12 -13 8 0 -5 -13 3 -30 16 -22 19 -38 24 -64 21 -31 -4 -34
-1 -40 26 -3 17 -11 30 -17 30 -7 0 -9 -10 -6 -26 4 -23 2 -25 -23 -19 -30 7
-110 -27 -110 -45 0 -5 -7 -7 -16 -3 -9 3 -13 12 -9 22 4 9 11 43 15 76 10 66
2 86 -32 77 -17 -4 -20 -2 -15 12 5 13 2 17 -11 14 -10 -2 -35 -38 -62 -92
-40 -79 -45 -98 -49 -167 -2 -44 -7 -79 -11 -79 -4 0 -24 24 -45 54 -20 29
-48 58 -61 65 -13 6 -24 14 -24 18 0 5 -7 37 -14 73 -10 45 -11 80 -5 110 4
25 8 47 9 50 1 15 -48 6 -67 -12 -30 -28 -32 -87 -4 -95 22 -6 31 -41 31 -125
0 -41 -4 -58 -12 -56 -22 8 -54 98 -69 193 -6 33 -15 80 -21 105 -26 106 -19
170 20 170 17 0 62 -56 62 -79 0 -6 7 -26 17 -44 15 -29 17 -30 24 -12 4 11 8
14 8 7 1 -7 6 -10 11 -7 8 5 7 11 -1 21 -7 8 -7 14 -1 14 5 0 15 30 22 67 6
37 16 76 22 87 14 25 28 107 17 101 -22 -14 -11 49 11 65 4 3 22 37 40 77 18
40 38 69 43 66 6 -4 8 3 5 15 -6 21 5 28 35 23 4 0 6 5 5 11 -6 26 71 21 131
-8 60 -30 123 -34 151 -9 8 7 52 18 98 25 45 7 82 16 82 21 0 5 7 5 17 2 11
-4 14 -3 9 5 -4 7 -2 12 3 12 6 0 11 -4 11 -8z m356 -486 c3 -8 0 -49 -6 -92
-6 -44 -14 -101 -16 -129 -3 -27 -12 -67 -20 -88 -8 -20 -14 -57 -14 -82 0
-24 -4 -47 -10 -50 -11 -7 -8 160 4 187 5 11 0 35 -14 63 -14 29 -20 55 -16
70 3 14 9 37 12 53 14 60 66 104 80 68z m-419 -479 c4 -5 0 -15 -10 -22 -17
-12 -16 -14 15 -17 l33 -3 -3 -58 c-2 -32 -12 -77 -23 -100 -11 -23 -26 -53
-32 -67 -8 -15 -22 -25 -35 -26 -26 -1 -29 20 -7 42 34 35 8 104 -39 104 -12
0 -31 7 -42 15 -10 8 -28 15 -40 15 -26 0 -84 -28 -84 -41 0 -15 -34 -6 -42
11 -4 8 -7 35 -7 59 -1 40 1 43 22 37 40 -11 207 -19 207 -10 0 5 -24 8 -52 7
-29 -2 -60 0 -68 4 -8 3 -22 7 -30 7 -21 1 -26 46 -6 46 9 0 16 -5 16 -12 0
-9 5 -8 15 2 10 11 39 15 109 15 52 0 98 -4 103 -8z"/>
<path d="M731 1182 c-42 -22 -54 -52 -21 -52 11 0 20 -4 20 -10 0 -5 -4 -10
-8 -10 -13 0 -47 -68 -39 -76 4 -4 15 0 25 9 20 18 57 23 66 8 4 -5 -9 -24
-26 -42 -18 -18 -27 -29 -19 -24 11 6 13 4 8 -7 -9 -26 45 -44 75 -25 12 8 34
18 48 22 66 20 110 68 110 120 0 24 4 27 39 29 33 2 20 27 -26 48 -58 25 -210
32 -252 10z"/>
<path d="M1188 1183 c-48 -3 -58 -7 -64 -26 -4 -13 -2 -23 5 -25 9 -3 9 -7 1
-17 -18 -22 -1 -83 29 -104 49 -35 129 -39 100 -5 -27 33 58 63 89 32 18 -18
24 -4 12 26 -6 18 -25 34 -55 47 -67 30 -67 42 1 35 33 -3 51 -3 42 0 -9 3
-15 11 -12 18 3 9 -8 15 -33 19 -21 4 -42 6 -48 5 -5 -1 -36 -3 -67 -5z"/>
</g>
</svg>
