<?xml version="1.0" standalone="no"?>
<!DOCTYPE svg PUBLIC "-//W3C//DTD SVG 20010904//EN"
 "http://www.w3.org/TR/2001/REC-SVG-20010904/DTD/svg10.dtd">
<svg version="1.0" xmlns="http://www.w3.org/2000/svg"
 width="265.000000pt" height="270.000000pt" viewBox="0 0 265.000000 270.000000"
 preserveAspectRatio="xMidYMid meet">
<metadata>
Created by potrace 1.16, written by Peter Selinger 2001-2019
</metadata>
<g transform="translate(0.000000,270.000000) scale(0.100000,-0.100000)"
fill="#000000" stroke="none">
<path d="M0 2586 l0 -114 30 -7 c31 -7 42 -25 15 -25 -8 0 -15 -7 -15 -16 0
-10 -6 -14 -15 -10 -13 5 -15 -111 -15 -1009 l0 -1014 48 14 c27 8 80 29 117
46 41 18 95 33 135 38 57 6 73 12 113 45 27 22 67 43 98 51 29 8 56 21 61 29
4 7 24 33 43 56 25 30 35 52 35 76 0 19 4 34 8 34 9 0 9 -10 -3 -82 -4 -26
-11 -45 -16 -42 -10 6 -48 -34 -49 -51 0 -19 64 -88 137 -146 78 -62 239 -157
313 -184 25 -10 59 -23 75 -30 133 -58 296 -81 442 -63 113 13 220 79 249 153
9 24 14 54 11 65 -3 13 0 23 9 27 20 7 18 23 -3 23 -12 0 -14 3 -6 11 12 12
76 -5 104 -29 21 -17 96 -25 118 -12 14 8 14 9 -2 10 -14 0 -17 5 -12 20 4 11
2 20 -4 20 -6 0 -11 7 -11 15 0 11 -11 15 -40 15 -27 0 -47 7 -61 21 l-21 21
23 24 c12 13 20 27 17 30 -4 3 8 33 25 67 17 34 30 68 29 74 -4 20 12 15 36
-10 13 -14 22 -36 22 -55 0 -18 8 -40 19 -51 21 -21 36 -64 46 -127 6 -40 -10
-74 -36 -74 -5 0 -9 -4 -9 -9 0 -12 85 -39 183 -57 74 -14 246 -66 322 -98 17
-7 42 -18 58 -24 l27 -12 0 45 0 44 -42 -2 -43 -2 -19 59 c-14 42 -17 65 -10
85 8 23 15 26 62 29 l52 3 0 105 0 104 -26 0 c-17 0 -28 6 -31 19 -2 10 -15
24 -28 31 -37 20 -54 66 -48 132 6 62 17 77 67 93 40 13 66 64 66 129 0 39 -5
52 -24 67 -55 43 -58 139 -6 183 34 28 41 83 14 110 -8 9 -12 16 -8 16 4 0 0
6 -9 13 -9 6 -17 28 -19 47 -3 34 -3 34 -49 32 -26 -2 -50 1 -54 7 -13 23 -23
9 -27 -39 -3 -28 -12 -58 -21 -68 -10 -11 -16 -33 -15 -58 1 -23 -4 -48 -12
-58 -42 -50 -63 -66 -83 -66 -18 0 -19 2 -7 10 13 8 13 10 -1 10 -9 0 -19 9
-22 20 -6 23 -39 39 -45 22 -7 -23 -47 -13 -65 17 -23 40 -23 41 23 41 30 0
40 4 40 16 0 12 -7 15 -25 12 -35 -7 -40 19 -14 78 33 75 57 103 106 126 25
12 48 30 51 40 2 10 8 16 12 13 5 -3 11 4 15 15 3 11 11 20 16 20 14 0 11 48
-4 53 -23 10 30 7 86 -4 30 -6 76 -8 101 -5 l46 7 0 465 0 464 -528 0 c-502 0
-530 -1 -546 -19 -20 -22 -73 -22 -106 2 -21 15 -53 17 -231 17 l-207 0 14
-32 c9 -18 20 -41 25 -51 15 -28 -44 -59 -101 -54 -38 4 -48 1 -67 -19 -12
-14 -22 -35 -20 -47 1 -12 -3 -21 -9 -20 -7 1 -20 -7 -29 -17 -10 -11 -26 -20
-37 -20 -10 0 -18 -7 -18 -15 0 -8 -9 -20 -19 -27 -10 -6 -17 -16 -15 -22 5
-14 -14 -37 -51 -63 -24 -16 -34 -18 -50 -9 -28 15 -35 27 -35 59 0 38 -18 34
-22 -5 -3 -28 -7 -33 -27 -30 -16 1 -22 -2 -18 -11 4 -10 -2 -13 -19 -9 -30 5
-30 16 -3 36 20 14 20 16 5 31 -17 18 -22 30 -7 21 19 -12 19 38 0 65 -10 15
-19 36 -19 47 0 12 -4 24 -10 27 -14 8 13 58 50 94 28 26 46 32 175 60 25 6
-100 9 -342 10 l-383 1 0 -114z m406 -300 c7 -8 18 -16 24 -18 18 -6 23 -64 6
-81 -9 -8 -16 -24 -16 -35 0 -21 -23 -46 -33 -35 -4 3 -7 0 -7 -7 0 -8 -12
-23 -26 -35 l-26 -20 22 -28 c12 -15 25 -25 30 -22 4 3 11 -6 14 -20 4 -14 11
-25 16 -25 6 0 10 -7 10 -15 0 -8 9 -15 20 -15 11 0 23 -7 26 -15 4 -8 15 -15
25 -15 19 0 35 -38 26 -62 -4 -9 -6 -8 -6 3 -1 18 -43 40 -57 31 -6 -4 -16
-23 -24 -42 -20 -51 -50 -78 -50 -46 0 8 -7 16 -15 20 -10 3 -15 19 -15 42 0
36 -1 36 -32 30 -18 -4 -56 -9 -84 -12 -46 -4 -51 -2 -64 20 -7 15 -10 39 -7
60 3 20 2 36 -4 36 -16 0 -10 29 16 70 17 27 33 40 48 40 41 1 54 20 51 78 -2
43 1 52 12 48 10 -4 14 3 14 24 0 27 4 30 41 36 27 5 36 10 27 15 -10 7 -9 9
5 9 10 0 25 -6 33 -14z m1199 -15 c6 -11 135 -10 135 1 0 10 51 4 76 -10 12
-6 35 -27 52 -46 37 -42 134 -241 150 -306 6 -26 12 -173 14 -345 2 -279 1
-302 -17 -335 -10 -19 -18 -44 -16 -55 2 -18 -45 -73 -53 -63 -2 2 -8 12 -14
23 -11 19 -11 19 -12 -5 0 -14 -4 -20 -8 -14 -4 6 -23 10 -42 8 -19 -1 -47 4
-62 12 -30 16 -78 80 -78 105 0 9 -9 24 -20 34 -18 17 -20 17 -20 1 0 -9 -7
-27 -15 -39 -12 -20 -13 -26 0 -50 15 -30 9 -34 -19 -14 -17 13 -17 15 -2 46
9 17 14 35 12 40 -9 15 -57 22 -70 12 -7 -6 -17 -7 -21 -3 -5 4 -6 2 -2 -3 8
-15 -30 -38 -39 -24 -3 6 -12 8 -20 5 -7 -3 -26 7 -41 23 -27 27 -30 27 -98
20 -39 -4 -72 -5 -74 -3 -14 13 19 61 51 76 47 23 54 34 23 42 -32 8 -81 -17
-90 -45 -4 -11 -9 -18 -13 -15 -8 8 -51 -22 -79 -55 -13 -16 -42 -42 -64 -60
-33 -26 -42 -29 -54 -19 -9 7 -18 10 -22 7 -9 -10 -34 14 -27 25 6 10 -28 7
-36 -3 -3 -4 -14 -3 -25 2 l-20 8 20 1 c16 1 14 4 -10 15 -21 10 -25 14 -11
15 15 0 16 3 6 14 -6 8 -17 13 -24 10 -10 -4 -12 2 -9 19 3 14 0 28 -6 31 -6
4 -11 12 -11 17 0 6 5 7 10 4 5 -3 10 -1 10 4 0 15 -13 14 -29 -1 -15 -14 -14
-11 4 34 7 17 -9 20 -33 5 -18 -12 -26 16 -17 60 4 21 9 41 11 45 7 12 44 -15
45 -32 0 -10 3 -8 9 5 5 11 9 14 9 7 1 -9 8 -11 21 -7 11 4 20 2 20 -4 0 -7 8
-7 26 -1 32 13 47 13 39 1 -13 -22 145 -37 219 -21 28 6 71 12 96 14 25 2 51
5 59 7 18 5 49 32 45 40 -2 3 1 21 6 38 6 23 5 39 -3 53 -10 17 -9 22 5 31 15
10 14 12 -5 22 -12 7 -21 16 -20 22 1 6 -11 16 -27 23 -16 7 -35 18 -41 26 -6
8 -20 14 -30 14 -11 0 -19 5 -19 11 0 5 -4 8 -10 4 -5 -3 -40 1 -77 10 -37 9
-79 13 -91 10 -15 -4 -21 -2 -17 5 10 16 -58 12 -91 -5 -29 -15 -64 -20 -64
-10 0 36 70 131 85 117 4 -4 11 1 16 11 6 9 15 14 21 11 8 -5 9 -1 5 10 -4 10
-7 24 -7 32 0 8 -6 11 -15 8 -24 -10 -17 8 13 33 l27 22 -40 -2 c-33 -2 -40 1
-39 16 1 9 -4 17 -12 17 -7 0 -16 5 -20 11 -5 8 1 10 20 7 31 -6 35 7 5 15
-17 5 -21 12 -17 36 3 23 1 31 -11 31 -11 0 -9 5 8 21 19 18 24 19 39 7 15
-12 16 -11 3 5 -8 9 -11 21 -7 24 4 4 12 1 17 -7 8 -12 12 -12 16 -2 4 10 8
10 19 1 11 -9 19 -8 36 3 13 8 49 20 80 28 46 10 60 11 72 1 17 -14 113 -12
133 2 7 5 24 6 37 3 14 -3 26 -1 28 5 2 6 25 12 52 14 26 2 51 6 54 9 8 9 20
7 27 -3z m-1106 -788 c-1 -60 0 -112 1 -118 1 -5 3 -14 5 -20 1 -5 3 -25 3
-42 2 -29 5 -33 30 -33 20 0 33 7 42 24 7 14 19 27 27 30 8 3 11 1 8 -4 -3 -6
-2 -10 3 -10 5 0 7 -11 5 -24 -3 -16 -15 -28 -34 -35 -40 -14 -36 -25 6 -18
39 6 45 -5 18 -35 -18 -21 -53 -24 -71 -6 -18 18 -15 -2 3 -22 12 -14 24 -16
56 -10 l40 7 -24 -31 c-24 -31 -67 -48 -67 -26 0 7 -8 9 -20 5 -11 -3 -20 -3
-20 2 0 5 -10 9 -21 10 -26 2 -97 50 -115 78 -22 33 -56 235 -40 235 2 0 12 3
20 6 11 4 15 2 11 -8 -4 -9 2 -14 15 -15 11 -1 20 3 20 8 0 6 -4 7 -10 4 -5
-3 -10 -1 -10 4 0 16 20 13 26 -3 3 -8 14 -12 27 -8 38 9 45 20 40 67 -3 24
-2 52 2 62 5 10 7 21 7 26 -1 4 2 7 8 7 5 0 9 -44 9 -107z m1608 -8 c-5 -70
-4 -75 14 -75 15 0 19 -5 14 -19 -3 -12 0 -21 10 -25 22 -8 9 -26 -20 -26 -44
0 -72 -124 -40 -180 28 -49 9 -126 -25 -105 -18 11 4 379 27 432 7 18 9 33 4
33 -5 0 -7 9 -4 20 3 11 10 20 16 20 6 0 8 -27 4 -75z m223 -325 c6 -11 17
-20 25 -20 7 0 17 -9 20 -20 3 -11 10 -20 14 -20 4 0 13 -18 20 -40 10 -33 9
-45 -3 -69 -20 -37 -62 -71 -90 -71 -11 0 -41 -7 -65 -15 -35 -13 -46 -13 -59
-3 -12 10 -16 10 -19 1 -8 -22 -43 -15 -43 7 0 13 -7 20 -20 20 -11 0 -20 -4
-20 -10 0 -19 -28 -10 -33 11 -8 28 1 47 24 54 11 4 17 10 14 15 -3 4 4 10 15
13 10 3 25 20 33 38 8 19 24 44 35 55 12 12 19 24 16 27 -3 2 11 8 31 11 19 4
35 11 35 16 0 5 10 11 23 13 12 2 25 5 29 6 4 0 12 -8 18 -19z"/>
<path d="M1615 1720 c-11 -4 -33 -23 -50 -41 -16 -19 -26 -31 -21 -27 14 12
45 -37 43 -68 -2 -23 4 -31 33 -45 28 -14 34 -22 32 -42 -6 -46 84 -69 193
-48 l40 7 -50 8 c-27 4 -56 13 -62 18 -7 6 -13 8 -13 4 0 -4 -10 0 -23 9 -13
8 -27 12 -30 8 -4 -3 -7 -1 -7 5 0 7 3 12 8 13 4 0 17 2 30 3 12 2 22 -1 22
-5 0 -11 31 0 53 19 15 13 19 13 35 0 32 -29 76 -46 97 -37 11 4 14 8 7 8 -7
1 -10 6 -7 11 3 6 1 10 -4 10 -6 0 -11 6 -11 13 0 17 -50 54 -84 63 -30 7 -35
34 -7 34 48 0 66 27 37 56 -11 11 -16 11 -19 1 -4 -7 -6 -6 -6 4 -1 14 -7 16
-36 9 -22 -5 -35 -4 -38 3 -4 13 -134 19 -162 7z"/>
</g>
</svg>
