<?xml version="1.0" standalone="no"?>
<!DOCTYPE svg PUBLIC "-//W3C//DTD SVG 20010904//EN"
 "http://www.w3.org/TR/2001/REC-SVG-20010904/DTD/svg10.dtd">
<svg version="1.0" xmlns="http://www.w3.org/2000/svg"
 width="600.000000pt" height="600.000000pt" viewBox="0 0 600.000000 600.000000"
 preserveAspectRatio="xMidYMid meet">
<metadata>
Created by potrace 1.16, written by Peter Selinger 2001-2019
</metadata>
<g transform="translate(0.000000,600.000000) scale(0.100000,-0.100000)"
fill="#000000" stroke="none">
<path d="M3080 5754 c0 -4 8 -16 17 -26 16 -18 16 -18 -3 -12 -10 4 -21 11
-24 15 -3 4 -30 3 -60 -2 -30 -5 -89 -6 -130 -3 -69 5 -76 4 -87 -15 -13 -20
-11 -21 53 -17 69 3 76 -11 8 -18 -22 -2 -73 -17 -113 -34 -48 -21 -68 -25
-59 -15 11 14 10 15 -9 9 -12 -4 -24 -2 -28 4 -4 6 6 10 24 10 20 0 31 5 31
14 0 46 -237 1 -256 -49 -3 -7 -20 -19 -37 -25 -58 -22 -82 -34 -114 -58 -18
-12 -33 -20 -33 -16 0 16 -29 -32 -30 -48 0 -23 -79 -101 -118 -117 -35 -14
-37 -18 -22 -41 9 -15 25 -7 25 13 0 7 12 12 27 13 15 1 25 -3 22 -8 -3 -4 -9
-6 -14 -3 -12 7 -23 -12 -14 -26 4 -8 9 -7 15 2 6 10 9 11 9 2 0 -7 9 -13 19
-13 11 0 22 -6 24 -12 4 -10 6 -10 6 0 1 6 5 12 11 12 5 0 9 -4 7 -8 -1 -5 12
-20 28 -35 17 -15 22 -24 13 -21 -10 3 -18 10 -18 15 0 5 -13 9 -30 9 -16 0
-30 3 -30 8 0 4 -14 8 -31 8 -17 1 -35 8 -40 15 -4 7 -11 10 -15 6 -4 -4 -13
1 -20 11 -12 16 -13 15 -14 -5 0 -27 -20 -42 -21 -16 0 14 -2 15 -6 3 -3 -8
-22 -31 -43 -50 -61 -57 -92 -112 -93 -167 0 -26 -3 -40 -5 -30 -9 42 -32 3
-32 -55 0 -16 -4 -28 -10 -28 -5 0 -10 -13 -10 -29 0 -16 -6 -31 -15 -34 -11
-5 -13 0 -8 26 6 30 5 31 -13 17 -10 -8 -24 -21 -30 -29 -6 -8 -16 -11 -22 -7
-7 4 -12 1 -12 -9 0 -9 -9 -29 -19 -44 -20 -27 -24 -46 -22 -96 1 -23 3 -27
11 -15 9 13 11 13 20 0 5 -8 10 -10 11 -5 0 6 6 -8 13 -31 7 -23 11 -56 8 -74
-3 -23 -1 -31 7 -26 6 4 9 10 7 14 -2 4 -1 25 3 47 l7 40 17 -34 c13 -27 16
-48 11 -102 -5 -49 -4 -69 5 -69 6 0 11 -5 11 -11 0 -5 -4 -8 -9 -5 -5 4 -7
-4 -3 -16 4 -16 2 -19 -8 -13 -10 6 -12 4 -7 -9 4 -10 7 -21 7 -24 0 -4 7 6
15 22 9 16 19 59 24 95 5 36 9 56 10 44 0 -13 5 -23 10 -23 5 0 5 -16 -1 -37
-14 -54 -12 -104 3 -114 11 -7 11 -9 1 -9 -10 0 -10 -5 -2 -20 6 -11 8 -25 5
-30 -3 -6 -2 -10 2 -10 9 0 9 -136 -1 -212 -3 -26 -1 -50 4 -53 11 -7 60 63
60 85 0 13 1 13 10 0 8 -13 10 -12 10 3 0 9 -4 17 -9 17 -5 0 -7 10 -3 22 3
13 1 19 -5 15 -7 -5 -9 1 -6 15 3 17 2 19 -5 10 -6 -10 -11 1 -15 35 -6 57 -2
231 6 239 9 10 20 -125 15 -190 -4 -46 -1 -67 10 -82 14 -18 14 -17 9 11 -3
17 -2 46 3 65 l8 35 1 -36 c1 -20 8 -54 17 -75 9 -20 14 -54 12 -75 -2 -27 1
-40 14 -48 21 -13 24 -33 4 -25 -8 3 -17 0 -21 -6 -5 -8 -10 -8 -20 0 -8 7
-19 9 -26 5 -8 -5 -8 -1 1 15 19 36 6 32 -25 -8 -16 -20 -35 -40 -42 -45 -6
-4 -10 -14 -7 -22 4 -8 2 -15 -2 -15 -5 0 -9 -17 -9 -37 0 -36 -25 -62 -25
-26 -1 14 -3 13 -15 -7 -7 -14 -10 -27 -7 -30 15 -11 62 -80 55 -80 -4 0 3 -7
16 -17 23 -15 25 -15 37 2 13 17 14 17 15 -11 1 -23 3 -20 10 15 13 66 22 64
15 -4 -5 -42 -4 -56 3 -45 6 8 11 25 11 37 0 12 5 25 10 28 10 6 7 -21 -6 -62
-2 -7 1 -23 6 -35 9 -23 9 -23 10 2 1 15 4 19 7 10 2 -8 11 -28 18 -45 7 -16
19 -48 26 -70 17 -50 15 -48 29 -40 9 6 9 9 0 15 -9 6 -7 19 8 54 12 25 26 46
31 46 6 0 11 6 11 14 0 8 5 16 12 18 7 3 12 26 12 60 1 32 5 51 9 45 5 -7 5 4
1 23 -4 19 -8 58 -8 85 -1 28 -5 55 -9 62 -4 6 -2 17 5 25 17 17 61 98 54 98
-3 0 -13 -14 -22 -31 -12 -25 -18 -29 -25 -18 -7 11 -9 11 -9 -3 0 -10 -4 -18
-9 -18 -5 0 -11 -10 -13 -21 -2 -12 -12 -28 -24 -35 -20 -14 -21 -13 -17 43 2
31 6 59 9 62 4 3 5 -6 2 -20 -3 -15 2 -35 10 -45 13 -18 14 -17 8 8 -6 27 8
49 17 26 3 -7 6 -3 6 10 1 12 6 22 11 22 6 0 9 3 9 8 -3 19 2 31 14 28 6 -1 9
-1 5 1 -5 3 -5 16 -2 29 4 14 2 24 -5 24 -7 0 -10 28 -9 78 0 43 -2 91 -6 107
-3 17 -1 55 4 85 6 30 11 61 12 68 1 6 7 12 14 12 10 0 10 -8 -2 -36 -8 -20
-13 -38 -10 -41 2 -3 0 -16 -5 -30 -10 -27 -1 -102 10 -84 4 6 8 43 9 83 2 40
7 75 12 76 17 6 11 32 -9 40 -19 7 -19 8 0 48 13 27 31 46 56 58 21 10 43 26
51 37 7 11 18 16 24 13 7 -4 7 2 2 17 -10 32 -7 109 6 124 6 7 10 17 9 21 -1
5 0 20 1 34 2 19 4 20 7 7 4 -14 8 -16 19 -6 8 7 14 7 14 1 0 -5 -7 -12 -15
-16 -8 -3 -15 -18 -15 -33 0 -23 2 -25 11 -13 9 12 10 11 4 -5 -4 -11 -8 -33
-10 -50 -1 -16 0 -21 2 -10 6 24 22 45 34 45 5 0 9 -6 9 -12 0 -7 12 -18 26
-25 32 -15 64 -1 64 27 0 11 6 20 14 20 8 0 36 25 61 55 26 30 54 55 61 55 8
0 14 4 14 9 0 4 21 16 48 25 26 9 61 23 77 31 17 7 53 17 80 20 28 4 66 14 85
22 19 9 40 15 46 14 6 0 30 17 53 39 25 24 51 40 66 40 13 0 36 12 51 28 15
15 23 21 20 15 -4 -7 -3 -13 3 -13 5 0 17 -3 25 -6 12 -5 15 -2 10 10 -4 12 0
16 15 16 23 0 29 15 9 23 -7 3 5 3 27 0 50 -7 53 -10 29 -29 -18 -14 -18 -15
4 -4 24 12 88 4 98 -12 4 -6 10 -5 15 3 5 8 9 9 9 3 0 -11 97 -10 128 1 7 3
28 -2 47 -9 19 -8 43 -12 53 -9 12 3 28 -3 41 -16 12 -12 30 -21 42 -21 11 0
27 -7 35 -15 10 -9 26 -13 42 -10 18 4 21 3 9 -3 -16 -7 -16 -9 -3 -27 15 -20
15 -20 16 0 0 17 2 18 10 5 8 -11 9 -7 4 15 -4 17 -15 39 -25 51 -11 11 -17
23 -14 26 3 3 -2 11 -12 19 -11 9 -14 10 -9 2 4 -7 3 -13 -3 -13 -16 0 -43 46
-45 75 0 16 -6 23 -13 20 -8 -2 -13 4 -13 16 0 11 5 17 10 14 6 -3 10 -2 10 4
0 5 -5 11 -12 13 -6 2 -12 13 -14 23 -8 51 -14 64 -31 58 -12 -5 -15 -2 -10
10 3 9 2 17 -3 17 -6 0 -10 8 -10 18 0 10 -9 24 -20 32 -11 8 -20 19 -20 25 0
13 -30 32 -82 50 -65 22 -86 20 -84 -10 1 -21 7 -27 39 -32 58 -9 56 -25 -2
-17 -45 6 -51 5 -45 -10 3 -9 1 -16 -4 -16 -6 0 -9 8 -7 19 3 16 -2 18 -43 13
-26 -2 -55 -9 -64 -13 -24 -13 -35 -11 -35 5 0 8 12 20 26 25 39 15 56 17 54
6 -1 -6 7 -11 18 -11 24 0 25 16 2 17 -16 0 -15 2 2 10 l20 9 -20 -1 c-40 -2
-51 2 -30 11 16 7 13 9 -17 9 -20 1 -39 5 -42 9 -8 14 71 7 88 -7 11 -9 16
-10 16 -2 0 6 -4 11 -10 11 -5 0 -10 5 -10 11 0 6 8 8 19 4 16 -5 18 -2 14 14
-7 29 -22 38 -78 52 -28 6 -68 19 -90 29 -80 36 -90 40 -115 43 -14 1 -31 6
-37 10 -7 5 -13 5 -13 1z m-1223 -992 c22 -22 43 -24 44 -4 1 10 2 22 4 27 1
6 3 18 3 28 1 9 6 17 11 17 5 0 8 -11 7 -25 -3 -22 -1 -23 18 -13 18 9 19 9
10 -3 -16 -20 -13 -99 4 -99 7 0 10 -5 7 -10 -4 -6 -4 -18 0 -28 5 -14 7 -14
16 -2 9 12 9 11 4 -5 -4 -11 -9 -36 -13 -55 -11 -68 -52 -67 -52 2 l-1 33 -12
-29 c-13 -29 -13 -28 -26 38 -7 37 -15 65 -18 62 -11 -11 -43 31 -44 59 0 26
-2 27 -9 10 -8 -19 -9 -19 -9 2 -1 13 7 42 17 65 l17 43 3 -49 c2 -27 10 -56
19 -64z m183 -269 c0 -23 5 -45 10 -48 6 -3 10 -32 11 -63 1 -31 5 -68 9 -82
6 -17 7 -9 3 24 -4 35 -2 47 6 42 13 -8 14 -246 1 -246 -5 0 -11 -10 -14 -22
-2 -13 -4 -4 -3 20 2 23 -1 42 -5 42 -5 0 -8 -5 -8 -12 0 -6 -2 -9 -5 -6 -8 8
6 39 15 33 12 -8 21 56 9 73 -8 14 -9 12 -5 -8 5 -24 5 -23 -7 3 -7 15 -16 25
-19 22 -6 -6 -18 133 -18 211 0 27 -5 55 -11 61 -7 7 -8 21 -3 34 7 24 7 24
20 -6 7 -16 13 -49 14 -72z"/>
<path d="M3906 4241 c-3 -5 -16 -7 -29 -4 -16 3 -18 2 -8 -5 9 -7 -8 -9 -53
-7 -38 1 -66 -2 -66 -8 0 -5 -9 -7 -20 -4 -16 4 -20 0 -20 -21 0 -17 -3 -22
-8 -15 -6 9 -11 7 -19 -6 -9 -14 -8 -18 5 -19 50 -5 124 1 180 15 50 12 65 13
77 3 12 -10 15 -9 16 6 0 11 3 14 6 7 2 -7 11 -13 19 -13 8 0 11 6 8 15 -4 11
3 19 25 26 28 10 35 29 10 29 -6 0 -7 -5 -3 -11 7 -12 -20 -8 -62 8 -12 4 -15
3 -10 -5 4 -7 2 -12 -3 -12 -6 0 -11 5 -11 11 0 8 -5 7 -15 -1 -13 -11 -14
-10 -9 4 7 17 -1 22 -10 7z"/>
<path d="M2970 4100 c-41 -4 -102 -16 -134 -27 -32 -12 -64 -19 -71 -17 -6 3
-29 -9 -50 -26 -21 -16 -42 -30 -47 -30 -11 0 -29 -14 -82 -66 -28 -27 -42
-48 -41 -63 1 -13 -5 -29 -12 -37 -12 -12 -9 -14 25 -14 23 0 45 6 52 15 9 11
16 12 25 5 8 -7 19 -2 35 15 13 14 27 25 32 25 9 0 26 13 56 41 40 39 156 69
316 84 22 2 43 8 48 13 12 12 -10 50 -32 55 -11 3 -8 7 10 15 l25 11 -27 0
c-14 1 -32 2 -40 4 -7 2 -47 1 -88 -3z"/>
<path d="M3758 4005 c-4 -4 -22 -8 -40 -9 -29 -1 -33 -5 -32 -29 3 -68 2 -67
44 -67 22 0 55 6 73 13 18 8 37 15 42 15 10 2 12 6 14 43 1 18 5 20 33 13 18
-3 42 -12 53 -19 11 -7 36 -16 55 -20 34 -7 35 -6 13 10 -13 9 -39 23 -58 31
-40 16 -186 31 -197 19z"/>
<path d="M3194 3896 c-10 -8 -28 -13 -39 -12 -11 2 -15 1 -9 -1 6 -2 26 -24
44 -49 l32 -45 -26 -33 c-36 -48 -43 -82 -17 -89 12 -3 21 -2 21 3 0 4 9 10
20 13 11 3 20 12 20 21 0 9 5 16 11 16 5 0 7 -4 4 -10 -12 -20 6 -29 25 -12
16 13 20 29 20 74 0 31 -4 60 -10 63 -5 3 -10 13 -10 21 0 17 -38 53 -56 54
-5 0 -19 -6 -30 -14z"/>
<path d="M2749 3838 c-62 -44 -120 -100 -128 -122 -4 -11 -25 -25 -47 -32 -34
-10 -36 -12 -12 -13 15 -1 30 -5 33 -11 8 -12 75 -13 94 -1 8 5 11 16 8 25 -5
11 1 20 16 26 47 19 154 49 199 55 51 8 80 28 53 39 -24 9 -17 33 11 39 14 2
42 1 62 -4 34 -7 35 -6 18 7 -27 19 -152 19 -201 -2 -21 -8 -44 -13 -52 -10
-8 3 -11 2 -8 -4 3 -5 -3 -14 -14 -19 -35 -19 -35 -12 2 24 45 44 25 46 -34 3z"/>
<path d="M3168 3323 c-55 -59 -97 -122 -104 -159 -3 -19 -10 -34 -15 -34 -5 0
-9 -10 -9 -22 0 -12 -7 -29 -15 -38 -16 -18 -11 -35 27 -89 15 -22 19 -22 55
-11 21 7 44 17 51 23 8 6 16 6 25 0 6 -6 21 -9 32 -6 11 2 30 4 43 5 12 0 22
4 22 9 0 5 12 9 27 9 41 0 133 32 133 47 0 7 9 13 20 13 11 0 20 4 20 9 0 17
-52 42 -118 57 -101 24 -120 33 -143 71 -21 34 -22 67 -3 131 9 32 -7 27 -48
-15z"/>
<path d="M3105 2884 c-80 -17 -105 -28 -105 -45 0 -19 59 -72 103 -92 15 -6
27 -14 27 -17 0 -3 13 -6 30 -7 16 -1 43 -9 59 -18 45 -23 201 -37 218 -19 24
24 5 35 -32 20 -31 -13 -36 -13 -59 5 -21 17 -29 18 -48 8 -19 -10 -24 -9 -37
11 -28 39 -50 113 -40 131 6 13 3 18 -14 23 -24 6 -70 6 -102 0z"/>
<path d="M2118 2644 c-3 -3 -20 -6 -38 -6 -17 -1 -34 -7 -37 -13 -2 -7 -13
-10 -25 -7 -25 6 -40 -16 -27 -39 16 -31 11 -44 -10 -25 -11 10 -25 15 -31 11
-9 -6 -9 -10 1 -17 10 -6 7 -8 -11 -6 -24 3 -25 1 -23 -49 1 -29 -2 -53 -7
-53 -16 0 -11 -37 5 -44 8 -3 15 -13 15 -21 0 -9 -4 -14 -9 -11 -4 3 -13 -5
-19 -18 -8 -19 -8 -25 3 -30 8 -3 16 0 18 7 2 7 3 5 2 -3 0 -8 -5 -14 -11 -13
-5 0 -15 -5 -22 -13 -7 -8 -8 -14 -2 -14 5 0 10 -7 10 -16 0 -9 5 -12 13 -8 9
6 8 3 -1 -9 -8 -9 -13 -35 -11 -59 1 -24 -1 -50 -4 -58 -12 -29 -11 -45 2 -70
11 -21 11 -23 0 -12 -21 20 -30 14 -24 -15 l5 -28 -12 25 c-7 14 -17 28 -22
31 -4 4 -5 12 -2 18 4 6 2 11 -3 11 -6 0 -11 -9 -11 -20 0 -11 -4 -20 -9 -20
-4 0 -7 -12 -5 -26 3 -33 -5 -54 -20 -54 -18 0 -62 -63 -48 -68 7 -2 9 -8 6
-13 -3 -6 -2 -15 3 -22 13 -16 14 -55 2 -62 -5 -4 -9 2 -9 12 -1 15 -3 13 -14
-6 -7 -13 -11 -33 -8 -44 3 -14 1 -18 -6 -13 -8 4 -12 0 -13 -11 0 -14 -2 -13
-10 5 -6 17 -4 30 9 50 18 28 24 72 9 72 -4 0 -7 -8 -6 -17 3 -35 -1 -45 -17
-39 -8 3 -12 2 -9 -4 6 -10 -12 -49 -30 -63 -6 -5 -3 -7 8 -3 19 6 24 -10 5
-17 -8 -3 -6 -6 5 -6 15 -1 15 -4 5 -21 -11 -17 -11 -22 0 -29 21 -13 -7 -29
-51 -29 -31 0 -36 3 -27 14 7 7 9 18 5 25 -10 14 37 -9 47 -25 4 -6 10 -7 15
-3 4 5 1 12 -6 16 -7 5 -11 15 -9 22 3 8 -1 20 -9 27 -7 8 -11 18 -8 23 4 5 1
9 -6 9 -11 0 -10 -13 6 -55 7 -16 6 -18 -6 -8 -21 20 -42 16 -36 -7 6 -22 -8
-28 -17 -7 -3 6 -4 1 -3 -13 1 -16 -3 -24 -11 -22 -19 4 -11 -30 8 -35 13 -4
13 -3 0 6 -17 12 -20 12 45 16 42 3 45 3 17 -4 -18 -5 -36 -12 -40 -16 -4 -4
4 -4 18 -1 21 6 23 5 10 -6 -8 -7 -16 -18 -17 -23 -1 -6 -5 -18 -8 -27 -5 -13
-2 -18 11 -17 11 0 14 3 8 5 -9 4 -9 11 0 29 12 27 39 44 29 19 -3 -8 3 -25
13 -37 l19 -22 -23 19 c-12 11 -25 16 -29 13 -4 -4 2 -14 13 -23 15 -13 16
-15 2 -10 -9 2 -22 -2 -28 -10 -7 -8 -20 -14 -29 -13 -12 0 -12 2 3 8 19 7 19
8 -2 13 -12 4 -22 2 -22 -3 0 -16 -22 -9 -27 9 -2 11 -13 17 -29 17 -27 -2
-46 -15 -21 -15 20 0 23 -16 5 -23 -10 -4 -10 -6 0 -6 6 -1 12 -6 12 -12 0 -6
-9 -8 -21 -4 -15 5 -19 4 -15 -4 12 -18 37 -12 43 10 4 12 11 18 20 15 8 -3
19 -6 24 -6 5 0 9 -5 9 -11 0 -6 -9 -8 -22 -3 -21 6 -22 5 -8 -11 13 -17 13
-18 0 -13 -11 4 -15 -2 -16 -24 -1 -17 -7 -34 -14 -38 -11 -7 -11 -11 -1 -23
9 -12 9 -17 0 -23 -8 -4 -9 -3 -5 4 4 7 1 12 -8 12 -9 0 -16 -4 -16 -10 0 -5
-6 -10 -13 -10 -18 0 -67 -24 -67 -32 0 -5 7 -8 15 -8 18 0 19 -4 3 -31 -10
-17 -10 -23 0 -26 6 -3 12 -9 12 -15 0 -7 -5 -7 -13 1 -8 6 -17 7 -22 3 -4 -4
-4 3 -1 16 4 12 3 22 -2 22 -5 0 -12 -13 -15 -30 -6 -28 -9 -30 -43 -24 -25 4
-34 2 -29 -5 3 -6 1 -11 -5 -11 -6 0 -8 -5 -4 -12 4 -6 -1 -17 -12 -25 -16
-12 -17 -15 -4 -23 12 -8 11 -10 -7 -10 -19 0 -23 6 -24 33 -2 30 -2 30 -6 5
-2 -16 -10 -28 -16 -28 -7 0 -6 -4 3 -10 12 -7 12 -11 2 -20 -6 -5 -10 -7 -7
-4 3 4 -3 13 -13 21 -16 12 -16 14 1 24 21 12 23 39 2 39 -8 0 -15 -5 -15 -11
0 -5 5 -7 12 -3 7 4 8 3 4 -4 -10 -17 -26 -15 -26 3 0 9 -6 12 -15 9 -8 -4
-15 -10 -15 -16 0 -5 5 -6 10 -3 6 3 10 -3 10 -14 0 -17 -6 -21 -31 -21 -27 0
-30 2 -19 15 8 9 8 15 2 15 -6 0 -14 -9 -17 -20 -7 -22 -21 -27 -27 -9 -2 6
-12 1 -22 -10 -11 -12 -14 -21 -8 -21 7 0 12 5 12 10 0 6 5 10 11 10 5 0 7 -4
4 -10 -3 -6 -2 -10 4 -10 5 0 13 5 16 10 3 6 17 10 31 10 14 0 23 -4 20 -9 -4
-5 0 -12 6 -14 7 -3 3 -6 -10 -6 -13 -1 -20 3 -17 9 3 5 1 10 -4 10 -6 0 -11
-4 -11 -10 0 -5 -10 -10 -22 -10 -21 -1 -22 -2 -5 -14 21 -16 22 -36 2 -36 -8
0 -17 11 -21 25 -5 20 -9 23 -20 14 -8 -6 -14 -17 -14 -23 0 -6 5 -4 11 4 8
12 9 10 7 -10 -2 -17 -8 -24 -20 -22 -23 4 -23 -15 0 -21 13 -4 13 -5 -4 -6
-26 -1 -56 -31 -31 -31 8 0 21 -7 28 -17 13 -15 12 -15 -8 -5 -28 15 -33 15
-33 -2 0 -8 -7 -16 -15 -20 -8 -3 -15 -1 -15 3 0 5 6 12 13 14 10 4 9 6 0 6
-7 1 -13 8 -13 16 0 9 -9 15 -22 14 -22 0 -22 -1 -3 -9 11 -5 14 -9 7 -9 -6
-1 -11 -4 -11 -8 1 -5 1 -19 0 -33 -2 -23 -3 -24 -15 -7 -11 14 -15 15 -24 4
-7 -8 -8 -17 -2 -23 5 -5 3 -17 -6 -28 -14 -19 -14 -19 -14 1 0 30 -19 39 -35
17 -10 -14 -10 -23 -3 -32 8 -9 8 -16 0 -24 -7 -7 -12 -25 -12 -41 0 -21 -4
-28 -17 -25 -27 4 -103 -49 -103 -71 0 -6 -7 -11 -15 -11 -8 0 -15 -7 -15 -16
0 -10 -6 -14 -15 -10 -8 3 -14 2 -12 -3 1 -4 -22 -30 -51 -58 -28 -27 -52 -55
-52 -62 0 -7 -4 -9 -10 -6 -5 3 -10 1 -10 -5 0 -6 -9 -20 -20 -32 -21 -23 -27
-44 -10 -33 19 11 10 -21 -10 -41 -83 -78 -212 -256 -258 -354 l-30 -65 966
-3 c766 -2 967 0 974 10 6 10 8 10 8 1 0 -10 39 -13 161 -13 104 0 158 3 154
10 -3 6 -1 10 4 10 6 0 11 -5 11 -10 0 -16 397 -12 404 3 3 9 5 9 5 0 1 -18
687 -18 695 0 3 9 5 9 5 0 1 -15 71 -18 71 -3 0 6 5 10 11 10 5 0 8 -4 4 -9
-3 -6 95 -9 254 -8 143 0 257 5 255 9 -3 4 2 8 11 8 10 0 13 -5 9 -12 -4 -7
-3 -8 4 -4 19 11 14 24 -10 28 -13 2 -22 9 -21 16 2 6 -2 12 -7 12 -6 0 -10 8
-10 18 0 9 -7 30 -15 46 -8 15 -15 36 -15 45 0 9 -7 26 -15 37 -8 12 -11 24
-8 28 3 3 -2 6 -13 6 -16 0 -17 2 -4 11 12 9 11 10 -7 6 -26 -6 -27 -3 -13 23
10 18 -6 123 -30 200 -6 19 -13 46 -16 60 -3 14 -24 97 -46 185 -50 196 -53
241 -23 373 4 14 2 21 -4 18 -5 -4 -13 -2 -16 4 -4 6 -3 10 2 9 21 -4 33 2 33
16 0 8 -5 15 -12 15 -6 0 -2 9 10 20 23 22 30 36 12 25 -7 -4 -9 2 -4 19 8 33
-13 35 -26 4 -5 -13 -9 -18 -9 -11 -2 26 13 43 37 43 14 0 23 3 19 6 -3 3 3
21 14 40 21 38 24 54 9 54 -5 0 -12 -16 -16 -35 -6 -34 -24 -49 -24 -21 0 8
-6 17 -12 19 -8 3 -6 6 5 6 17 1 23 16 10 24 -5 2 -3 3 3 1 15 -3 35 32 28 51
-4 9 -1 15 9 15 8 0 17 11 19 25 3 14 1 25 -3 25 -5 0 -9 -5 -9 -11 0 -5 -5
-7 -10 -4 -6 4 -8 11 -5 16 4 5 -1 9 -10 9 -10 0 -13 5 -9 12 5 8 -5 9 -37 5
-24 -3 -35 -3 -25 2 19 7 19 8 1 15 -10 4 -21 2 -25 -4 -5 -8 -9 -6 -13 4 -4
11 -1 16 11 17 14 0 14 2 -3 9 l-20 9 20 1 c19 1 19 1 2 11 -10 6 -25 8 -34 5
-12 -5 -13 -4 -5 7 9 10 8 17 -1 27 -10 10 -9 11 2 5 8 -4 17 -2 22 6 14 23
10 31 -13 24 -18 -5 -20 -4 -8 4 13 10 13 11 0 11 -13 0 -13 1 0 10 10 6 11
10 3 10 -7 0 -13 5 -13 11 0 5 5 7 10 4 6 -3 10 -1 10 4 0 6 -7 11 -15 11 -8
0 -15 5 -15 10 0 6 -4 10 -8 10 -5 0 -14 -24 -21 -52 -7 -29 -22 -83 -32 -119
-25 -85 -42 -223 -30 -227 6 -2 7 -10 4 -18 -3 -9 -17 -14 -39 -12 -39 2 -43
13 -12 39 14 13 16 19 7 19 -12 0 -12 2 0 9 12 8 9 11 -12 16 -31 8 -61 0 -52
-15 3 -6 -1 -7 -9 -4 -9 3 -16 1 -16 -6 0 -6 -4 -9 -10 -5 -10 6 -37 -7 -79
-37 -14 -11 -18 -18 -9 -18 8 0 20 6 27 13 11 10 13 8 8 -10 -3 -13 0 -23 6
-23 6 0 8 -2 5 -5 -7 -7 -94 30 -103 44 -3 6 -11 8 -17 5 -6 -4 -5 -10 3 -15
11 -7 10 -9 -3 -9 -11 0 -18 8 -18 19 0 37 -10 48 -38 43 -15 -3 -30 -9 -33
-15 -4 -6 -13 -5 -25 2 -18 10 -18 10 3 11 12 0 24 4 28 10 3 5 13 7 23 4 15
-5 15 -4 -1 6 -10 6 -25 9 -32 6 -8 -3 -19 2 -24 11 -8 15 -13 15 -37 4 -24
-10 -29 -10 -37 5 -7 12 -11 13 -17 4 -6 -9 -10 -6 -15 9 -5 18 -9 20 -21 10
-10 -8 -14 -8 -14 0 0 10 13 15 32 12 4 0 12 8 18 19 8 16 8 20 -4 20 -8 0
-18 -4 -21 -10 -11 -18 -43 -31 -50 -20 -4 6 -3 10 2 9 28 -5 36 2 18 14 -17
13 -17 14 3 13 12 -1 20 4 19 9 -1 6 -7 9 -13 7 -6 -1 -14 4 -17 12 -4 11 -1
13 11 9 15 -5 -47 46 -86 72 -29 19 -61 53 -55 59 4 3 -1 6 -10 6 -9 0 -21 9
-27 21 -7 12 -18 18 -26 15 -8 -3 -13 -2 -9 3 3 5 -25 39 -62 76 -61 60 -65
66 -45 72 15 3 22 13 22 29 0 13 -5 23 -12 21 -6 -1 -14 7 -16 18 -4 16 -2 17
11 7 10 -9 17 -10 22 -2 3 5 1 10 -4 10 -6 0 -11 7 -11 16 0 11 6 13 19 9 12
-4 23 0 28 10 8 14 19 14 118 0 125 -17 195 -19 195 -5 0 6 -7 10 -15 10 -8 0
-15 4 -15 9 0 14 83 25 125 17 31 -6 35 -4 41 19 5 20 9 24 18 15 8 -8 7 -13
-4 -21 -11 -7 -8 -8 11 -3 15 3 30 1 33 -5 5 -7 13 -7 26 2 25 15 25 24 0 32
-13 4 -20 15 -20 33 0 21 -2 24 -10 12 -8 -12 -12 -13 -19 -1 -6 10 -13 10
-28 3 -16 -9 -23 -6 -38 14 -10 13 -29 36 -42 50 -22 24 -23 24 -23 4 0 -13
-4 -18 -11 -14 -6 3 -8 18 -5 33 5 17 4 21 -2 12 -6 -8 -18 -11 -30 -7 -13 5
-22 1 -26 -10 -6 -16 -31 -15 -31 2 -2 35 -18 52 -55 58 -22 3 -40 11 -40 16
0 6 -7 10 -15 10 -8 0 -15 5 -15 12 0 8 -3 9 -10 2 -7 -7 -6 -20 4 -39 11 -21
12 -31 4 -36 -6 -4 -7 -12 -4 -18 13 -21 -13 -11 -29 12 -15 21 -17 21 -26 4
-9 -15 -13 -16 -25 -6 -8 7 -28 12 -44 11 -19 0 -30 4 -30 13 0 8 -17 16 -40
20 -22 4 -40 11 -40 16 0 5 -9 9 -19 9 -10 0 -21 7 -25 15 -3 8 -12 15 -21 15
-8 0 -15 7 -15 15 0 8 -9 15 -19 15 -11 0 -23 5 -26 10 -4 6 -12 10 -18 9 -30
-4 -45 2 -50 20 -4 17 -13 19 -71 18 -49 -2 -66 1 -66 11 0 7 -8 12 -18 10
-11 -2 -39 14 -65 35 -47 38 -67 46 -67 25 0 -7 -15 3 -34 21 -31 30 -34 31
-50 16 -15 -15 -16 -15 -16 0 0 9 -4 13 -10 10 -5 -3 -10 -1 -10 5 0 6 -5 8
-11 4 -8 -4 -7 -9 2 -15 10 -6 11 -11 3 -19 -20 -20 -35 12 -24 51 11 38 13
99 4 123 -6 15 -44 22 -56 10z m1458 -1475 c-15 -9 -16 -13 -5 -20 20 -12 37
-11 19 2 -30 21 6 3 42 -21 25 -16 38 -33 38 -47 0 -13 5 -23 10 -23 6 0 10 5
10 10 0 6 5 10 11 10 6 0 9 -6 6 -14 -3 -8 1 -20 9 -27 8 -7 12 -19 9 -27 -3
-8 4 -29 16 -48 11 -18 17 -39 13 -45 -4 -8 -3 -9 4 -5 7 4 12 1 12 -7 0 -18
-34 -12 -52 10 -9 12 -9 16 3 24 11 7 9 9 -7 9 -17 0 -21 5 -17 28 3 23 2 24
-6 7 -9 -18 -10 -18 -10 7 -1 23 -6 28 -43 36 -29 5 -45 5 -50 -2 -5 -8 -8 -7
-8 1 0 6 7 18 15 27 18 18 19 32 3 42 -6 4 -8 3 -5 -3 4 -6 -4 -8 -21 -5 -24
5 -24 6 -7 13 20 8 20 8 0 9 -11 2 -23 2 -27 1 -5 0 -8 4 -8 10 0 5 -4 8 -9 4
-5 -3 -13 -1 -16 5 -5 8 -11 7 -21 -1 -10 -9 -14 -9 -14 0 0 16 43 31 55 20 5
-5 14 -9 20 -9 5 0 3 5 -5 10 -12 7 -10 11 10 19 34 13 49 13 26 0z m-90 -103
c8 -8 14 -19 14 -25 0 -6 7 -7 17 -4 11 4 14 3 9 -5 -4 -7 -1 -12 8 -12 9 0
16 -7 16 -15 0 -8 7 -15 15 -15 8 0 15 -4 15 -10 0 -5 7 -10 15 -10 8 0 19 -9
25 -21 7 -11 14 -18 17 -15 4 3 12 1 20 -5 10 -9 13 -7 13 7 0 16 2 16 9 4 6
-8 7 -18 5 -22 -3 -4 2 -8 10 -8 19 0 20 -11 4 -30 -11 -12 -10 -12 4 -1 11 8
25 10 35 6 10 -5 21 -8 25 -7 4 1 5 -5 2 -13 -4 -8 -1 -15 5 -15 6 0 16 -11
21 -25 5 -13 20 -41 34 -62 32 -50 50 -131 37 -163 -9 -23 -10 -23 -10 12 -1
20 -6 40 -12 43 -6 4 -8 13 -5 21 4 9 -2 14 -17 15 l-22 2 23 4 c12 2 22 8 22
13 0 5 -6 7 -13 4 -15 -5 -68 49 -71 74 -2 8 -15 16 -30 18 -15 1 -37 13 -48
26 l-21 23 6 -32 c4 -20 2 -33 -4 -33 -6 0 -8 4 -5 9 3 5 -3 11 -14 14 -24 6
-25 -1 -5 -27 8 -11 15 -29 15 -40 -1 -14 -7 -7 -21 22 -12 26 -24 40 -31 36
-7 -4 -8 -3 -4 4 4 7 1 12 -8 12 -10 0 -17 -9 -17 -22 l-2 -23 -4 23 c-5 25
-18 29 -27 7 -3 -8 -1 -15 4 -15 6 0 10 -7 10 -15 0 -21 -20 -19 -21 3 -1 9
-1 20 0 25 0 4 -4 7 -9 7 -5 0 -10 -9 -10 -20 0 -11 -4 -20 -10 -20 -13 0 -13
3 1 34 7 14 17 22 25 19 8 -3 14 0 14 6 0 7 9 9 25 5 15 -4 25 -2 25 5 0 6 -6
8 -13 5 -14 -5 -52 61 -48 84 1 6 -5 12 -14 12 -9 0 -13 -4 -10 -10 3 -5 1
-10 -4 -10 -6 0 -11 9 -11 19 0 11 -4 22 -9 25 -5 4 -7 -4 -4 -16 3 -13 2 -19
-2 -15 -14 12 -15 40 -3 54 9 11 13 9 22 -9 6 -13 16 -23 21 -23 6 0 20 -10
33 -22 22 -23 42 -30 42 -15 0 4 -10 14 -21 22 -12 8 -27 21 -33 28 -6 8 -26
29 -43 48 -41 43 -47 90 -7 50z"/>
<path d="M4223 1439 c-6 -15 -7 -33 -2 -47 5 -13 6 -29 2 -34 -4 -7 -1 -8 7
-3 10 6 12 4 7 -9 -8 -19 9 -96 29 -134 11 -22 13 -23 23 -5 10 17 10 16 11
-4 0 -13 -6 -23 -14 -23 -12 0 -9 -13 10 -62 42 -106 77 -174 81 -160 3 7 -1
19 -7 27 -9 11 -9 15 -1 15 6 0 11 9 11 21 0 13 -4 18 -12 13 -7 -4 -8 -3 -4
4 10 17 -20 129 -50 181 -15 27 -21 47 -15 49 6 2 11 8 11 13 0 4 -7 6 -15 3
-12 -5 -15 3 -15 36 0 23 -6 54 -14 68 -8 15 -18 38 -23 51 l-9 23 -11 -23z"/>
</g>
</svg>
