<?xml version="1.0" standalone="no"?>
<!DOCTYPE svg PUBLIC "-//W3C//DTD SVG 20010904//EN"
 "http://www.w3.org/TR/2001/REC-SVG-20010904/DTD/svg10.dtd">
<svg version="1.0" xmlns="http://www.w3.org/2000/svg"
 width="344.000000pt" height="344.000000pt" viewBox="0 0 344.000000 344.000000"
 preserveAspectRatio="xMidYMid meet">
<metadata>
Created by potrace 1.16, written by Peter Selinger 2001-2019
</metadata>
<g transform="translate(0.000000,344.000000) scale(0.100000,-0.100000)"
fill="#000000" stroke="none">
<path d="M45 3409 c-4 -18 -16 -50 -26 -73 -18 -39 -19 -85 -19 -1019 l0 -978
43 44 c23 24 73 92 111 151 l69 106 -31 61 c-37 71 -41 94 -14 80 9 -5 25 -12
35 -15 15 -5 17 -12 12 -35 -10 -46 12 -46 45 1 70 98 85 102 96 26 4 -29 9
-45 12 -35 5 25 22 10 22 -20 0 -20 -4 -24 -20 -20 -20 5 -19 8 -34 -125 -5
-43 -4 -48 15 -48 28 0 21 -34 -9 -38 -12 -2 -22 -7 -22 -12 0 -5 6 -7 13 -5
14 6 39 -42 26 -50 -4 -3 -6 -12 -3 -20 4 -8 9 -13 13 -10 9 5 11 -24 4 -45
-15 -39 -11 -58 14 -69 14 -6 34 -9 45 -5 16 5 19 2 16 -18 -3 -20 1 -23 27
-23 26 0 30 4 33 32 3 28 -1 33 -22 39 -21 5 -26 12 -26 36 0 16 4 37 10 48
15 27 29 224 16 232 -5 4 -13 5 -17 2 -16 -10 -15 23 3 56 10 19 18 48 18 63
0 21 13 42 45 75 25 25 45 49 45 53 0 23 -21 59 -35 59 -17 0 -20 11 -6 25 13
13 15 118 3 185 -7 41 -6 60 3 75 11 17 8 30 -21 90 l-35 69 22 17 c20 15 21
22 15 82 -9 83 1 103 25 52 15 -30 19 -62 19 -148 0 -80 3 -108 12 -105 7 3
33 69 59 149 47 144 83 229 97 229 13 0 11 -133 -3 -194 -8 -34 -15 -86 -15
-116 0 -30 -7 -68 -15 -84 -8 -15 -15 -37 -15 -48 0 -11 -9 -32 -21 -46 -13
-17 -18 -34 -14 -49 3 -13 -3 -42 -15 -68 -24 -52 -27 -97 -6 -89 8 3 20 19
26 35 7 16 17 29 22 29 14 0 38 65 38 104 0 19 -4 46 -10 61 -7 19 -7 24 1 19
8 -4 9 1 4 17 -6 19 -5 21 5 12 14 -13 25 -58 46 -202 18 -119 15 -138 -26
-185 -31 -35 -39 -73 -18 -94 9 -9 9 -12 1 -12 -7 0 -15 -9 -18 -20 -3 -11
-15 -20 -26 -20 -10 0 -19 -1 -19 -2 0 -2 -6 -21 -14 -42 -12 -36 -11 -44 10
-97 13 -32 24 -68 24 -80 0 -12 8 -23 20 -26 11 -3 20 -9 20 -14 0 -5 7 -9 15
-9 8 0 15 -7 15 -15 0 -10 -10 -15 -32 -15 -17 0 -29 3 -26 6 3 3 -7 19 -23
36 -15 17 -33 44 -40 60 -13 32 -33 36 -48 11 -6 -10 -11 -14 -11 -9 0 5 -7 3
-15 -4 -19 -16 -19 0 0 36 8 16 15 46 15 67 0 43 18 84 49 109 13 11 21 30 21
47 0 16 6 42 14 58 27 54 49 113 44 119 -11 10 -78 -83 -78 -109 0 -34 -17
-43 -40 -22 -20 18 -40 13 -40 -11 0 -8 -4 -14 -9 -14 -16 0 -24 -42 -10 -50
10 -7 10 -19 3 -53 -6 -25 -7 -68 -3 -98 4 -30 5 -73 2 -95 -4 -34 -2 -44 16
-56 23 -16 31 -70 48 -316 3 -51 10 -95 15 -98 4 -3 15 2 24 10 8 9 24 16 34
16 10 0 25 7 33 15 8 8 17 11 21 8 3 -4 6 -1 6 5 0 6 -10 14 -21 17 -12 4 -17
10 -11 14 17 10 34 164 22 195 -5 15 -10 29 -10 31 0 2 15 12 34 23 31 18 35
27 42 79 10 66 6 124 -7 137 -5 6 -9 16 -9 24 0 8 -11 36 -25 64 -14 27 -25
52 -25 54 0 12 22 0 48 -26 25 -25 30 -38 30 -76 0 -26 5 -51 11 -57 8 -8 11
-6 11 7 0 10 5 16 12 14 20 -7 19 -23 -2 -46 -12 -12 -18 -27 -15 -32 3 -6 2
-10 -4 -10 -5 0 -3 -22 5 -52 16 -63 18 -92 4 -83 -5 3 -10 -1 -10 -9 0 -9 7
-16 15 -16 8 0 15 5 15 10 0 6 5 10 10 10 6 0 10 -10 10 -23 0 -13 9 -33 20
-45 11 -12 20 -34 20 -50 0 -16 6 -35 13 -41 20 -16 28 -170 12 -243 -9 -45
-2 -77 23 -103 10 -11 33 -48 51 -82 18 -34 39 -64 46 -67 10 -4 10 1 -1 22
-16 31 -18 85 -4 111 12 24 37 33 46 18 4 -7 4 -9 -1 -5 -10 9 -34 -21 -35
-42 0 -13 2 -13 9 -1 11 18 48 24 56 11 3 -6 1 -10 -6 -10 -7 0 0 -13 15 -29
23 -24 25 -29 11 -34 -18 -8 -67 31 -58 46 3 6 1 7 -5 3 -33 -20 10 -66 63
-66 l30 0 -25 -14 c-17 -8 -32 -10 -45 -4 -19 9 -19 9 -1 -6 12 -9 29 -13 47
-9 22 4 30 1 36 -13 4 -10 18 -29 31 -41 32 -30 20 -48 -19 -28 -16 9 -29 21
-29 28 0 7 -16 21 -36 30 -31 15 -37 15 -50 3 -13 -13 -11 -18 12 -39 l27 -25
-29 -18 c-16 -9 -45 -28 -65 -41 -39 -26 -71 -31 -63 -10 3 8 -2 14 -11 14
-14 0 -19 -10 -16 -29 1 -12 -45 -33 -149 -68 -52 -17 -120 -47 -152 -66 -66
-40 -68 -40 -68 -14 0 30 -13 24 -35 -18 l-20 -37 -90 -6 c-60 -5 -113 -16
-159 -33 -38 -14 -71 -24 -74 -21 -3 3 -1 5 5 5 5 0 10 7 10 15 0 8 -3 15 -6
15 -9 -1 -46 -30 -38 -30 4 0 3 -8 -2 -19 -10 -18 -34 -26 -113 -38 l-38 -5 0
-84 0 -84 1720 0 1720 0 0 309 0 309 -32 5 c-18 2 -63 12 -100 22 -60 16 -74
16 -128 4 -33 -7 -60 -17 -60 -22 0 -5 9 -20 20 -34 31 -39 15 -40 -17 -2 -67
82 -91 99 -144 99 l-49 0 25 -55 c29 -66 20 -73 -14 -10 -13 25 -28 45 -32 45
-5 0 -9 8 -9 18 0 16 -24 38 -44 40 -5 0 -12 6 -16 12 -7 12 -50 25 -130 40
-25 4 -58 13 -73 19 -40 15 -49 14 -85 -12 l-32 -24 53 -36 c49 -34 93 -81 99
-106 4 -15 -338 -159 -349 -147 -3 2 15 37 40 78 39 65 157 307 157 323 0 3 9
27 21 52 16 35 20 60 17 101 -3 30 -9 57 -15 60 -18 13 -63 87 -63 104 0 10
-4 18 -10 18 -5 0 -10 5 -10 10 0 6 6 10 14 10 13 0 13 4 1 27 -8 15 -12 38
-9 50 5 19 2 23 -16 23 -13 0 -19 -4 -14 -12 4 -7 3 -8 -5 -4 -6 4 -9 11 -6
16 8 13 -6 40 -22 40 -7 0 -13 -6 -12 -12 4 -23 -13 -48 -32 -48 -10 0 -19 -7
-19 -15 0 -9 -6 -18 -14 -21 -8 -3 -23 -28 -32 -55 -10 -27 -21 -49 -25 -49
-4 0 -9 -9 -12 -20 -4 -17 -11 -19 -31 -14 -20 5 -26 2 -26 -10 0 -9 -4 -16
-10 -16 -12 0 -13 47 -1 52 11 4 -11 116 -28 143 -7 11 -31 33 -54 49 l-40 30
-15 -22 c-11 -16 -18 -19 -35 -12 -12 5 -50 14 -84 21 -65 12 -78 29 -19 25
28 -3 36 1 40 18 9 33 8 36 -20 36 -33 0 -64 -16 -89 -46 -30 -35 -95 -40
-143 -10 -32 20 -44 22 -87 15 -27 -4 -59 -10 -71 -14 -13 -4 -25 -1 -33 9
-35 41 -37 -17 -4 -75 14 -23 14 -28 -2 -53 -12 -18 -21 -24 -28 -17 -13 13
-37 3 -69 -31 -26 -26 -28 -34 -28 -106 0 -45 5 -83 11 -89 16 -16 -12 -45
-32 -32 -10 6 -10 9 -1 9 6 0 12 4 12 9 0 12 -56 34 -68 27 -5 -3 -15 16 -22
42 -17 64 -39 112 -52 112 -6 0 -27 14 -47 30 -94 79 -121 105 -127 124 -4 12
-9 23 -13 26 -31 25 -46 160 -17 160 8 0 17 7 20 16 5 14 16 16 70 10 70 -7
109 3 223 55 35 16 76 31 92 34 17 3 42 10 56 15 40 15 63 12 70 -10 6 -20 7
-20 25 3 12 15 20 45 23 87 2 36 7 75 12 87 6 18 0 26 -32 46 -31 20 -134 59
-150 57 -23 -2 -42 3 -57 15 -19 14 -18 15 7 36 15 11 25 24 22 29 -2 4 17 10
44 14 27 4 55 14 65 25 12 13 29 17 64 16 26 -1 57 2 69 6 12 5 25 4 27 0 3
-5 20 -7 38 -5 75 9 237 5 257 -5 11 -7 21 -8 21 -4 0 4 4 2 9 -6 6 -9 3 -19
-8 -30 -24 -24 -98 -61 -121 -61 -25 0 -70 -21 -70 -32 0 -5 -5 -6 -11 -3 -5
4 -28 -5 -50 -20 -45 -32 -40 -50 17 -61 28 -5 36 -12 41 -35 7 -37 20 -45 28
-19 9 28 23 25 23 -6 0 -14 6 -32 14 -40 18 -19 187 -31 214 -16 10 6 13 12 7
12 -24 0 -13 26 15 36 23 9 19 11 -38 12 -35 2 -67 6 -70 10 -3 4 -16 12 -29
18 -20 9 -21 11 -8 23 13 10 17 9 27 -8 16 -32 82 -29 108 4 22 28 37 32 49
12 9 -16 80 -30 88 -18 14 23 -65 60 -155 74 -14 3 5 5 41 6 53 1 71 -3 93
-20 22 -17 26 -18 26 -4 0 8 -16 25 -35 36 -19 12 -35 25 -35 30 0 5 0 12 0
17 0 4 6 7 13 8 6 0 26 6 42 13 l30 13 -28 14 c-23 13 -26 18 -16 30 10 12 2
14 -52 14 l-63 0 35 38 c20 20 41 55 47 77 19 65 23 67 69 51 46 -16 80 -6 43
14 -27 15 -111 77 -125 93 -12 14 -52 37 -140 80 -33 16 -61 33 -63 38 -2 5
-11 9 -21 9 -9 0 -26 6 -37 14 -15 12 -9 11 31 -1 28 -9 52 -20 55 -24 3 -4
19 -11 35 -15 16 -4 36 -16 45 -26 8 -11 22 -20 30 -21 8 -2 21 -6 28 -10 6
-5 17 -5 22 -2 6 3 10 -1 10 -9 0 -9 3 -16 8 -17 24 -2 45 -8 50 -15 4 -4 -2
-4 -12 0 -16 5 -17 4 -6 -9 7 -8 16 -15 21 -15 5 0 19 -10 30 -21 16 -16 23
-18 29 -9 5 7 3 21 -3 31 -8 13 -13 15 -19 6 -5 -9 -8 -8 -8 4 0 16 -43 61
-70 73 -35 16 -61 34 -61 42 0 5 -10 8 -22 7 -12 -1 -17 1 -10 3 10 4 10 8 0
19 -7 7 -15 11 -19 8 -5 -2 -8 1 -8 7 0 7 -8 9 -20 5 -21 -7 -25 12 -5 28 6 4
-2 5 -17 3 -16 -3 -28 0 -28 5 0 5 -9 9 -20 9 -11 0 -20 4 -20 10 0 13 53 3
120 -23 110 -42 270 -144 270 -171 0 -7 11 -23 24 -35 15 -14 22 -29 19 -39
-4 -10 -2 -13 5 -8 7 4 12 2 12 -3 0 -6 -4 -11 -10 -11 -16 0 -12 -189 5 -248
9 -29 19 -52 23 -52 4 0 8 -10 8 -22 1 -13 10 -74 22 -136 21 -116 39 -167 27
-77 -16 129 -24 183 -33 225 -5 25 -10 78 -11 119 0 41 -5 79 -10 84 -7 7 -3
20 10 39 17 23 24 26 35 17 16 -13 19 -85 4 -94 -8 -5 -7 -11 0 -20 7 -8 9
-19 5 -25 -3 -5 2 -10 13 -10 11 0 25 -7 32 -15 9 -11 15 -12 25 -2 7 7 11 16
8 20 -3 5 9 7 26 6 17 -2 31 1 31 6 0 6 -13 10 -29 11 -36 1 -51 11 -51 32 0
15 -2 15 -10 2 -7 -11 -10 -5 -10 25 0 22 -3 57 -7 79 -6 36 -5 38 14 27 18
-9 22 -7 26 11 8 27 1 38 -23 38 -21 0 -40 28 -33 48 3 6 0 12 -6 12 -13 0
-14 39 -2 59 15 23 45 -33 38 -69 -4 -16 -2 -32 3 -35 6 -3 10 -2 10 3 0 21
55 10 77 -15 27 -33 58 -25 49 12 -4 14 -3 25 2 25 20 0 32 -28 32 -73 0 -44
-2 -48 -22 -47 -13 1 -28 2 -34 1 -14 -1 -5 -62 10 -66 6 -1 30 -8 54 -14 31
-9 42 -17 42 -31 0 -11 5 -20 11 -20 6 0 9 7 6 15 -8 18 9 29 19 13 4 -7 7
-25 6 -40 -2 -18 5 -32 20 -43 16 -12 19 -19 11 -22 -15 -6 -18 -113 -3 -113
11 0 52 75 48 87 -2 5 7 18 19 30 19 19 20 27 13 54 -5 18 -14 35 -18 38 -5 3
-9 21 -10 39 -1 56 -34 186 -49 199 -8 6 -12 16 -9 21 3 5 -1 15 -9 22 -9 7
-13 21 -10 31 3 9 1 20 -5 24 -13 8 -13 78 1 92 15 15 1 73 -17 73 -8 0 -14 3
-15 8 -2 24 -10 120 -10 135 0 13 64 87 76 87 1 0 1 -12 1 -27 -1 -16 4 -39
12 -52 12 -20 12 -30 1 -63 -10 -32 -10 -46 0 -76 17 -46 39 -72 57 -66 47 14
47 14 34 29 -10 13 -10 19 4 33 9 10 16 32 16 48 0 17 4 34 9 39 5 6 12 31 16
56 6 41 4 47 -13 51 -12 4 -23 18 -27 37 -7 34 -28 51 -54 44 -36 -9 -68 14
-80 60 -11 37 -17 45 -37 45 -28 0 -38 -25 -30 -76 6 -35 5 -36 -9 -18 -17 22
-21 116 -5 116 6 0 10 9 10 21 0 11 -4 18 -9 15 -12 -8 -22 20 -15 38 7 19
-11 171 -33 268 l-18 78 -50 0 -51 0 -13 -45 c-7 -25 -22 -56 -32 -69 -23 -29
-24 -59 -4 -76 17 -14 21 -80 5 -80 -5 0 -15 9 -22 20 -16 25 -28 26 -28 2 0
-9 9 -23 20 -30 27 -17 15 -35 -19 -29 -14 3 -34 1 -43 -4 -10 -5 -18 -6 -18
-1 0 4 -7 17 -16 28 -14 18 -15 16 -9 -24 l5 -43 -32 3 c-30 3 -33 1 -31 -22
4 -55 16 -96 30 -107 13 -10 13 -27 -2 -140 -17 -130 -26 -183 -41 -217 -5
-14 -4 -17 4 -12 8 5 12 -1 11 -16 0 -13 -3 -17 -6 -10 -2 6 -8 10 -12 8 -4
-3 -8 4 -8 15 -1 11 -9 34 -18 52 -28 52 -35 94 -19 114 13 17 13 17 14 -3 0
-11 6 -28 13 -39 22 -29 28 -5 33 115 5 111 -2 134 -31 110 -12 -10 -17 -7
-25 15 -6 15 -10 32 -9 39 4 21 -12 91 -27 118 -8 14 -14 34 -14 43 0 14 -3
15 -14 6 -11 -10 -18 -7 -31 11 -16 23 -16 23 -30 4 -8 -11 -15 -23 -15 -28 0
-4 -5 -8 -11 -8 -7 0 -9 8 -4 23 13 39 8 68 -16 93 -28 30 -35 30 -43 -1 -9
-36 -28 -31 -24 8 2 17 8 31 13 30 6 -1 15 3 22 9 13 10 44 -2 75 -30 25 -21
22 -6 -9 55 -18 33 -35 53 -45 53 -10 0 -18 7 -18 15 0 25 -15 17 -27 -16 -7
-17 -16 -28 -21 -25 -10 6 -52 -30 -52 -44 0 -6 -7 -10 -15 -10 -14 0 -14 3 0
29 8 16 14 48 12 70 l-2 41 -92 0 -93 0 0 -30 c0 -17 9 -39 20 -50 24 -24 19
-56 -13 -91 -31 -33 -47 -67 -47 -100 0 -36 -14 -44 -42 -23 -16 11 -17 15 -5
11 11 -4 17 -1 17 9 0 19 -46 8 -74 -18 -11 -10 -26 -18 -33 -18 -24 0 4 38
47 65 60 38 69 62 70 185 1 20 8 40 17 48 14 10 4 12 -60 12 -42 0 -77 -3 -77
-7 0 -5 7 -17 15 -27 22 -29 18 -59 -18 -166 -26 -76 -36 -95 -50 -92 -9 2
-24 16 -31 30 -12 23 -12 33 1 70 11 33 12 51 4 74 -6 17 -11 40 -11 52 1 19
2 18 18 -6 9 -16 20 -28 23 -28 4 0 9 12 12 28 3 15 8 37 12 50 7 22 6 22 -83
22 l-90 0 -7 -32 c-4 -17 -8 -65 -9 -107 -2 -84 -8 -101 -37 -101 -11 0 -20
-7 -20 -17 -1 -10 -3 -35 -4 -56 -2 -37 -19 -67 -30 -55 -3 3 -7 34 -8 69 -2
35 -8 75 -14 89 -7 14 -18 45 -25 70 -15 51 -29 55 -42 11 -5 -17 -15 -31 -21
-31 -22 0 -27 -33 -14 -97 12 -60 12 -64 -10 -87 -17 -18 -22 -33 -19 -56 6
-40 -9 -49 -23 -13 -9 24 -7 36 17 82 23 45 26 56 15 73 -7 11 -16 66 -21 121
-4 56 -11 110 -15 120 -7 16 -32 17 -336 17 -205 0 -329 -4 -329 -10 0 -5 8
-26 18 -46 13 -28 14 -38 5 -41 -16 -6 -17 -67 -2 -96 7 -11 21 -30 31 -41 28
-30 42 -68 27 -76 -8 -5 -5 -20 9 -51 19 -40 21 -42 27 -21 15 49 40 17 49
-63 4 -39 14 -67 27 -81 23 -25 17 -53 -6 -34 -22 18 -35 2 -35 -41 0 -22 -7
-56 -15 -76 -8 -19 -15 -47 -15 -62 0 -31 -14 -56 -32 -56 -18 0 -30 -90 -19
-145 15 -81 12 -107 -14 -124 -17 -12 -25 -26 -25 -46 0 -17 -6 -39 -12 -50
-11 -16 -9 -26 7 -57 22 -41 40 -65 69 -94 11 -10 16 -22 13 -26 -4 -3 -21 8
-38 25 -42 43 -68 42 -35 -1 16 -21 10 -53 -11 -61 -12 -5 -13 -17 -7 -63 7
-57 6 -58 -13 -40 -11 9 -24 17 -30 17 -19 0 -32 50 -33 122 0 77 -4 105 -17
151 l-8 28 -23 -41 c-14 -26 -22 -59 -22 -89 0 -42 -12 -71 -30 -71 -13 0 -14
55 -2 205 5 73 4 154 -4 240 -7 72 -14 202 -16 290 -2 113 -6 164 -15 173 -15
15 -18 82 -4 82 5 0 12 -8 16 -17 15 -35 24 36 13 93 -8 40 -8 61 1 80 15 34
14 45 -4 38 -18 -7 -35 -65 -37 -128 -2 -40 -5 -46 -24 -46 -16 0 -28 -12 -42
-42 -25 -52 -31 -21 -7 35 8 20 15 50 15 67 0 16 5 50 12 75 10 36 10 50 0 65
-6 11 -9 32 -6 49 4 17 3 46 0 66 -7 34 -8 35 -56 35 -46 0 -49 -1 -55 -31z
m1493 -452 c6 -12 29 -55 52 -96 22 -40 40 -79 40 -87 0 -8 5 -14 10 -14 13 0
13 10 -6 86 -12 45 -23 68 -38 76 -39 21 -51 68 -17 68 30 0 135 -50 153 -73
10 -12 18 -16 18 -9 0 32 80 -2 80 -35 0 -15 -55 -19 -64 -4 -3 5 -16 9 -29 9
l-24 0 18 -72 c29 -110 33 -104 -73 -99 -79 3 -111 -1 -212 -26 -66 -16 -123
-28 -128 -25 -4 3 -16 -4 -27 -15 -27 -27 -67 -37 -87 -20 -13 10 -15 31 -12
107 l3 93 42 39 c47 44 90 60 104 39 17 -28 9 -73 -16 -92 -29 -21 -45 -15
-45 16 0 15 -3 18 -11 10 -14 -14 -7 -135 9 -141 8 -2 12 8 12 32 0 30 6 40
32 56 18 10 33 18 34 17 1 -1 4 -17 7 -35 4 -25 0 -39 -20 -62 -14 -17 -21
-30 -15 -30 5 0 28 24 52 53 24 28 33 43 21 32 l-24 -20 8 88 c11 135 13 139
71 152 58 13 68 11 82 -18z m803 -364 c38 -62 49 -94 43 -119 -5 -20 -2 -24
15 -24 14 0 21 -6 21 -20 0 -12 8 -38 18 -58 11 -25 15 -51 12 -81 -6 -56 -30
-68 -30 -16 0 43 -12 68 -54 115 -17 19 -21 26 -8 16 26 -22 28 -16 8 23 -12
23 -20 27 -45 23 -35 -5 -40 7 -11 26 25 15 27 77 4 110 -13 18 -12 42 1 42 1
0 13 -17 26 -37z m-2254 -548 c0 -13 11 -45 23 -71 14 -29 24 -69 25 -103 2
-31 6 -65 10 -76 6 -16 2 -15 -19 7 -14 15 -26 33 -26 40 0 7 -9 27 -20 43
-11 17 -20 37 -20 45 0 8 -9 33 -20 55 -30 62 -27 81 14 82 29 1 34 -2 33 -22z
m1952 -872 c43 5 61 -6 61 -37 0 -11 7 -27 16 -37 20 -22 26 -86 11 -113 -6
-12 -10 -24 -9 -28 1 -5 -5 -8 -13 -8 -8 0 -15 -4 -15 -9 0 -5 -15 -14 -32
-22 -18 -7 -35 -15 -38 -18 -3 -3 -27 -14 -53 -23 -41 -15 -49 -15 -54 -3 -8
21 -20 18 -26 -6 -9 -34 -25 -12 -22 28 2 22 -1 41 -8 45 -8 5 -8 11 -2 16 6
4 10 18 10 32 0 18 5 25 19 25 11 0 20 8 22 19 1 10 8 22 14 26 27 17 -12 16
-120 -2 -114 -20 -186 -17 -178 7 2 6 7 9 11 7 5 -1 6 6 2 17 -7 22 39 61 72
61 11 0 44 7 73 16 86 25 182 33 202 16 12 -10 31 -13 57 -9z m-525 -128 c11
-8 28 -15 39 -15 40 0 119 -33 126 -53 5 -14 10 -17 15 -9 9 15 53 15 62 0 5
-7 11 -3 17 13 9 21 11 22 15 5 3 -15 6 -16 13 -5 14 22 30 -9 26 -51 -2 -26
-8 -36 -22 -38 -15 -2 -17 -1 -6 6 10 7 11 18 6 38 -8 28 -9 28 -13 5 -2 -13
-12 -26 -23 -28 -10 -3 -19 -11 -19 -18 0 -6 -11 -17 -25 -23 -29 -13 -32 -6
-8 20 9 10 13 21 10 24 -4 4 -14 -8 -24 -25 -12 -21 -24 -30 -35 -27 -11 2
-18 -2 -18 -10 0 -8 -4 -14 -10 -14 -5 0 -10 5 -10 11 0 5 -5 7 -10 4 -20 -12
-57 23 -64 59 -7 35 -21 47 -28 24 -3 -8 -13 -6 -34 6 -30 18 -30 19 -20 67
11 54 12 55 40 34z m1820 -911 c13 -34 -61 -104 -109 -104 -67 0 -138 42 -129
77 5 18 17 23 77 31 117 15 154 14 161 -4z"/>
<path d="M2196 3424 c-9 -24 -7 -54 4 -54 6 0 10 -9 10 -19 0 -11 6 -21 13
-24 8 -3 5 -10 -10 -22 -27 -19 -29 -37 -8 -55 12 -10 16 -9 21 4 3 9 11 16
16 16 10 0 7 -30 -7 -80 -6 -21 -5 -23 6 -12 11 10 17 7 35 -15 28 -35 42 -23
25 20 -7 18 -17 52 -23 77 -6 25 -14 50 -18 55 -4 6 -11 30 -15 54 -6 34 -4
42 6 39 8 -3 17 -27 22 -54 9 -53 37 -97 37 -58 0 12 -7 34 -15 50 -16 34 -10
78 11 70 8 -3 14 0 14 7 0 20 -117 20 -124 1z"/>
<path d="M2811 3413 c1 -16 -2 -42 -6 -59 -5 -22 -2 -34 10 -44 15 -12 19 -11
35 10 23 30 31 23 41 -32 16 -96 22 -109 41 -90 7 7 11 36 9 71 -3 67 7 131
20 131 5 0 19 -22 31 -50 12 -27 25 -47 30 -44 5 4 7 12 4 20 -6 15 31 84 45
84 10 0 10 -15 0 -87 -9 -66 7 -71 34 -10 18 39 22 58 24 99 1 14 5 14 26 5
21 -10 24 -17 19 -41 -4 -18 0 -40 11 -60 17 -31 17 -34 -4 -74 -11 -22 -21
-50 -21 -61 0 -11 -9 -22 -20 -26 -23 -7 -24 -13 -10 -49 7 -20 6 -27 -7 -34
-9 -5 -23 -7 -32 -5 -11 3 -22 -5 -31 -21 -7 -14 -18 -26 -24 -26 -7 0 -11
-20 -11 -47 -1 -27 -9 -79 -18 -118 -23 -90 -37 -170 -38 -217 -1 -21 -8 -43
-15 -49 -17 -14 -18 -43 -3 -72 22 -41 53 -49 62 -17 3 11 14 20 25 20 11 0
25 7 32 15 7 8 19 15 26 15 11 0 12 -12 8 -55 -4 -35 -3 -55 4 -55 6 0 17 -2
24 -5 8 -3 34 10 59 30 24 19 51 35 60 35 27 0 50 34 44 66 -3 16 -1 43 4 59
8 25 9 26 10 8 1 -16 7 -23 21 -23 16 0 20 7 20 30 0 28 -2 30 -27 24 -23 -5
-26 -4 -15 7 19 21 15 49 -8 49 -20 0 -40 33 -40 66 0 14 2 13 16 0 20 -20 34
-20 49 1 18 25 34 7 33 -38 -1 -57 9 -59 32 -6 11 25 25 49 30 52 6 3 10 17
10 31 0 19 -5 24 -25 24 -14 0 -25 5 -25 10 0 6 11 33 25 60 35 70 30 123 -15
132 -8 2 -27 29 -42 60 -19 38 -32 56 -42 52 -7 -3 -16 3 -20 13 -4 10 -13 29
-21 43 -10 18 -12 36 -6 62 5 19 5 59 0 88 -5 29 -6 57 -3 62 3 4 -96 8 -221
8 l-225 0 1 -27z"/>
<path d="M3420 2660 c-6 -11 -8 -25 -5 -30 9 -15 -47 -190 -61 -190 -7 0 -20
10 -28 22 -12 17 -18 20 -28 10 -7 -7 -22 -12 -33 -12 -15 0 -28 -12 -40 -34
-20 -37 -51 -56 -90 -56 -28 0 -41 -16 -37 -47 2 -11 -2 -24 -7 -28 -6 -3 -11
1 -11 10 0 8 -11 20 -25 25 -16 6 -23 14 -19 25 3 8 2 15 -4 15 -5 0 -12 -18
-16 -40 -3 -22 -9 -40 -12 -40 -3 0 -17 9 -31 20 -14 11 -32 20 -39 20 -19 0
-18 -44 1 -60 8 -7 15 -19 15 -26 0 -8 11 -16 25 -20 17 -4 25 -13 25 -29 0
-12 7 -28 15 -35 8 -7 15 -20 15 -29 0 -14 2 -14 10 -1 5 8 10 31 10 51 0 19
6 44 14 55 14 18 15 18 22 1 4 -11 0 -33 -9 -53 -20 -42 -9 -84 24 -84 28 0
83 -56 75 -77 -4 -9 0 -26 8 -38 8 -12 12 -31 10 -42 -4 -15 5 -25 41 -44 46
-24 47 -25 51 -78 6 -71 11 -75 19 -14 12 94 13 97 34 79 18 -16 19 -15 29 12
9 25 14 28 41 24 l31 -4 0 115 0 116 -35 7 c-28 5 -45 19 -80 65 -26 35 -45
70 -45 85 0 21 -4 24 -20 19 -25 -8 -27 20 -4 53 15 22 17 22 34 7 10 -9 27
-14 37 -11 13 4 23 -3 35 -25 21 -36 32 -32 57 24 17 37 18 45 5 69 -18 35
-18 52 1 44 13 -4 15 10 15 94 0 55 -2 100 -5 100 -2 0 -9 -9 -15 -20z"/>
</g>
</svg>
