<?xml version="1.0" standalone="no"?>
<!DOCTYPE svg PUBLIC "-//W3C//DTD SVG 20010904//EN"
 "http://www.w3.org/TR/2001/REC-SVG-20010904/DTD/svg10.dtd">
<svg version="1.0" xmlns="http://www.w3.org/2000/svg"
 width="222.000000pt" height="226.000000pt" viewBox="0 0 222.000000 226.000000"
 preserveAspectRatio="xMidYMid meet">
<metadata>
Created by potrace 1.16, written by Peter Selinger 2001-2019
</metadata>
<g transform="translate(0.000000,226.000000) scale(0.100000,-0.100000)"
fill="#000000" stroke="none">
<path d="M968 1999 c-121 -13 -199 -43 -275 -107 -69 -57 -101 -101 -82 -113
16 -10 35 -12 26 -3 -10 11 57 43 68 33 15 -15 41 -10 60 11 10 11 21 17 25
15 4 -3 13 2 20 11 7 8 38 27 69 41 45 22 70 27 131 26 46 0 85 -5 100 -14 14
-8 43 -14 65 -14 27 0 39 -4 38 -12 -2 -7 2 -13 7 -13 6 0 10 6 10 14 0 8 11
13 30 12 20 -1 29 -5 25 -14 -6 -15 4 -42 16 -42 6 0 6 7 0 18 -7 14 -5 21 10
30 24 16 47 5 26 -11 -8 -7 -18 -23 -22 -36 -6 -20 -4 -23 9 -18 10 4 15 3 11
-3 -3 -5 3 -19 14 -31 10 -11 22 -36 25 -54 4 -18 13 -36 22 -39 8 -3 12 -10
9 -16 -3 -5 -1 -10 5 -10 7 0 10 -7 6 -15 -3 -10 1 -15 12 -15 13 0 14 -2 3
-9 -8 -5 -11 -16 -6 -30 4 -12 2 -21 -4 -21 -6 0 -11 5 -11 10 0 6 -5 10 -11
10 -6 0 -8 -9 -4 -20 3 -11 3 -20 -2 -20 -5 0 -9 -9 -9 -19 0 -15 4 -17 17
-10 33 17 32 9 -4 -26 -30 -29 -67 -86 -67 -103 0 -10 40 32 40 42 0 6 18 24
40 39 34 24 39 32 34 54 -5 19 -4 24 5 18 7 -4 10 -9 7 -12 -6 -7 13 -26 41
-41 20 -11 20 -10 13 26 -5 20 -16 75 -25 122 -32 159 -83 236 -196 293 -113
56 -217 78 -321 66z"/>
<path d="M890 1485 c-14 -8 -41 -22 -60 -31 -19 -9 -38 -21 -42 -28 -11 -16
-10 -56 1 -56 5 0 13 -10 16 -21 10 -31 55 -67 91 -75 44 -8 117 13 110 32 -3
8 -2 13 3 10 5 -3 14 1 21 9 7 8 19 15 27 15 7 0 23 9 35 19 l20 20 -21 27
c-11 15 -21 33 -21 40 0 19 -70 50 -116 52 -21 1 -50 -5 -64 -13z"/>
<path d="M2071 1476 c-1 -14 -6 -17 -23 -13 -12 4 -27 2 -34 -4 -16 -13 5 -59
28 -59 26 0 32 -19 13 -40 -21 -23 -56 -33 -48 -14 4 10 -4 12 -31 7 -31 -5
-37 -2 -48 22 -11 25 -10 29 10 43 12 8 22 21 22 28 0 18 -26 18 -37 1 -4 -7
-20 -18 -34 -24 -16 -7 -28 -22 -31 -37 -7 -34 8 -44 16 -11 4 14 13 25 22 25
12 0 14 -9 10 -47 -7 -51 5 -73 38 -73 28 0 46 -18 46 -47 0 -19 -5 -23 -29
-23 -17 0 -33 5 -36 10 -9 15 -45 12 -45 -4 0 -8 -6 -16 -13 -19 -8 -3 -12
-20 -11 -43 1 -22 -3 -45 -8 -51 -6 -7 -7 -20 -4 -30 6 -16 5 -16 -11 -1 -19
17 -97 28 -109 15 -4 -4 2 -7 13 -7 11 0 44 -8 74 -18 70 -24 116 -36 107 -27
-4 4 0 21 8 37 17 34 10 55 -12 33 -9 -8 -19 -15 -24 -15 -16 0 -22 21 -10 35
7 9 8 15 0 20 -16 10 -12 25 8 25 10 0 23 5 30 12 9 9 12 4 12 -22 l1 -35 22
26 c12 15 32 30 45 34 16 5 22 14 22 35 0 16 5 32 10 35 6 3 10 16 10 29 0 26
69 106 92 106 15 0 32 39 22 49 -3 3 -14 0 -24 -7 -21 -13 -53 -16 -63 -6 -3
4 -2 15 4 26 6 10 8 24 5 31 -2 7 -5 4 -5 -7z"/>
<path d="M542 1404 c-12 -8 -20 -19 -17 -24 3 -5 1 -11 -5 -15 -18 -11 -11
-43 15 -63 13 -11 29 -31 35 -46 5 -14 15 -26 21 -26 7 0 17 -7 23 -16 9 -12
21 -14 47 -9 33 6 37 10 47 57 15 64 15 105 0 111 -9 4 -8 6 2 7 27 2 -74 39
-110 39 -20 1 -46 -6 -58 -15z"/>
<path d="M896 1136 c32 -25 7 -50 -54 -54 -28 -2 -55 -9 -62 -17 -8 -9 -19
-11 -39 -5 -34 9 -59 -3 -71 -36 -6 -15 -15 -22 -25 -18 -21 8 -6 -34 61 -169
45 -93 51 -111 41 -128 -10 -16 -9 -21 3 -29 8 -5 17 -7 21 -5 3 3 15 -5 25
-17 14 -15 16 -22 7 -25 -7 -3 -13 -9 -13 -15 0 -6 6 -6 15 2 11 9 23 8 55 -6
46 -20 52 -38 14 -40 -14 -1 -34 -10 -44 -19 -18 -16 -19 -16 -25 6 -8 31 -75
65 -75 39 0 -6 12 -15 26 -20 20 -8 25 -15 21 -31 -4 -15 0 -23 14 -26 21 -6
24 -14 10 -29 -5 -5 -13 -24 -18 -43 -5 -19 -13 -36 -18 -37 -6 -2 -26 19 -45
45 -32 46 -60 57 -60 25 0 -8 -7 -14 -15 -14 -8 0 -15 7 -15 15 0 8 5 15 12
15 6 0 3 7 -8 15 -10 8 -17 15 -14 15 3 1 13 3 23 5 11 2 21 6 24 9 10 10 -9
26 -31 26 -15 0 -26 7 -29 20 -5 21 -41 28 -52 10 -13 -20 -27 -10 -21 15 9
34 -2 51 -18 29 -12 -15 -13 -15 -29 1 -9 9 -18 13 -19 8 0 -4 -2 -12 -3 -18
-2 -5 -3 -16 -4 -23 -2 -23 -21 -2 -21 23 0 13 -4 25 -8 27 -4 2 -15 19 -25
38 -14 30 -17 32 -17 12 0 -20 -4 -23 -32 -20 -30 2 -33 0 -30 -22 1 -14 11
-33 22 -42 27 -22 15 -27 -55 -23 -46 2 -63 8 -77 25 -10 12 -15 26 -12 31 3
5 -7 9 -22 9 -22 0 -25 2 -14 15 17 20 -10 31 -39 15 -19 -10 -21 -8 -21 18 0
15 -7 37 -15 48 -16 21 -20 48 -6 39 6 -3 7 9 4 30 -5 29 -3 35 12 35 11 0 15
5 11 16 -3 9 -6 20 -6 25 0 6 -5 7 -11 4 -6 -4 -8 -9 -5 -12 3 -3 1 -14 -5
-25 -10 -19 -12 -19 -30 -2 -16 15 -19 15 -25 1 -3 -8 -1 -25 6 -36 9 -17 8
-21 -5 -21 -8 0 -15 -3 -15 -6 0 -13 42 -74 51 -74 5 0 9 -12 9 -26 l0 -26
-33 21 c-17 11 -31 27 -29 36 2 8 -2 15 -8 15 -5 0 -10 -13 -10 -30 0 -18 5
-30 13 -30 8 0 22 -8 31 -19 16 -17 16 -19 0 -25 -10 -4 -22 1 -30 11 -12 16
-13 15 -14 -14 0 -23 4 -31 14 -27 9 4 16 -6 21 -33 4 -21 10 -32 12 -25 8 20
26 14 20 -8 -8 -31 10 -24 25 10 13 29 52 43 60 20 2 -5 17 -6 39 -1 47 11 66
-13 37 -44 -11 -11 -17 -28 -14 -37 3 -14 -2 -18 -22 -19 -15 -1 -31 -1 -36 0
-6 1 -22 5 -38 8 -23 5 -28 2 -28 -14 0 -26 -7 -32 -31 -26 -26 7 -24 19 4 27
20 6 20 7 5 17 -23 13 -33 12 -33 -3 0 -6 -6 -13 -12 -15 -7 -3 -13 1 -13 8 0
7 -2 10 -5 8 -2 -3 -1 -20 4 -37 6 -20 6 -32 0 -32 -5 0 -9 -51 -9 -115 0
-105 7 -134 25 -105 12 19 22 10 17 -16 -3 -19 -9 -24 -23 -21 -18 5 -19 -2
-19 -84 l0 -89 84 0 c83 0 84 0 93 27 l10 28 6 -28 c5 -18 14 -27 27 -27 11 0
20 5 20 10 0 6 -7 10 -15 10 -8 0 -15 4 -15 10 0 5 8 8 18 6 62 -13 82 -20 82
-27 0 -5 11 -9 25 -9 19 0 25 5 25 23 0 16 3 18 9 8 5 -7 14 -10 20 -7 6 4 11
0 11 -8 0 -19 26 -21 33 -3 4 9 6 9 6 0 1 -9 20 -13 59 -13 l57 0 28 54 c16
30 26 59 23 65 -4 5 5 22 19 37 23 25 24 28 7 40 -16 12 -16 14 3 28 19 15 19
15 -8 16 -15 0 -36 -9 -47 -20 l-20 -20 30 -6 c16 -4 30 -12 30 -20 0 -15 -35
-28 -50 -19 -5 3 -19 1 -30 -5 -16 -8 -20 -8 -20 4 0 8 6 17 13 19 7 3 5 6 -5
6 -10 1 -18 6 -18 12 0 6 9 8 20 4 15 -5 20 -2 20 10 0 12 -5 15 -16 11 -10
-4 -26 5 -44 24 l-27 29 23 16 c31 20 30 31 -3 43 -18 7 -22 11 -10 11 13 1
17 10 17 41 0 47 5 49 32 15 11 -14 30 -25 44 -25 21 0 23 -4 18 -24 -7 -27
20 -43 43 -25 7 7 15 10 16 8 17 -25 28 -59 23 -68 -15 -24 14 -9 32 16 11 16
24 25 28 21 4 -4 1 -15 -7 -24 -15 -18 -35 -52 -44 -74 -7 -17 -18 -37 -48
-89 -61 -108 -61 -111 2 -111 49 0 49 0 67 45 10 28 23 45 33 45 14 -1 14 -2
-1 -11 -10 -5 -18 -19 -18 -29 0 -10 -4 -22 -10 -25 -25 -16 -5 -25 56 -25 48
0 65 3 61 13 -6 17 13 80 27 90 7 4 3 9 -11 13 -34 9 -28 24 10 24 29 1 30 2
15 14 -25 19 -22 26 10 27 l27 1 -25 8 c-23 7 -12 15 18 11 6 -1 12 3 12 9 0
5 -4 10 -9 10 -14 0 41 56 62 63 11 4 17 17 17 36 0 26 4 31 35 37 19 3 38 11
42 17 3 5 2 8 -3 5 -5 -3 -18 -1 -29 3 -14 7 -8 8 22 5 29 -3 46 1 54 11 11
12 8 13 -14 8 -22 -6 -26 -4 -21 8 3 9 13 13 24 10 15 -4 18 -1 13 15 -4 16
-1 19 21 15 32 -6 34 7 4 27 -25 15 -65 14 -85 -2 -7 -5 -16 -7 -20 -5 -5 3
-19 -8 -32 -24 -13 -16 -27 -27 -31 -24 -4 3 -10 -5 -13 -16 -3 -12 -10 -18
-16 -15 -13 9 -56 -54 -54 -79 3 -19 2 -19 -5 -1 -8 17 -11 16 -29 -15 -28
-46 -79 -149 -88 -176 -3 -13 -10 -23 -15 -23 -12 0 1 35 56 143 80 158 114
198 210 244 61 30 209 31 261 2 21 -12 40 -23 43 -26 9 -9 -55 9 -65 18 -14
13 -25 11 -25 -6 0 -8 -8 -15 -18 -15 -10 0 -26 -13 -35 -30 -10 -16 -23 -30
-29 -30 -5 0 -8 -7 -4 -15 3 -8 1 -15 -5 -15 -6 0 -9 -7 -5 -15 3 -8 1 -15 -5
-15 -14 0 -59 -50 -59 -66 0 -8 -3 -14 -7 -14 -5 0 -17 -7 -27 -15 -16 -12
-17 -17 -6 -30 10 -12 9 -16 -4 -21 -10 -4 -14 -15 -12 -35 3 -24 0 -29 -19
-29 -17 0 -25 -8 -29 -27 -10 -40 -30 -83 -38 -83 -5 0 -8 -4 -8 -10 0 -6 135
-10 386 -10 364 0 386 1 379 17 -12 30 -11 46 4 51 8 3 11 0 7 -6 -3 -6 -1
-22 5 -36 10 -21 19 -26 46 -26 28 0 33 3 29 18 -3 9 -8 31 -12 47 -14 60 -99
189 -166 253 -10 9 -18 20 -18 24 0 12 -44 53 -54 50 -5 -2 -6 4 -2 13 5 13 1
15 -15 10 -15 -5 -19 -4 -15 4 4 6 -1 14 -11 18 -10 4 -24 13 -31 20 -14 13
-32 18 -32 7 0 -7 42 -48 124 -121 32 -28 55 -56 52 -62 -4 -6 5 -13 19 -17
18 -4 36 -25 61 -71 20 -35 34 -67 30 -70 -3 -3 -9 3 -13 13 -9 27 -51 83 -87
120 -17 16 -38 40 -46 52 -8 12 -18 22 -23 22 -5 0 -39 27 -75 61 -37 34 -94
75 -127 91 -33 17 -63 36 -67 42 -5 7 -42 11 -105 10 -73 -1 -92 1 -73 8 40
16 155 11 183 -6 13 -9 27 -13 30 -9 4 3 7 1 7 -5 0 -7 7 -12 15 -12 18 0 20
20 3 20 -7 1 -2 10 12 22 l25 21 -24 -8 c-16 -5 -21 -4 -17 4 10 15 -27 14
-42 -1 -6 -6 -14 -9 -17 -6 -3 3 1 12 9 20 19 20 24 50 9 55 -7 3 -13 -1 -13
-7 0 -6 -7 -18 -15 -27 -13 -13 -18 -13 -32 -1 -15 11 -16 11 -10 -4 5 -13 0
-19 -18 -24 -13 -3 -30 -2 -37 2 -19 12 -39 14 -32 3 3 -5 -6 -9 -20 -9 -14 0
-26 -4 -26 -10 0 -5 -10 -10 -23 -10 -13 0 -32 -7 -43 -15 -18 -15 -17 -16 16
-10 29 5 32 4 17 -6 -11 -6 -30 -9 -43 -6 -18 3 -24 1 -20 -9 3 -8 -1 -14 -8
-14 -7 0 -19 -7 -26 -16 -8 -8 -23 -20 -34 -26 -12 -6 9 22 45 63 71 80 97
116 63 88 -41 -34 -47 -28 -7 8 23 22 80 59 128 83 84 43 88 43 188 44 91 1
106 -1 130 -21 15 -12 57 -31 92 -42 36 -12 90 -32 120 -46 60 -26 158 -103
149 -116 -3 -5 1 -7 8 -4 17 7 71 -61 62 -77 -4 -6 -3 -8 3 -5 13 8 56 -51 49
-68 -3 -9 0 -12 10 -8 8 3 14 -1 14 -11 0 -8 8 -30 18 -48 15 -28 31 -74 59
-172 3 -11 1 -16 -6 -12 -5 4 -4 -6 4 -21 8 -15 15 -40 15 -55 l0 -28 90 0 90
0 0 81 c0 87 -9 108 -73 173 -16 16 -40 47 -53 68 -31 48 -45 65 -113 131
-120 115 -145 137 -158 137 -8 0 -16 7 -19 15 -3 8 -16 17 -27 21 -12 4 -41
20 -64 35 -23 16 -45 29 -50 29 -4 0 -34 13 -67 28 -36 18 -78 29 -110 31 -28
1 -67 6 -87 12 -20 5 -43 7 -50 4 -8 -2 -41 -7 -73 -9 l-59 -5 44 32 c24 17
47 35 50 40 9 12 145 10 169 -3 11 -6 25 -8 30 -5 6 3 10 1 10 -5 0 -6 12 -15
28 -22 15 -6 42 -17 61 -26 19 -8 44 -15 56 -16 13 0 21 -4 19 -8 -3 -4 11
-10 31 -14 19 -3 43 -16 53 -29 10 -12 28 -25 40 -29 12 -4 20 -12 17 -17 -10
-16 6 -33 16 -18 7 11 10 9 15 -8 7 -27 19 -30 28 -6 5 13 9 14 19 3 9 -10 9
-13 0 -17 -18 -7 -16 -23 2 -23 9 0 29 -16 46 -35 17 -19 38 -35 46 -35 8 0
11 -4 8 -10 -3 -5 -1 -10 4 -10 6 0 11 -6 11 -13 0 -7 13 -27 30 -45 17 -18
30 -37 30 -43 0 -5 9 -14 20 -21 11 -7 20 -18 20 -25 0 -6 9 -15 21 -18 18 -6
44 -49 41 -66 -1 -4 8 -9 18 -12 18 -5 20 0 20 57 0 73 -5 82 -112 190 -43 44
-78 83 -78 88 0 4 -7 8 -16 8 -8 0 -12 5 -9 10 3 6 2 10 -3 10 -6 0 -26 16
-45 35 -25 25 -40 33 -53 28 -12 -4 -15 -3 -10 5 5 8 1 10 -10 5 -14 -5 -16
-3 -11 11 5 12 2 16 -11 14 -11 -2 -18 5 -20 20 -2 12 -9 22 -15 22 -7 0 -34
15 -62 34 -27 19 -56 31 -64 28 -9 -3 -12 -1 -7 7 5 7 -3 15 -23 22 -17 6 -31
17 -31 25 0 10 17 4 55 -21 31 -19 57 -35 60 -35 10 0 185 -123 221 -156 22
-19 85 -81 142 -137 l102 -102 0 40 c0 22 -4 55 -9 72 -6 20 -6 35 0 38 5 4 9
88 9 190 0 182 0 185 -21 182 -18 -2 -21 4 -23 36 -2 24 2 41 10 44 6 2 14 13
17 23 3 13 -2 20 -19 24 -13 4 -24 11 -24 16 0 6 -4 10 -9 10 -6 0 -7 -16 -4
-35 4 -28 2 -36 -13 -41 -11 -4 -31 -20 -46 -36 -23 -24 -28 -26 -28 -11 -1
17 -1 17 -11 0 -7 -12 -7 -22 -1 -30 13 -17 20 -88 8 -84 -5 2 -10 16 -11 32
0 16 -6 30 -13 33 -7 2 -12 10 -12 17 0 7 -17 20 -37 29 -21 9 -45 20 -53 24
-39 22 -58 30 -90 37 -19 4 -41 12 -48 18 -7 5 -16 7 -20 3 -10 -11 27 -36 44
-29 7 3 20 -2 28 -10 14 -13 14 -16 0 -21 -8 -3 -12 -2 -9 4 4 6 -8 10 -29 10
-19 0 -38 5 -41 10 -4 6 -11 7 -17 4 -6 -4 -14 0 -19 7 -7 11 -9 11 -9 1 0 -9
-12 -11 -47 -7 -50 7 -198 -18 -220 -37 -7 -5 -17 -7 -23 -3 -17 10 -50 -5
-51 -23 0 -11 -3 -12 -6 -4 -6 16 -18 15 -38 -4 -9 -9 -19 -14 -22 -11 -3 3 2
13 11 23 13 12 14 19 5 30 -8 10 -14 11 -24 1 -7 -7 -10 -16 -7 -22 3 -5 -2
-4 -11 4 -15 12 -20 10 -38 -13 -14 -17 -30 -26 -50 -26 -16 0 -29 4 -29 9 0
5 -11 11 -25 13 -13 3 -22 1 -19 -3 3 -5 2 -9 -3 -9 -10 0 -35 78 -28 89 7 12
-33 37 -72 45 -17 4 -53 23 -80 42 -45 32 -89 50 -47 20z m92 -98 c33 -33 59
-65 56 -69 -3 -5 -21 -6 -40 -3 -21 3 -34 1 -34 -5 0 -7 -23 -11 -56 -11 -30
0 -64 -5 -74 -10 -13 -7 -36 -7 -67 -1 l-48 9 45 2 c58 2 76 10 75 35 0 11 15
37 32 58 18 20 33 42 33 47 0 20 17 9 78 -52z m826 -84 c97 -38 211 -106 236
-139 9 -12 17 -52 20 -107 6 -109 -5 -107 -13 3 -5 60 -11 87 -24 98 -57 52
-189 125 -212 116 -8 -3 -12 -3 -8 1 4 4 -5 13 -19 20 -19 10 -31 11 -46 3
-11 -6 -18 -7 -15 -2 4 6 -27 9 -77 9 -70 -1 -83 -3 -78 -16 3 -8 14 -21 24
-28 36 -26 6 -31 -34 -6 -30 19 -43 23 -48 13 -5 -8 -20 -10 -44 -6 -35 6 -59
-6 -34 -16 7 -3 -4 -6 -24 -6 -20 -1 -40 -6 -44 -12 -4 -8 -9 -8 -18 1 -16 16
12 32 44 25 18 -4 21 -3 10 4 -17 11 -16 12 30 30 78 30 157 48 218 49 53 2
80 -4 156 -34z m-1332 -396 c5 -13 33 -18 91 -18 24 0 27 -3 27 -35 0 -45 15
-73 43 -85 19 -7 16 -9 -16 -9 -21 -1 -47 4 -58 9 -11 6 -18 7 -17 3 2 -4 -1
-10 -7 -13 -17 -8 -17 56 -1 73 15 14 12 27 -6 27 -5 0 -6 -4 -3 -10 3 -5 -1
-10 -9 -10 -8 0 -18 5 -21 10 -4 6 -11 8 -16 5 -5 -3 -6 1 -3 9 3 9 1 16 -5
16 -15 0 -51 -37 -51 -52 0 -9 -3 -8 -9 2 -6 8 -7 18 -5 22 3 4 -2 8 -11 8 -9
0 -13 -4 -10 -10 3 -6 -1 -7 -9 -4 -20 8 -33 -23 -17 -39 8 -8 6 -15 -6 -29
-20 -23 -4 -23 36 0 27 15 33 15 40 3 10 -15 -9 -32 -51 -47 -23 -8 -23 -22
-2 -20 9 0 19 -5 22 -13 3 -10 0 -12 -11 -8 -9 3 -21 -1 -27 -9 -15 -18 -63
-19 -57 -1 2 6 12 11 22 9 10 -2 15 2 13 10 -5 16 -58 24 -58 9 0 -6 -6 -11
-14 -11 -8 0 -17 16 -21 37 -4 21 -12 41 -18 45 -19 12 -37 9 -37 -7 0 -8 -11
-22 -25 -31 -23 -15 -27 -15 -50 0 -30 20 -32 32 -6 45 14 8 20 7 25 -4 8 -23
34 -18 38 8 2 15 10 22 26 22 12 0 27 7 32 15 8 12 10 11 10 -7 0 -14 6 -23
15 -23 8 0 15 9 15 20 0 18 33 39 88 55 12 3 22 13 22 22 0 11 7 14 24 11 14
-3 31 -1 38 3 18 12 26 11 30 -3z"/>
<path d="M1839 238 c-1 -7 -1 -17 0 -22 1 -5 -7 -6 -18 -3 -17 4 -19 2 -11
-13 13 -25 13 -50 -1 -27 -5 9 -17 17 -26 17 -9 0 -13 6 -9 15 4 10 -1 15 -14
15 -24 0 -26 -13 -5 -34 17 -17 20 -30 5 -21 -5 3 -10 1 -10 -4 0 -6 4 -11 9
-11 13 0 23 -34 15 -54 -3 -9 -10 -13 -15 -10 -5 3 -9 -2 -9 -10 0 -9 7 -16
15 -16 9 0 15 -9 14 -22 0 -22 -1 -22 -9 -3 -10 23 -13 5 -4 -19 9 -24 129
-23 139 2 13 28 13 57 1 64 -8 5 -7 8 2 8 6 0 12 11 12 25 0 14 -4 25 -9 25
-4 0 -7 11 -6 23 2 13 -8 38 -22 55 -26 34 -42 41 -44 20z"/>
</g>
</svg>
