<?xml version="1.0" standalone="no"?>
<!DOCTYPE svg PUBLIC "-//W3C//DTD SVG 20010904//EN"
 "http://www.w3.org/TR/2001/REC-SVG-20010904/DTD/svg10.dtd">
<svg version="1.0" xmlns="http://www.w3.org/2000/svg"
 width="64.000000pt" height="64.000000pt" viewBox="0 0 64.000000 64.000000"
 preserveAspectRatio="xMidYMid meet">

<g transform="translate(0.000000,64.000000) scale(0.100000,-0.100000)"
fill="#000000" stroke="none">
<path d="M267 573 c-4 -3 -7 -21 -7 -39 0 -47 -15 -50 -40 -8 l-23 36 -38 -38
c-42 -41 -47 -58 -25 -83 28 -32 23 -45 -19 -51 -39 -5 -40 -6 -37 -40 6 -76
9 -81 46 -75 49 10 55 -10 16 -50 l-32 -33 21 -31 c35 -48 53 -54 87 -26 37
31 39 31 41 -6 4 -50 20 -62 72 -54 49 7 61 17 61 53 0 27 21 29 38 2 17 -28
26 -25 66 17 40 43 43 53 20 88 -16 25 -16 25 14 25 17 0 33 4 36 8 2 4 6 35
8 67 l3 60 -45 5 c-28 3 -40 8 -33 13 7 4 18 17 23 27 9 16 4 27 -26 60 -41
45 -58 49 -76 20 -21 -33 -38 -24 -38 20 l0 40 -53 0 c-30 0 -57 -3 -60 -7z
m118 -99 c19 2 42 9 50 16 14 11 19 10 38 -8 l21 -22 -22 -29 c-30 -41 -20
-61 30 -61 l39 0 -3 -37 c-3 -37 -4 -38 -43 -38 -50 0 -57 -22 -22 -67 l25
-32 -24 -19 c-23 -18 -26 -18 -43 -3 -26 24 -71 6 -71 -29 0 -15 -6 -25 -15
-25 -11 0 -13 8 -9 33 4 24 3 28 -5 17 -6 -8 -11 -23 -11 -32 0 -10 -5 -18
-11 -18 -7 0 -9 13 -5 37 6 33 5 36 -7 21 -12 -16 -15 -14 -27 17 l-14 34 -18
-29 c-20 -34 -33 -39 -25 -10 3 11 1 20 -4 20 -5 0 -10 -7 -10 -15 -3 -29 -4
-33 -12 -42 -10 -9 -3 74 8 100 4 10 1 27 -9 42 -9 14 -14 30 -11 35 10 16 -7
11 -28 -7 -19 -17 -20 -17 -8 5 10 20 9 22 -11 23 -13 1 -5 5 17 8 35 5 40 9
37 30 -2 13 2 28 10 33 10 7 8 13 -11 28 -23 20 -23 21 -6 41 19 20 19 20 40
-7 19 -24 23 -25 43 -13 12 8 22 24 22 36 0 17 7 22 33 25 29 3 32 1 35 -29 3
-29 6 -31 37 -29z m-215 -268 c0 -3 -4 -8 -10 -11 -5 -3 -10 -1 -10 4 0 6 5
11 10 11 6 0 10 -2 10 -4z"/>
<path d="M263 384 c-27 -21 -33 -32 -33 -64 0 -53 47 -95 98 -86 54 8 84 42
80 90 -3 43 -31 70 -83 80 -23 5 -38 0 -62 -20z m99 -31 c42 -37 5 -101 -51
-88 -45 10 -68 64 -39 93 17 17 68 15 90 -5z"/>
</g>
</svg>
