<svg viewBox="4 4 120 120" xml:space="preserve" xmlns="http://www.w3.org/2000/svg" enable-background="new 4 4 120 120"><path d="M104.3 54.1c-1-3.2-1.3-7.2-2.6-10.1-1.4-2.8-3.4-5.1-5.2-7.5-2.5-1.9-4.9-4-7.2-6.1-2.6-1.2-5-2.5-7.2-4.1-1.399-.1-3.3-.7-4.1-.9-1.1-.3-1.6-.4-2.3-.6-1.601-.4-3.4-.3-5.2-.6 0 0-.1-.2-.3-.3-2-.5-4.101-.6-6.4-.6-2.2.3-4.6.8-6.7 1.4-1.9.6-3.9 1-5.5 1.7-.4.2-.8.7-1.2.9-.3.2-.6.1-.9.3-.7.4-1.3.8-2 1.2-1.8 1-3.9 2.4-5.2 3.5-1.3 1.1-2.5 1.9-3.8 2.9-.1.1-.2.5-.3.6-.2.2-.6.1-.9.3-2.1 1.7-3.4 4-5.5 5.5-1 2.3-2.7 3.9-3.8 6.1-1.5 1.9-2.3 4.4-3.5 6.7-.2 3.2-.9 6-1.5 9-.4 9.4.9 17 3.8 23.2.9 1.101 1.7 2.301 2.6 3.5.9 1.2 2.2 2.101 2.6 3.801 1.5.399 2.1 1.8 3.5 2.3.4.6.9 1 1.7 1.2.1.399.6.3.9.6.9-.4.2.9 1.2.6.3.5 1.2.301 1.7.601.6.2.8.7 1.7.6 1.5 1.2 3.7 1.7 5.2 2.9 1.5-.101 2.6.3 3.5.899.6.101 1.2-.899 1.2.301.5.3.7.8 1.7.6 1.3-1 2-2.7 2.9-4.1.2-.9.4-1.9.9-2.601-.8-1.3.5-1.5.3-2.899-1-.9-3.1-.801-4.6-1.2-.5-.5-1.5-.4-2.3-.601-.7-.3-1.4-.5-2.3-.6-3-2-5.6-4.4-8.4-6.7-.7-1.8-2.1-2.899-2.9-4.6-.8-1.8-2.2-3-2.9-4.9-.3-3.3-.6-6.6-.6-10.1.2-4.9 2.4-9.8 4.3-13.9 2.8-3 5.2-6.3 8.7-8.7 6.7-3.5 13.6-6.9 22.6-8.1 3.9-.3 6.4.7 9.3 1.4 1.101.9 2.4 1.7 3.8 2.3 2.2 2.5 4.5 4.8 6.4 7.5.9 2.2 2 4.2 2.9 6.4.8 2.4 1.399 5 1.699 7.8v7.2C93.7 69.3 93.4 70.6 93.2 72.2c-.7.8-1 2.3-2.2 2.8-.5 1.2-1.3 2.2-2.3 2.9-1.2.5-2 1.399-3.5 1.699C83.4 79.5 81.5 79.4 80 79c-.5-3.8-.6-9.7.6-12.7.4-1.6-1.2-1.3-.9-2.9.7-.8.399-2.5 1.2-3.2.1-1.4.6-2.3.899-3.5.4-1 1-1.9 1.2-3.2.6 0 .1-1.2.3-1.7.9.1.9-.6.9-1.5-1.3-2-4.4-2.2-7-2.9-1.101.4-.7 2.4-2.3 2.3-1.4-.1-1.301-1.6-2.9-1.4-1.7-.4-3.3-.9-4.9-1.4-2.8.2-4.8-.5-7.5-.3-6.4 1.4-9.4 6-13.3 9.9-2.5 5.8-4.9 13-4.1 21.2 1.6 3 3.5 5.7 5.8 8.1.5 0 .7.2.9.601.9.199 1.7.6 2.3 1.199 1-.1 1.4.5 2.3.601.8.2 1.8.1 2.3.6 1.5.5 3.4.7 5.5.601 1.4-.301 2.3-1.2 3.5-1.7 1-.8 2.7-.9 3.8-1.7 1.5 1.6 3.601 2.6 5.5 3.8 3.101.4 5.5 1.5 9 1.4 1.2-.2 2.301-.4 3.5-.601 1.801-.8 3.5-1.699 5.5-2.3.601-.7 1.5-1 2.301-1.399.699-.601 1.3-1.4 2.3-1.7.3-1.101 1.3-1.4 1.7-2.3.1-.601.8-.601.899-1.2.101-.601 1.101-.2.9-1.2.899-.2.399-1.9 1.399-2 .2-1.1 1.101-1.4 1.2-2.6.601-.7.7-1.801 1.2-2.601-.2-.8.4-.8.3-1.399.5-.2 0-1.4.601-1.4C105.4 64.4 104.3 59.2 104.3 54.1zM52.1 96.4h.9c-.1.399-.5.5-.6.899-.2.101-.3-.1-.3-.3V96.4zm1.2 3.8c-.2-1.5.5-2 .3-3.5.4-.4 1.3-.3 2-.3.1.699-.5.6-.3 1.399-.3-.1-.5-.3-.6-.6-1 .6-.8 1.8-.6 2.899-.3.4-.8.7-.9 1.4-.4-.2-.7-.4-1.2-.6.4-.198.9-.398 1.3-.698zm-3.5-2.3c.7 0 .1 1 0 1.199-.1.5.3 1.5-.6 1.2 0-1.099.6-1.499.6-2.399zm-4.6-5.5c-.1.3-.3.199-.3 0 .1-.4.3-.2.3 0zm-2 1.1c-.3.7.9 1.4 0 1.7-1.1.3-.2-1.5-.9-1.7.2-1.2-.3-1.7-.3-2.6 1.4-.2 1.2 1.4 1.2 2.6zm-8.4-10.4c1.4.601 1.5 2.5 3.2 2.9.6 1.4 1.5 2.4 2.6 3.2-.6 1.399-1 3.1-.9 5.2-1.3.2-.7-1.6-.9-2.6-.5-1.5-.1-4-1.2-4.899-1.4-.2-1.3 1-1.4 2-.1 1-.5 1.699-.3 2.899-1.7-.399-.4-3.7-1.2-4.899.1-1.301.1-2.501.1-3.801zm-7.9-10.4c-.4-.4-.5-1.3-.6-2h.9c.2.9-.5 1-.3 2zm.6 4.3c-.8-.7-.7-2.4-.9-3.8.7.1.5 1 1.4.899.1 1.201-.5 1.801-.5 2.901zm-.9-11.6c-.7-.5-.1-2.2-.3-3.2.3-.8.3-2 .3-3.2.9.2 1.5.8 1.7 1.7-.9 1.3-1.3 3-1.7 4.7zM31 76.7c-.3.1-.2.6-.6.6-.4 2.2-.8 4.2-.9 6.7-.7-.1-.3-1.3-.9-1.5.7-3.5 1.1-7.4 1.7-11 .7 1.2.4 3.3 1.2 4.3.2.7-.5.5-.5.9zm-.9-8.7c.4.1.7 2.6-.3 2.3.2-.6.4-1.3.3-2.3zm2 15.1v-3.8c.5.3.6 1.101 1.2 1.4-.4.8-.1 2.3-1.2 2.4zm1.2-29.8c0 .5-.2 1-.6 1.2-.8 2.8-1.6 5.6-2.3 8.4v2.3c-.4-.4-.9-.2-1.2.3-.8-1.1.1-3 0-4.3-.3-.9 1-.4.9-1.2-.3-1.8-2-2.2-2.6-3.8-.2-1.5.6-1.9.6-3.2 1 .1.8 1.3 1.5 1.7.4.7.9 1.2 2 1.2 1.2-.4.3-2.5-.3-2.9-.3-1.2-.9-2-1.2-3.2.3-.2.4-.5.6-.9.8.8.7 2.4 1.4 3.2.5-.2 1.2.8 1.4 0 .8.1.1 1.1-.2 1.2zm1.7-2.7c-1.3-.8-1.4-2.9-2-4.3-.2-1.1.7-1.2.9-2 1.1.1.5 1.8 1.2 2.3.3.7.9 1.1 1.7 1.2-.3 1.2-1.7 1.4-1.8 2.8zm3.8-10.7c.1.7 0 1.1-.3 1.4-.2 2.1 1 4.2-.6 5.2-.9-1.2-1.5-2.6-1.4-4.6.4-1.5 2-1.9 2.6-3.2.7.1 0 1.1-.3 1.2zm3.5-.8c-.9-.1-1-.9-2.3-.6 0 .4-.4.2 0 0 .4-1.1 1.8-1.3 2.3-2.3.9.7-.4 1.7 0 2.9zm4-3.8v3.8c-.8.1-.9.9-1.7.9-.4-2 .2-3.6.3-5.8.9-.1 1.1-.8 1.7-1.2.5.2-.1 1.8-.3 2.3zm5-3.2c0 1.3-.7 2-.6 3.5-.3.3-.3 1-.3 1.7-.8-.2-.8.4-1.5.3-.1-1.9-.3-3.8-.6-5.5 1.3-.7 2.5-1.5 3.8-2.3.6.5-.5 1.8-.8 2.3zm1.7 3.8v-6.4c.9-.3 1.7-.8 2.9-.9-.9 1.1-1.5 2.6-1.7 4.3.1 1.7.7 2.9-1.2 3zm4.9-1.5h-1.2c.6-1.7.1-5.2.3-6.4 1 .2 1.1-.4 2-.3-.7 1.2-.6 3.2-1.2 4.6-.1 1.1.6 1.6.1 2.1zm3.8-.9h-1.4c-.1-2.6.6-4.2.9-6.4h2c-.5 1.1-1 2.2-1.4 3.5-.5 1.5.3 2-.1 2.9zm4.1-.5h-2c.9-1.8.9-4.5 2-6.1.2.2.5.3.9.3-.3 2-.7 3.8-.9 5.8zm7.8 0h-3.199c.199-1.8.3-3.6.899-4.9h1.2c-.1 1.4-.8 2.1-.6 3.8 0 1.3 1.8.1 1.7 1.1zm.6-4.1c.1-.3.3-.2.3 0-.1.3-.3.2-.3 0zm4 4.9c-.9-.2-1.9-.2-2.601-.6.601-1.1 1-2.3.9-4.1 1-.2 1.1.4 2 .3-.199 1.5-.399 2.8-.299 4.4zm-.6 16.6c.2-.2.801-.2.9-.6 1.5-.2.7 1.9 2 1.7-.4 2-1.4 3.4-1.4 5.8-1.6-.4-.5-3.4-1.5-4.3-.7-.4-1.2.9-1.4 0 .3-1.1 1.2-1.5 1.4-2.6zm.9 8.7c-.4-.1-.2-.7-.3-1.2 1.2-.1 0 .4.3 1.2zm-1.1 3.7c.899.2-.2.9 0 1.4-1 .2-1.2-.3-1.7-.6-.2-.9 1.5-.1 1.7-.8zm-.3 4.1c-.2.3-.3.7-.3 1.2-1-.3-2.1-.6-2.3-1.699.9.099 1.8.099 2.6.499zM67.8 55c.2.2-.2.4-.3.3-.1-.2.2-.4.3-.3zm-3.2-5.8c.4-.2 1.5.3 1.4-.3 1.2 0-.3 1.2-.3 1.7-1.2-.2-3.1.4-3.8-.3.2-1.1 2.1-.5 2.7-1.1zm-2.9 4.1h1.2c-.6 1.1-.4 2.9-.9 4.1-.7-.9-.1-2.9-.3-4.1zm0-3.2c-.5 1.1-2 1.3-3.5 1.4.9-.7 2-1.3 3.5-1.4zm-2 3.4c.1 1.2-.7 1.5-.6 2.6-1.2-.3-1.2-2.8.6-2.6zm-.9 3.5c.9.5-.6.9-.6 1.4-.4-.1-.2-.7-.3-1.2.4.1.9.2.9-.2zm-11 20.9c-1.7-.7-.5-4.301-.9-6.4.3.2.7.3 1.2.3-.3 1.9-.4 3.9-.3 6.1zm-.3-9.3c-.5.1-.5-1.6 0-1.5.2-.5.1-1.199.6-1.399-.2-1.2.4-1.5.3-2.6.6-.4.6-1.3.9-2 .4.1.5.5.9.6C49.5 64.2 49.1 67 47.5 68.6zm2.3 12.5c0-.3.5-.199.9-.3.1.9 1.3.8 1.2 2-1-.2-1.3-1.3-2.1-1.7zm.9-21.5c-.7-1.3 1.2-2 1.4-3.2.3 0 .2.5.3.9-.8.5-.5 2.2-1.7 2.3zm2.6 15.1c-.8.1-.7-.601-.9-1.2h.9v1.2zm2.9-22c0 .7-.5.9-.3 1.7-.9.3-1.4 1-2.3 1.2-.6-1.6 1.1-2.6 2.6-2.9zm-2 6.6c.9.3 1.5 1 1.7 2 1.7-.5 2.6-1.9 3.8-2.9 1.4 0-.3.4 0 1.2-.3.2-.7.3-1.2.3-.4 1.3-1.6 1.9-2 3.2-.8 0-.7-.8-1.2-1.2-.9 0-1-.8-1.7-.9-.1-.8.6-.8.6-1.7zm-.3 5.5c.9.2.9-.5 1.7-.3-.5 1.6-1.4 2.8-1.7 4.6-.5-.7.3-2.7 0-4.3zm.6 15.1H56c.2-2-1.7-1.9-1.7-3.801 1 .7 1.4 1.9 2.6 2.301-.4.899-.3 2.399-.3 3.8-1-.5-2.4-.5-2.1-2.3zm.3 3.8h2.3c0 .5.4.6.3 1.2-.8-.5-2.6 0-2.6-1.2zm5.7 1.1c-1.9-.3-2-2.5-2.6-4.1v-1.4c.9.2 1.5.9 2.6.9 0 .7-.5.899-.3 1.7-.8-.1-1.2.1-1.2.9.2 1.1 1.8.7 1.5 2zM56.2 75c0-.5-.2-1-.6-1.2.5-8.2 3.7-13.7 9.9-16.2 2.5 0 4.7.2 5.8 1.4.7 3.6-.5 7.8-.899 11.3-.5.7-1.2 1.3-1.4 2.3-2.2 1.2-3.6 3.301-6.4 4.101C59.9 76.7 57.5 76.4 56.2 75zm6.1 9v-.6c.6-.101.6.399.6.899-.3-.099-.3-.299-.6-.299zm-.6-2.3c0-.4 0-.8-.3-.9 0-.6 1.2-.1 1.7-.3.1.9-.7 1-1.4 1.2zm3.2-3.2c0 .2 0 .3-.301.3-.1.5-.5.7-1.2.601.2-.4.6-.5 1.2-.601.001-.2.001-.4.301-.3 0-.4.4-.2 0 0zm.9 4c-.6 0-.1-1.2-.3-1.7.4.4.6 1.4.3 1.7zm5.5-4.9c-.6-.6-.5-1.8-1.399-2-.9.101-.7 1.4-1.2 2 .1 1.101 1.1 2.7 0 3.2-.8-1.1-1.3-2.399-1.2-4.3 1.4-.8 2.5-1.9 3.5-3.2.899 1.3.799 2.6.299 4.3zm-.6-26.1c-.2-1.1.399-1.4.3-2.3 2 0 2.8 1.2 3.2 2.9-.8.2-.601-.6-.9-.9-1.7 1-1 5.4 1.2 5.2 0-.2 0-.3.3-.3.2-1.6-.899-2-.899-3.5.5.7 1.3 1 1.699 1.7 0 .9.2 1.9-.899 1.7 0 .2 0 .3-.3.3v.9C73.3 57 73 56.1 71.8 56c-.3-1.5 0-3.6-1.1-4.5zm1.4 20.9c.301-.801 1.7 1 2 1.199-.5 0-.6.301-1.1.301-.1-.7-.3-1.3-.9-1.5zm2.4 11.3c-.7 0-.6-1-.6-1.7.7 0 .6.9.6 1.7zm.2-3.8c-1.2.199-.8-1.101-.9-2 .4.199.7.399 1.2.6.2.7-.5.6-.3 1.4zm1.5-2.9c-1.601-.2-1.7-2-2-3.5 1.1.1 1.1.4 2 0V77zm.3-5.5c-1.7-.3-3.2-1.4-2.6-3.2.6.4 1.1.8 1.399 1.4.501.5 1.501.6 1.201 1.8zm.3 8.4c.3.1.2.6.601.6-.201.8-1.001 0-.601-.6zm.6 6.7c-.1-1-.4-1.9-.3-3.2 1-.101 1.601.1 2.301.3.199 1.2.6 2.1.6 3.5-.601-.5-2.001-.2-2.601-.6zm6 .6c-.101-1.5.5-2.4.899-3.5C85.6 84 85.5 85.6 86 86.6c-.9.1-1.5.5-2.6.6zm3.8-6.1c0 .3-.4.2 0 0 0-.4.4-.2 0 0zm2.6 3.7c-.7-.7-.2-2.7 0-3.5.2-.1.3.101.3.3.101 1.101 1.2 1.101 1.4 2-.6.4-1.2.7-1.7 1.2zm4.1-3.4c-.5.8-1-.9-1.4-1.2-.2-.7-.8-1.101-.9-2-.1-1.5 1.4-1.5 1.7-2.601 1.5 1.201-.4 4.201.6 5.801zm4.3-33.1c.3 0 .5.1.6.3.601 1.5 1.4 2.8 1.7 4.6-1.2.2-1.9-.2-2.9-.3.2-1.5.5-3 .6-4.6zm-1.1 14.8v-2.9c.301.1.2.6.601.6-.701.3.099 2.1-.601 2.3zm-.9-8.1c.899.1 1.5.5 2 .9.2 1.1-.4 1.4-.3 2.3-1.6 0-1.5-1.8-1.7-3.2zm0-11.6c.399.4 1.1 1.2.6 1.7-.8 0-.6-.9-.6-1.7zM88.1 33c1.101.3.2 1.5.301 2.3-.701-.2-.101-1.6-.301-2.3zm-5.5 2.9c-.899-.1-1.3-.6-2-.9.801-1.1-.199-3.9.601-4.9.899.2 1.5.9 2.6.9-.901 1.1-1.001 3.1-1.201 4.9zm3.2 2.3c-1.5-1-.6-4.4-.899-6.7.5-.1.5.3.899.3.3 1.7-.4 4.3 0 6.4zm3.1 3.5c-.9-.3-1-1.4-1.7-1.7.2-.7 1.6-.1 2.3-.3.2 1-.2 1.5-.6 2zm3.8 6c-1.3-1.4-1.9-3.5-3.2-4.9.6-.5 2.2.5 2.9.9.1 1.7.8 2.3.3 4zm0-8.6c-.2-.6-.5-.4-.9-.9V37c1.4 1.1 2.5 2.5 3.2 4.3-.6-.1-.9.1-.9.6-1.5 0-.9-1.7-1.4-2.8zm1.2 10.7c0-1 .899-1 .899-2 1.3.6-.2 2.4.3 4.1-.699-.6-.799-1.5-1.199-2.1zm2 29.5c-1.101-.8.8-1.1.899-1.7.2-1.3-.8-1.3-.899-2.3-.601-.399-.601-1.6-1.2-2 0-.899.8-1 .899-1.7 1.601.5 2.2 1.9 4.301 1.7-.8 2.5-2.6 4-4 6zm4.3-7.8c-1.601-.3-2.101-1.5-3.5-2-.2-1.1.5-1.2.3-2.3 1.1.899 2.1 1.8 3.5 2.3.3 1-.4 1.1-.3 2zm.6-5.2c-.6-.5-1.399-.7-1.7-1.5.101-.9.9-1.3.9-2.3h.9c.6 1 .1 2.8-.1 3.8zm.3-6.4c-1.199-.4-.1-1.8-.3-2.9.7.4.1 2 .3 2.9z" fill="#ffbd69" class="fill-000000"></path></svg>