<svg viewBox="4 4 120 120" xml:space="preserve" xmlns="http://www.w3.org/2000/svg" enable-background="new 4 4 120 120"><path d="M2576.223 2568.208c-.037-.726-.416-1.104-1.141-1.137-.49-.654-1.609.463-2.568.282-.537.8-1.271 1.391-1.43 2.566-.499.736-.113 2.355-1.139 2.566-.623.27-2.562-.173-3.994 0-1.393-.032-3.01.152-3.996-.281-2.824-.03-5.418-.293-7.701-.858-3.721.657-8.646.104-12.838.284-.936-.012-1.092-.811-2.283-.57-1.217.117-2.938-.274-3.709.286h-1.996c-.547-.132-1.229.878-1.145-.286-.402-.023-.807-.048-.855.286-1.211.218-2.496.354-3.705.572h-4.851c-1.085.161-3.3.683-4.28 0 1.584-2.979 3.232-5.898 4.564-9.132.602-1.68 1.36-3.203 2.282-4.564.259-.881.711-1.568 1.14-2.281.743-.214 1.168-1.602.568-2.281-2.271-.707-3.75 1.468-4.56 3.14-1.197 1.559-1.863 3.655-3.142 5.133-2.024 3.396-4.193 6.649-5.99 10.272-2.391-.012-4.312.441-6.562.567 1.134-3.337 2.709-6.228 4.28-9.129 1.002-1.188 1.368-3.003 2.565-3.993.328-1.542 2.275-2.779 1.428-4.565-2.111-.995-3.284 1.229-4.28 2.282-1.23 1.053-1.935 2.629-3.138 3.709-.709 1.572-1.664 2.9-2.565 4.279-.188.954-.889 1.396-1.144 2.282-.463.679-.641 1.642-1.14 2.282v1.999c.345-.091.981.823.284.854-1.752-.148-4.129.327-5.421-.284 1.567-1.379 2.159-3.735 2.854-5.99 1.03-1.819 1.598-4.105 2.565-5.991.682-2.265 1.803-4.093 2.568-6.277.323-1.101 1.229-1.623 1.424-2.852.572-.608 1.646-1.789.854-2.853-2.416-.846-3.817 1.657-4.848 3.135-1.371 1.486-2.371 3.336-3.139 5.423-1.969 3.641-3.508 7.715-4.852 11.98-.326.337-.322 1.011-.283 1.714-.273.531.854.951 0 1.143-1.201-1.084-1.648-2.917-1.711-5.138-.053-.621.231-.905.854-.857.039-.528.187-.95.568-1.137.437-2.42 1.445-4.265 1.998-6.563.914-1.844 1.334-4.183 2.283-5.991.705-2.052 1.071-4.444 2.28-5.988.201-2.218 2.397-3.83 1.431-6.278-1.609-.574-2.837 1.484-3.711 2.566-.771 1.512-1.843 2.723-2.283 4.564-1.879 2.588-2.742 6.199-4.277 9.131.306-.905-1.106-2.398.283-2.567.551-.593.902-1.384 1.428-1.999.979-3.965 2.271-7.62 3.425-11.41.737-1.734 1.35-3.596 1.996-5.42.446-.791.887-1.589 1.143-2.568.701-.256.771-1.996.283-2.568-.619-.477-2.568-.459-2.852.287-.853.021-1.187 2.025-1.714 1.425a29.447 29.447 0 0 0 1.427-4.563c.606-1.158 1.747-2.992.571-4.279-3.158-.968-4.123 2.465-5.135 4.565-1.031 2.297-1.57 5.085-2.854 7.13.158-4.214 1.189-7.559.855-12.265-.139-.902.516-1.009.285-1.998.182-4.193-.367-9.119.284-12.841 4.218.223 7.5-.485 10.845-1.14 4.895.104 6.59-.462 10.84.285 2.43 2.419 3.25 6.448 4.563 9.983.656.577 1.449 1.022 1.996 1.713.838.3 1.892.393 2.57.855 12.469.119 24.617-.999 36.801-.284 3.125.775 6.554 1.245 9.129 2.564 1.181-.037 2.203.08 2.855.571 1.018.025 1.957.134 2.282.855.666 1.443 0 2.509 0 3.708.537.697.609 1.862.566 3.14.495.65.612 1.674.572 2.854 1.301-.257 1.615.477 2.565.569 1.437-2.692 1.416-8.226.855-11.979-.544-.787-1.164-1.5-1.711-2.283-.547-.782-2.166-.498-2.566-1.43-.643-4.255 1.673-8.312-.571-10.839-5.449-.635-12.209.035-17.404-.858-11.451.91-24.973-.247-35.375 1.713-.914-2.315-2.019-4.448-3.709-5.989-4.049-1.873-7.392-1.186-11.983-1.426-4.686.541-8.312 2.146-13.405 2.282-.845.394-1.157 1.315-2 1.71-.473.764-1.965.505-2.565 1.143-.488 1.605-1.403 2.777-1.713 4.563-.162 3.828.346 8.332-.284 11.695.649.396.104 1.987.284 2.854v8.845c.547 4.306 1.094 8.608 1.713 12.838v7.418c.682 3.4.635 7.09.854 11.412.232 4.521 1.252 8.342 3.14 11.129.713-.049.894.437 1.139.854 1.74.547 3.495 1.073 5.424 1.427h10.841c8.75-1.237 20.086.114 28.53-1.427h13.406c.94.199 1.824.459 2.854.572 6.377.143 12.818 1.555 19.4.566 1.42-.859 2.076-2.486 3.137-3.709.185-1.431.756-2.476.855-3.992.407-.364.513-1.707-.268-1.712zm-51.355-58.77c5.741-.48 13.372-.461 19.114 0 7.323-.191 14.094.174 20.254 1.142h5.137c-.211 1.788-.387 3.604-.283 5.706-3.098-.991-6.097-2.082-9.701-2.566-7.748.416-15.762.184-23.395-.287-4.412.182-8.229-.072-13.122 0-.55-1.063-.901-2.327-1.143-3.707 1.179.035 1.789-.497 3.139-.288zm53.921 43.651c-.162-2.442.191-4.373.285-6.561-.586-1.259-2.017-1.411-2.853-2.283-.942-.679-2.182.233-2.854-.285.108-2.844-.266-6.159.288-8.559-.542-.79-.78-1.884-1.427-2.568-.92-.508-.978-1.877-2.283-1.998-.035-.631-1.21-.12-1.713-.284-.242-.425-.717-.613-1.426-.568-1.938.34-3.978.584-6.276.568-.899 1.003-2.153 1.653-3.138 2.566-.957 1.515-1.728 3.22-2.57 4.85.199 2.387-.479 3.895-.283 6.278-1.865.04-3.482.32-4.85.854-2.623 4.521-.299 11.021-1.144 16.832.039 1.104 1.156 1.127 1.427 2 .17 1.062.998 1.473 1.428 2.28 4.156 1.739 10.342 1.449 16.264 1.427 1.84-.632 3.377-1.567 5.135-2.282 1.217-1.733 3.174-2.72 3.99-4.851.83-.822-.553-.892-.283-1.997 1.31-1.253 1.723-3.411 2.283-5.419zm-17.404-18.831c1.2-1.129 3.478-.857 5.422-.566.285.378.269 1.059.857 1.141.393.174.041 1.098.568 1.143v7.986c-2.585.664-6.148.147-8.844 0-.111-4.013.768-7.033 1.997-9.704zm12.27 24.537c-.655.771-1.013 1.841-1.999 2.282-.543.787-1.113 1.551-1.996 1.998-2.127-.457-4.592.237-6.851.282-1.012.023-2.017-.176-3.134-.282-1.206-.118-2.612.03-3.425-.286-.117-.048.01-.27-.289-.284-.479-.026-.576-.827-1.142-.854-.516-.029-.458-.935-1.138-1.144.021-.405.046-.811-.288-.854-.21-2.303.465-3.723.288-5.991.069-.976.72-1.371.569-2.565.176-.775-.363-2.27.285-2.567.778.207.573-.568 1.141-.57 6.28.279 12.686.438 18.826.854.404 1.902.068 4.062-.566 5.706.128 1.645-.116 2.918-.281 4.275zm-7.421-8.274c-1.361-.648-3.036-.037-4.279.284-.373.861-.92 1.55-.854 2.854.257 1.264 1.369 1.673 1.998 2.568-.444.414-.602 1.109-.571 1.994.633.509 1.156 1.123 2.565.855.812-.709.991-2.054.856-3.709.545-.783 1.091-1.57 1.142-2.852-.31-.635-.47-1.424-.857-1.994zm-33.951 20.541c.418-.174-.025-.345 0 0zM2392.982 3060.087c-.992-5.074-2.472-9.66-4.627-13.573-.478-2.604-2.248-3.919-3.084-6.168-1.024-.518-1.045-2.042-2.158-2.467-.201-1.343-1.605-1.48-1.851-2.773-6.118-6.225-13.602-11.075-24.677-12.342-4.04-.174-8.8.37-12.339-.306-.874-1.903.06-5.612-2.468-5.864-.304-.943-.819.357-1.233.312-1.562 1.462.327 4.76-.615 6.476-16.7 2.221-28.545 9.296-37.938 18.815-1.165 2.849-3.271 4.754-4.627 7.403-1.35 2.662-2.66 5.36-4.01 8.021.191 2.453-.536 3.986-.312 6.479-.071 1.307.289 2.184.619 3.084-.517 1.511-.957 3.336.309 4.315 1.758.221 2.525-1.08 3.396-1.848.941-.832 1.491-1.96 2.776-2.468.826-.407 1.64-.83 2.466-1.235 1.963-.401 4.411-.316 6.788-.312.999.751 2.182 1.315 3.392 1.853-.071.586.352.68.308 1.232.838-.22-.221 1.457.617 1.235-.06 1.191.487 1.773 1.542 1.852 2.25-.321 2.189-2.953 3.087-4.625 3.226-3.604 9.314-5.846 16.35-4.627.673.659 1.712.959 2.158 1.85.511.823 1.763.906 1.85 2.159-.196 1.14-.837 1.834-.619 3.393v28.688c.31.823.639 1.626.619 2.775 2.166 3.691 4.191 7.528 8.328 9.253 3.621.885 6.41 1.078 9.869.311 1.217-.842 2.271-1.84 3.394-2.777.577-1.48 2.236-1.875 3.083-3.084 1.177-3.041 2.438-5.995 2.163-10.487-.826-1.336-1.394-2.928-2.777-3.702-.549-1.373-2.751-2.498-4.629-1.543-2.088 3.338 2.179 4.789 2.468 7.711-.586 5.068-3.535 7.771-9.873 7.099-2.942-2.502-3.841-7.06-5.24-11.107-1.032-4.515-1.773-9.327-2.467-14.187-.096-4.001.049-7.768.312-11.415.09-.834 1.296-.55 1.539-1.232.351-.678 1.032-1.023 1.235-1.851 1.143-.912 2.211-1.902 3.394-2.776 2.679-.919 5.154-2.042 8.944-1.85 1.809.862 3.586 1.759 4.625 3.39 1.056 1.005.26 3.857 2.16 4.014 2.969-.426 3.104-3.681 5.861-4.318 1.857-1.223 5.28-.888 8.325-.927 1.175 1.093 2.864 1.66 3.702 3.086 1.501.862 1.352 3.377 4.012 3.084.114-2.687-1.387-3.756-2.466-5.243-1.673-1.008-2.396-2.953-4.32-3.701-1.593-.26-2.735-.969-4.632-.926-2.235-.077-3.718 1.17-5.549.616-.865-7.978-4.36-13.321-8.019-18.508-.79-1.782-1.855-3.287-2.469-5.241-.454-.271-.978-.464-.927-1.236a8.533 8.533 0 0 1-2.158-2.159c-.954-.691-2.042-1.245-2.777-2.157-.787-.036-1.079-.566-1.539-.927-.275-.181-1.763-.647-.925-.925h6.168c1.481.366 2.959.741 4.627.925.26.665 1.59.261 1.851.927.976-.053 1.031.818 2.159.615 2.329 1.374 4.341 3.064 6.785 4.32 3.011 3.057 5.718 6.414 8.021 10.18 2.487 3.678 3.998 8.341 5.551 12.953.024 2.135.921 3.396.927 5.55.68 1.48.762 3.556 3.081 3.396 2.716-.269 2.497-3.472 2.464-6.485zm-88.214-4.935c.162.158-.225.394-.307.31-.16-.164.225-.398.307-.31zm-2.776.618c-.008.302-.378.238-.618.309.008-.304.378-.24.618-.309zm12.647 8.019c-1.372-.171-2.128-.959-3.087-1.544-1.128.103-1.712-.342-2.466-.616-4.249-.033-8.287.146-10.486 2.16-.781-.602.174-2.071.307-2.775a16.643 16.643 0 0 1 2.773-.927c.607-.522 1.911-.354 2.471-.925 2.162-.2 4.346-.384 4.937-2.16-.31-1.645-1.882-2.021-4.011-1.85 2.273-1.736 6.693-1.326 8.019-4.012-.19-1.351-1.774-1.309-3.39-1.23-1.562.285-2.836.861-4.32 1.23.919-1.756 3.168-2.181 4.936-3.084.324-1.352-1.043-1.012-.924-2.16a6.26 6.26 0 0 0 1.848-1.851c2.023-.139 4.803.482 5.557-.927.022-1.153-1.215-1.05-2.16-1.23.568-.461 1.466-.592 2.467-.617.57-.457 1.469-.592 2.469-.617 1.237-.714 2.93-.977 3.701-2.16-.193-1.141-1.734-.939-3.087-.926 2.225-1.988 5.53-2.9 8.021-4.625 1.854-.306 3.552-.77 4.935-1.543.79-.014.378.23.311.617-2.896 2.451-5.532 5.162-8.33 7.711-4.754 6.77-8.907 14.131-10.491 24.061zm26.22-1.233c-.606-.838-1.479-1.405-1.854-2.469-1.771-.491-3.131-1.392-4.935-1.851-4.472-.258-8.099.334-11.414 1.231-1.481.578-2.461 1.651-4.009 2.16 1.578-2.947 2.877-6.167 4.627-8.944.815-1.445 1.345-3.182 2.468-4.32.52-1.74 1.946-2.572 2.467-4.316a70.01 70.01 0 0 0 6.17-6.168c2.849-1.368 3.795-4.639 6.787-5.861-.697 9.584-.123 20.442-.307 30.538.444.265.976.46.92 1.233-.81.091-1.008-.429-.92-1.233zm26.525-3.702c.612.582.523 1.08.306 1.852-.682-.039-.129-1.31-.306-1.852zm-16.038-24.678c1.484 1.701 2.967 3.405 4.934 4.629 2.733 5.594 5.105 11.551 6.479 18.506-1.299-.551-2.251-1.452-3.704-1.849-2.466-.104-4.179.551-6.476.615-1.831.843-4.156 1.188-5.862 2.159-.779-1.276-.652-3.455-.925-5.244-.438-1.517-.178-3.729-.616-5.243V3031.4c.088-.496-.292-.529-.31-.926v-.925c.498-.089.532.291.926.312 1.778 1.512 3.399 3.175 5.554 4.315zM2710.239 3046.413c.956 1.213 1.551 3.426 3.025 4.535.042.03.246-.003.302 0 .353.018.135.194.305.302 1.647 1.068 3.076 1.128 4.841 0 .017-1.029-.896-1.126-1.517-1.512-.371-.637-.836-1.18-1.209-1.814-1.09-.928-1.436-2.6-1.812-4.233.484-.423.32-1.492.904-1.815.207-.701 1.007-.81 1.213-1.512 1.107-.708 2-1.63 3.022-2.418.947-1.876 2.671-2.977 3.024-5.446 1.183-1.643 1.492-4.155 1.816-6.653-.144-1.373-.545-2.48-.607-3.933-2.309-3.641-4.069-7.823-8.771-9.073-.124-.517-.392.063-.907 0-1.342-.029-2.266.357-2.418 1.513.105 1.504 1.427 1.8 2.418 2.419.843.772 1.812 1.416 2.724 2.119 1.767 2.566 3.539 5.131 3.022 9.979-1.268 5.283-5.547 7.562-8.469 11.19-.493 1.222-1.1 2.328-1.211 3.934-.061.97.539 1.276.305 2.418zm-4.232-5.446c1.433-2.019.257-5.359-1.211-6.353-1.024.083-2.452-.233-3.022.304v.906c1.479 1.648 1.564 4.687 4.233 5.143zm17.24 3.026c-.048.354.051.855-.303.905-.261 2.116-.181 4.521 2.421 4.535 1.346-.367 1.085-2.337 1.512-3.628 2.076-1.957 6.152-1.913 6.654-5.444-1.325-.729-2.691-.634-4.234-.302-.562.119-.906.528-1.211.604-.767.19-.81.398-1.209.604-.874.447-1.303.488-1.815.906-.753.618-1.124 1.44-1.815 1.82zm50.208 31.757c-.354-2.57-1.924-3.925-3.023-5.747-1.727-1.298-2.986-3.063-4.537-4.536-1.864-.658-3.363-1.679-5.748-1.813-3.238.187-6.299.555-8.168 2.116-.643-2.184-1.608-4.036-3.022-5.445-5.035-.855-10.44.414-16.03 0-5.144-.501-10.361-.932-15.425-1.51-6.173-.227-11.547.348-17.543.3-5.158-.726-12.662-1.718-17.542 0-.021.889-.691 1.125-1.21 1.512-1.31 3.188-.024 7.229-.304 11.193.688.319.117 1.898.304 2.721.255.754.394 1.622.303 2.723.595.414.163 1.853.606 2.42.021.982.152 1.861.603 2.42.623 3.408 1.765 6.304 3.327 8.772.364.474.444 1.156.604 1.511.049.104.532.182.607.303.088.148-.072.446 0 .604.047.106.531.176.604.304.357.651.324 1.22.605 1.513.242.252.357.648.604.906.657.686 1.275 1.543 1.512 2.42.723.487 1.335 1.086 2.117 1.51.53.561 2.262.918 1.517 1.817-3.047.384-6.035.823-9.68.604-1.796-.321-3.57-.663-5.446-.907-1.487-.932-3.741-1.098-5.143-2.114-2.228-.37-4.593-.253-5.141 1.812-.018.186-.044.358-.305.302.033 2.69 1.29 4.156 3.027 5.144 1.276 1.444 3.17 2.274 5.141 3.024 1.713 1.011 3.785 1.657 5.747 2.42 1.136.275 2.137.685 3.325.906.773.637 2.184.644 3.024 1.211 3.093.133 5.886.569 8.771.906 9.205-.071 18.979.431 26.618-1.21 7.711-.157 15.174.239 22.382-.907.678-.529 1.698-.719 2.418-1.209.499-.715 1.556-.861 2.118-1.514 2.266-.252 3.211-1.828 5.142-2.42 1.545-2.184 4.342-3.115 3.932-7.257-.819-.392-1.073-1.347-2.42-1.21-1.327-.019-2.499.121-3.327.602-2.248.373-4.645.6-6.959.91h-11.793c.389-.926 1.729-.889 2.118-1.814.89-.422 1.146-1.479 2.42-1.514 1.513-.102 1.67 1.153 3.327.908 2.284-1.143 3.213-3.641 5.744-4.536.74-.269 1.312-.706 2.421-.605.383-.728 2.384.167 2.721-.604 2.444.226 3.571-.869 5.748-.908 3.321-1.015 6.642-2.026 9.071-3.932.654-.759.957-1.869 1.816-2.419.35-1.667 1.166-2.87 1.21-4.841.696-1.324 1.452-2.586 1.212-4.842zm-75.615-13.309h.605c.062.851-2.263-.084-.605 0zm-11.796 11.495c-.155-.157.22-.388.303-.303.157.155-.218.385-.303.303zm3.933 8.769c-.157-.156.22-.384.303-.301.154.158-.219.386-.303.301zm59.584 21.173c.49.085.521-.286.906-.304h2.118c.571.137 1.822-.41 1.512.604-.347.108-.767.533-.303.605-.221.28-.55.457-.908.604-.339.567-1.171.645-1.51 1.21-1.185-.176-1.758.26-2.421.605-.107.8-1.539.272-1.816.906-2.483.34-5.389.256-7.559.907-10.778.312-21.803.377-32.363.906-1.111.201-2.302.322-3.328.606h-9.375c-1.431-.08-2.33-.694-3.935-.606-1.387-.121-2.737-.281-2.721-1.813-.118-2.135 2.715-1.316 4.235-1.812 1.473-.545 3.443-.588 5.142-.909 2.16.159 3.916.722 6.354.604 1.494-.016 2.666-.355 3.93-.604 8.32-.032 16.759-1.269 25.102-.302 5.507-1.147 11.599-.341 16.94-1.207zm-12.102-9.073c-3.059 2.385-8.098 2.787-12.094 4.234-2.555-.232-4.168.468-6.653.303.308-1.404 1.382-2.045 1.206-3.934-2.893-.174-3.197 2.246-4.232 3.934-.854-.254-1.865-.354-2.726-.607.367-2.254 1.864-3.377 2.422-5.442-1.012-1.229-2.729.218-3.325 1.211-.977.837-1.396 2.231-2.42 3.022-.93-.078-1.361-.654-2.117-.906 1.253-2.273 2.572-4.482 3.63-6.955-1.988-.992-2.931 1.44-4.234 2.114-.88 1.438-2.062 2.576-2.721 4.235-1.361-.054-2.195-.628-3.026-1.209.145-2.979 1.998-4.254 2.118-7.261-2.368.354-2.974 2.471-4.232 3.934-.65-.438-2.166-1.011-1.212-2.118.162-1.048.812-1.61.906-2.721.661-1.763 1.617-3.221 1.814-5.443-2.341-.327-2.396 1.632-3.628 2.418-.36 1.655-1.456 2.58-1.813 4.234a7.145 7.145 0 0 1-2.423-2.723c.494-1.723 1.054-3.383 1.517-5.143.308-1.412 1.897-3.357.603-4.535-1.505.308-1.62 2.007-2.721 2.723-.137.771-.427 1.389-.909 1.812-.103.703-.193 1.416-1.209 1.211-1.292.083-.021-1.326 0-1.814.004-.713-.521-.892-.303-1.814.532-3.021 2.951-5.688 2.118-9.074-1.661-.047-1.704 1.525-2.418 2.42-.828.787-.862 2.366-2.118 2.724-.482-2.277-1.537-5.474-1.212-7.562.14-.646-.435-.575-.906-.604.068-1.545 1.97-1.259 2.722-2.119-.189-.718-1.859.048-2.118-.604.041-.968 1.35-.666 1.815-1.209 3.305.527 6.846.818 9.98 1.512.923.218 1.103-.31 1.814-.303h3.327c.714-.25 1.392.427.3.303h-1.509c.131.677 1.488.122 2.118.302h2.418c14.041.578 27.17 2.065 42.041 1.815-2.291 11.117-4.508 22.309-10.59 29.639zm11.196-11.493c.86-2.871 1.491-5.967 2.418-8.772 1.975-1.866 5.784-.925 9.073-.906a2.73 2.73 0 0 0 1.209 1.209c.166.539.153 1.257.604 1.513-.351 1.666-1.205 2.827-2.116 3.932-2.702 2.033-7.527 1.948-11.188 3.024zm19.052-5.142c-.211 1.299-.388 2.636-.907 3.629-.042 1.367-1.241 1.582-1.207 3.023-2.327.804-4.541 1.714-7.564 1.815-.955.654-2.902.32-3.931.905-.806.003-1.729-.112-2.118.304-.532.174-1.774-.364-1.813.303-1.236.144-.044-.813.303-.907.265-.444.452-.959 1.211-.907.795-.716 2.026-.995 3.326-1.21 2.162-.76 4.891-.955 6.652-2.116 2.261-1.472 3.324-4.136 3.023-8.167-.16-.243-.313-.49-.303-.906-.544-1.371-1.719-2.111-2.722-3.024-2.815-.761-6.535-.741-9.377 0 .503-.607.813-1.406 1.815-1.513.132-.373.388-.623.908-.604.672.166.43-.579.907-.604.075-.327.603-.205.604-.604h4.838c1.481.332 2.49 1.137 3.934 1.51.422 1.193 1.466 1.763 2.118 2.726-.236 2.448.437 3.996.303 6.347zM76.387 37.279c3.043.09 5.906-.001 7.944-.918 1.155-2.509 1.646-5.688 1.835-9.167-.566-.045-.188-1.034-.613-1.224-.09-.62-.826-.598-.916-1.221-.82-.505-1.354-1.295-2.141-1.834-2.152-.495-4.268-1.027-6.414-1.528-2.512.136-5.611-.314-7.643.306-7.761-.124-11.844 3.433-15.583 7.334-.069.238-.01.604-.31.61-1.702 4.868-.37 11.104-.606 17.114.292 1.338.318 2.94.606 4.277-2.959.908-6.555 1.185-10.082 1.529-.939.994-.527 3.341-.61 5.195.252 1.787.824 3.25 1.224 4.888.624.592 1.766 1.217 2.444 1.529.193.089.212.253.305.304 1.497.821 4.3.024 6.719.307-.405 6.064.757 12.004 0 17.417.019 1.003.872 1.171.614 2.445-.003 2.953-.198 6.104.614 8.25-.849 1.395-1.471 3.015-1.228 5.502.36.049.336.482.31.916-.222 1.442 1.906.537 1.527 2.141.48 1.398-1.268.564-1.223 1.527v2.75c1.57.875 4.332.559 6.722.61 2.689-1.284 6.479-1.467 8.252-3.668 1.359.722 2.712-.041 3.667-.61-.05-.967.812-1.021.609-2.14-.012-1.007-.514-1.521-.305-2.75v-8.86c-.609-7.029-.141-15.142-.914-22.004 2.631-.322 5.679-.229 7.639-1.223 1.059-1.382 1.118-3.772 1.527-5.807.525-.693.654-1.789.611-3.055.565-.655.203-2.238.307-3.36-.416-1.826-.498-3.987-2.445-4.278-2.618-.722-6.055 1.825-8.864.916.146-3.479-.868-7.182 0-10.389 2.214-.54 4.288-1.212 6.421-1.831zM65.078 51.946c.348.778.752 1.491 1.225 2.14.235.069.602.008.609.306 3.533.173 6.516-.21 9.17-.916.003 3.06-.801 5.313-1.531 7.64-1.961.139-4.346.92-5.803.611-.818.504-1.102 1.55-1.836 2.138-.145 1.354.419 1.519 0 2.443-.598.42-.164 1.875-.609 2.444v4.587c.252.861-.431.789-.305 1.524v10.696c-.253.862.432.791.305 1.528v9.168c.188.828-.389 2.423.305 2.748-.209 1.116-1.221-.063-2.443.306-1.566.373-2.742 1.133-4.585 1.225.347-1.08.948-1.905.919-3.362.145-1.166-1.082-.956-1.527-1.528.572-1.973 1.664-3.425 2.138-5.498.585-1.576 2.117-3.979.915-5.502-1.547-.322-1.543.902-2.445 1.224-.068.237-.006.602-.305.61-.069.237-.008.602-.303.611.03.368-.448.188 0 0 .065-.238.006-.604.303-.611.069-.237.006-.604.305-.61v-.918c1.09-1.763 1.985-3.722 2.445-6.111.568-.858.84-2.013 1.223-3.058.463-.803 1.007-2.666.308-3.666-1.53.103-2.355.906-2.753 2.139-.95-.582.479-1.328.308-2.139.41-.709.502-1.734.915-2.443.599-1.266 1.675-3.996 0-4.891-1.294-.072-1.812.635-2.14 1.525-.634.588-1.273 1.174-1.528 2.142-1.107-.216-.421-2.229-.611-3.362-.198-1.593.364-2.76 0-3.666-1.657-2.451-6.002-.323-9.472-.917-.323-.94-.658-3.017-.307-3.667 3.096-.269 7.343.617 9.473-.611.071-.237.009-.604.306-.61.279-2.217-.804-3.066-1.525-4.279.688-2.471.12-6.194.306-9.167.693-.43.973-1.269 1.527-1.833.331-2.927 1.993-4.525 2.136-7.641-.807.004-1.798-.169-1.833.611-.894-.352-1.131 1.466-1.525.611-.334-1.658.73-1.921.914-3.058 1.776-1.281 3.592-2.516 5.502-3.665 5.159-.749 13.77-1.377 18.031.608.15 1.888-.85 2.618-.612 4.587h-4.582c-3.235.736-5.887 2.061-8.864 3.057-.709.204-.818 1.015-1.525 1.222-.109 1.217-.668 1.982-.92 3.055-.238 4.411.39 7.961.301 12.223z" fill="#ffbd69" class="fill-000000"></path></svg>